SplineFontDB: 3.2
FontName: BertiogaSans-BlackItalic
FullName: Bertioga Sans Black Italic
FamilyName: Bertioga Sans Black
Weight: Black
Copyright: Copyright 2020 The Arimo Project Authors (https://github.com/googlefonts/arimo)\nCopyright 2020 The Libra Sans Project Authors (https://github.com/stefanpeev/libra-sans)\nCopyright 2024 The Bertioga Sans Project Authors (https://github.com/cssobral2013/bertioga-sans)
UComments: "2024-2-22: Created with FontForge (http://fontforge.org)"
Version: 3.004
ItalicAngle: -12
UnderlinePosition: -100
UnderlineWidth: 50
Ascent: 1638
Descent: 410
InvalidEm: 0
LayerCount: 2
Layer: 0 1 "Back" 1
Layer: 1 1 "Fore" 0
XUID: [1021 531 -1996577725 1634362]
StyleMap: 0x0001
FSType: 0
OS2Version: 4
OS2_WeightWidthSlopeOnly: 0
OS2_UseTypoMetrics: 1
CreationTime: 1708632248
ModificationTime: 1708632643
PfmFamily: 17
TTFWeight: 900
TTFWidth: 5
LineGap: 67
VLineGap: 0
Panose: 2 11 10 4 2 2 2 2 2 4
OS2TypoAscent: 1854
OS2TypoAOffset: 0
OS2TypoDescent: -410
OS2TypoDOffset: 0
OS2TypoLinegap: 67
OS2WinAscent: 2136
OS2WinAOffset: 0
OS2WinDescent: 797
OS2WinDOffset: 0
HheadAscent: 1854
HheadAOffset: 0
HheadDescent: -434
HheadDOffset: 0
OS2SubXSize: 1331
OS2SubYSize: 1433
OS2SubXOff: 0
OS2SubYOff: 286
OS2SupXSize: 1331
OS2SupYSize: 1433
OS2SupXOff: 0
OS2SupYOff: 983
OS2StrikeYSize: 102
OS2StrikeYPos: 530
OS2CapHeight: 1409
OS2XHeight: 1082
OS2Vendor: 'GOOG'
OS2CodePages: e00001bf.dff70000
OS2UnicodeRanges: e0000aff.500078ff.00000029.00000000
Lookup: 4 1 0 "dligDiscretionaryLigaturesinHebrewlookup1" { "dligDiscretionaryLigaturesinHebrewlookup1 subtable"  } ['dlig' ('hebr' <'dflt' > ) ]
Lookup: 4 0 0 "ccmpGlyphCompositionDecompositionlookup2" { "ccmpGlyphCompositionDecompositionlookup2 subtable"  } ['ccmp' ('latn' <'dflt' 'MAH ' > 'grek' <'dflt' > 'cyrl' <'dflt' > ) ]
Lookup: 6 0 0 "ccmpGlyphCompositionDecompositionlookup3" { "ccmpGlyphCompositionDecompositionlookup3 subtable"  } ['ccmp' ('latn' <'dflt' 'MAH ' > 'grek' <'dflt' > 'cyrl' <'dflt' > ) ]

StartChar: .notdef
Encoding: 65536 -1 0
Width: 1536
GlyphClass: 2
Flags: HW
LayerCount: 2
Fore
SplineSet
1330 1409 m 1,0,0
 1330 0 l 1,0,0
 205 0 l 1,0,0
 205 1409 l 1,0,0
 1330 1409 l 1,0,0
281 76 m 1,0,0
 1254 76 l 1,0,0
 1254 1333 l 1,0,0
 281 1333 l 1,0,0
 281 76 l 1,0,0
EndSplineSet
EndChar

StartChar: exclam
Encoding: 33 33 4
Width: 757
GlyphClass: 2
Flags: HW
LayerCount: 2
Fore
SplineSet
712.66 1409 m 1,0,0
 485.98 445.43 l 1,0,0
 201.04 445.43 l 1,0,0
 353 1409 l 1,0,0
 712.66 1409 l 1,0,0
491.36 316.23 m 1,0,0
 431.32 0 l 1,0,0
 80.34 0 l 1,0,0
 140.38 316.23 l 1,0,0
 491.36 316.23 l 1,0,0
EndSplineSet
EndChar

StartChar: quotedbl
Encoding: 34 34 5
Width: 1134
GlyphClass: 2
Flags: HW
LayerCount: 2
Fore
SplineSet
1118.63 1409 m 1,0,0
 975.89 852.44 l 1,0,0
 705.3 852.44 l 1,0,0
 782.66 1409 l 1,0,0
 1118.63 1409 l 1,0,0
651.1 1409 m 1,0,0
 511.7 852.44 l 1,0,0
 240.44 852.44 l 1,0,0
 318.47 1409 l 1,0,0
 651.1 1409 l 1,0,0
EndSplineSet
EndChar

StartChar: numbersign
Encoding: 35 35 6
Width: 1139
GlyphClass: 2
Flags: HW
LayerCount: 2
Fore
SplineSet
390.08 362.91 m 1,0,0
 312.76 0 l 1,0,0
 130.95 0 l 1,0,0
 206.6 362.91 l 1,0,0
 82.42 362.91 l 1,0,0
 82.42 539.38 l 1,0,0
 245.63 539.38 l 1,0,0
 310.27 846.59 l 1,0,0
 133.42 846.59 l 1,0,0
 133.42 1021.39 l 1,0,0
 347.3 1021.39 l 1,0,0
 427.95 1390.98 l 1,0,0
 609.76 1390.98 l 1,0,0
 531.78 1021.39 l 1,0,0
 801.26 1021.39 l 1,0,0
 882.58 1390.98 l 1,0,0
 1069.4 1390.98 l 1,0,0
 988.08 1021.39 l 1,0,0
 1120.59 1021.39 l 1,0,0
 1120.59 846.59 l 1,0,0
 947.71 846.59 l 1,0,0
 884.74 539.38 l 1,0,0
 1069.59 539.38 l 1,0,0
 1069.59 362.91 l 1,0,0
 848.38 362.91 l 1,0,0
 770.4 0 l 1,0,0
 583.58 0 l 1,0,0
 659.56 362.91 l 1,0,0
 390.08 362.91 l 1,0,0
428.44 539.38 m 1,0,0
 701.93 539.38 l 1,0,0
 766.57 846.59 l 1,0,0
 495.08 846.59 l 1,0,0
 428.44 539.38 l 1,0,0
EndSplineSet
EndChar

StartChar: dollar
Encoding: 36 36 7
Width: 1139
GlyphClass: 2
Flags: HW
LayerCount: 2
Fore
SplineSet
1085.36 506.83 m 0,0,0
 1085.36 275.07 1085.36 275.07 942.015 154.54 c 0,0,0
 798.67 34.01 798.67 34.01 499.92 21 c 1,0,0
 465.58 -160.04 l 1,0,0
 354.92 -160.04 l 1,0,0
 386.92 23 l 1,0,0
 227.67 13.62 227.67 13.62 109.645 109.465 c 0,0,0
 -8.38 205.31 -8.38 205.31 -10.33 359.3 c 1,0,0
 318 404.65 l 1,0,0
 312.94 334.74 312.94 334.74 345.36 299.955 c 0,0,0
 377.78 265.17 377.78 265.17 438.3 271.87 c 1,0,0
 495.89 589.52 l 1,0,0
 343.55 623.84 343.55 623.84 233.14 718.27 c 0,0,0
 176.84 771.62 176.84 771.62 148.025 836.955 c 0,0,0
 119.21 902.29 119.21 902.29 119.21 967.9 c 0,0,0
 119.21 1098.27 119.21 1098.27 180.87 1194.63 c 0,0,0
 240.86 1289.32 240.86 1289.32 369.885 1345.01 c 0,0,0
 498.91 1400.7 498.91 1400.7 659.27 1400.03 c 1,0,0
 682.6 1522.68 l 1,0,0
 789.92 1516 l 1,0,0
 762.92 1390.69 l 1,0,0
 928.94 1403.42 928.94 1403.42 1036.47 1321.74 c 0,0,0
 1144 1240.06 1144 1240.06 1148.29 1090.34 c 1,0,0
 816.94 1025.3 l 1,0,0
 798.66 1177.27 798.66 1177.27 717.55 1159.18 c 1,0,0
 663.28 865.14 l 1,0,0
 880.99 817.15 880.99 817.15 983.175 730.995 c 0,0,0
 1085.36 644.84 1085.36 644.84 1085.36 506.83 c 0,0,0
444.83 997.96 m 0,0,0
 444.83 961.02 444.83 961.02 468.955 935.555 c 0,0,0
 493.08 910.09 493.08 910.09 555.28 888.46 c 1,0,0
 612.9 1163.18 l 1,0,0
 544.72 1166.53 544.72 1166.53 494.775 1116.21 c 0,0,0
 444.83 1065.89 444.83 1065.89 444.83 997.96 c 0,0,0
758.41 413 m 0,0,0
 758.41 489.33 758.41 489.33 718.765 523.13 c 0,0,0
 679.12 556.93 679.12 556.93 605.56 566.87 c 1,0,0
 543.95 272.54 l 1,0,0
 629.47 267.18 629.47 267.18 693.94 307.805 c 0,0,0
 758.41 348.43 758.41 348.43 758.41 413 c 0,0,0
EndSplineSet
EndChar

StartChar: percent
Encoding: 37 37 8
Width: 1821
GlyphClass: 2
Flags: HW
LayerCount: 2
Fore
SplineSet
546.67 1421 m 0,0,0
 713.42 1421 713.42 1421 801.295 1341.165 c 0,0,0
 889.17 1261.33 889.17 1261.33 889.17 1113 c 0,0,0
 889.17 1038.36 889.17 1038.36 856.47 930.98 c 0,0,0
 841.8 862.98 841.8 862.98 819.635 811.005 c 0,0,0
 797.47 759.03 797.47 759.03 768.48 718.05 c 0,0,0
 635.1 524 635.1 524 407.67 524 c 0,0,0
 253.61 524 253.61 524 171.415 609.005 c 0,0,0
 89.22 694.01 89.22 694.01 89.22 841 c 0,0,0
 89.22 891.81 89.22 891.81 97.81 937.28 c 1,0,0
 174.44 1421 174.44 1421 546.67 1421 c 0,0,0
526.87 0 m 1,0,0
 308.43 0 l 1,0,0
 1327.43 1409 l 1,0,0
 1547.87 1409 l 1,0,0
 526.87 0 l 1,0,0
545.67 1241.19 m 0,0,0
 523.76 1241.19 523.76 1241.19 502.47 1236.91 c 0,0,0
 481.18 1232.63 481.18 1232.63 464.21 1226.75 c 0,0,0
 428.18 1189.43 428.18 1189.43 402.83 1112.405 c 0,0,0
 377.48 1035.38 377.48 1035.38 364.975 955.52 c 0,0,0
 352.47 875.66 352.47 875.66 352.47 827 c 0,0,0
 352.47 717.16 352.47 717.16 411.67 717.16 c 0,0,0
 471.62 717.16 471.62 717.16 509.92 755.77 c 0,0,0
 537.91 781.74 537.91 781.74 557.4 824.525 c 0,0,0
 576.89 867.31 576.89 867.31 590.89 940.31 c 1,0,0
 624.92 1053 624.92 1053 624.92 1131 c 0,0,0
 624.92 1241.19 624.92 1241.19 545.67 1241.19 c 0,0,0
1440.6 879.99 m 0,0,0
 1607.35 879.99 1607.35 879.99 1696.06 800.155 c 0,0,0
 1784.77 720.32 1784.77 720.32 1784.77 571.99 c 0,0,0
 1784.77 496.01 1784.77 496.01 1752.74 393.32 c 0,0,0
 1738.07 324.65 1738.07 324.65 1715.905 271.67 c 0,0,0
 1693.74 218.69 1693.74 218.69 1664.08 177.04 c 0,0,0
 1530.7 -17.01 1530.7 -17.01 1303.27 -17.01 c 0,0,0
 1149.21 -17.01 1149.21 -17.01 1067.015 67.995 c 0,0,0
 984.82 153 984.82 153 984.82 299.99 c 0,0,0
 984.82 350.8 984.82 350.8 993.41 396.27 c 1,0,0
 1070.04 879.99 1070.04 879.99 1440.6 879.99 c 0,0,0
1441.27 700.18 m 0,0,0
 1421.03 700.18 1421.03 700.18 1398.905 695.9 c 0,0,0
 1376.78 691.62 1376.78 691.62 1359.81 685.74 c 0,0,0
 1323.78 648.42 1323.78 648.42 1299.265 571.395 c 0,0,0
 1274.75 494.37 1274.75 494.37 1261.41 414.51 c 0,0,0
 1248.07 334.65 1248.07 334.65 1248.07 285.99 c 0,0,0
 1248.07 176.15 1248.07 176.15 1307.27 176.15 c 0,0,0
 1372.23 176.15 1372.23 176.15 1412.2 223.11 c 0,0,0
 1437.18 248.41 1437.18 248.41 1453.83 286.51 c 0,0,0
 1470.48 324.61 1470.48 324.61 1485.15 390.59 c 1,0,0
 1520.52 508.64 1520.52 508.64 1520.52 589.99 c 0,0,0
 1520.52 700.18 1520.52 700.18 1441.27 700.18 c 0,0,0
EndSplineSet
EndChar

StartChar: ampersand
Encoding: 38 38 9
Width: 1554
GlyphClass: 2
Flags: HW
LayerCount: 2
Fore
SplineSet
1383.27 672.31 m 1,0,0
 1355.02 603.82 1355.02 603.82 1278.345 494.34 c 0,0,0
 1201.67 384.86 1201.67 384.86 1113.98 296.51 c 1,0,0
 1150.64 268.53 1150.64 268.53 1192.79 255.545 c 0,0,0
 1234.94 242.56 1234.94 242.56 1295.97 242.56 c 0,0,0
 1361.98 242.56 1361.98 242.56 1406.3 258.56 c 1,0,0
 1349.88 10 l 1,0,0
 1280.86 -12 1280.86 -12 1201.5 -12 c 0,0,0
 1010.75 -12 1010.75 -12 873.72 101.65 c 1,0,0
 838.72 71.64 838.72 71.64 811.74 53.98 c 0,0,0
 784.76 36.32 784.76 36.32 767.47 28 c 0,0,0
 720.83 7.34 720.83 7.34 649.15 -6.33 c 0,0,0
 577.47 -20 577.47 -20 480.08 -20 c 0,0,0
 271.04 -20 271.04 -20 165.38 73.82 c 0,0,0
 59.72 167.64 59.72 167.64 59.72 356.01 c 0,0,0
 59.72 457.67 59.72 457.67 112.245 546.69 c 0,0,0
 164.77 635.71 164.77 635.71 259.94 704.885 c 0,0,0
 355.11 774.06 355.11 774.06 483.71 814.35 c 1,0,0
 468.04 854.98 468.04 854.98 456.03 921.33 c 0,0,0
 444.02 987.68 444.02 987.68 444.02 1037.67 c 0,0,0
 444.02 1209 444.02 1209 562.54 1313 c 0,0,0
 681.06 1417 681.06 1417 891.45 1417 c 0,0,0
 1064.52 1417 1064.52 1417 1154.36 1352.515 c 0,0,0
 1244.2 1288.03 1244.2 1288.03 1244.2 1163.35 c 0,0,0
 1244.2 1089.1 1244.2 1089.1 1223.655 1029.82 c 0,0,0
 1203.11 970.54 1203.11 970.54 1200.19 927.62 c 0,0,0
 1149.15 887.9 1149.15 887.9 1048.01 835.82 c 0,0,0
 946.87 783.74 946.87 783.74 796.3 722.31 c 1,0,0
 842.65 598.62 842.65 598.62 869.595 550.065 c 0,0,0
 896.54 501.51 896.54 501.51 937.48 448.6 c 1,0,0
 1009.17 521.61 1009.17 521.61 1068.675 610.6 c 0,0,0
 1128.18 699.59 1128.18 699.59 1159.42 774.07 c 1,0,0
 1383.27 672.31 l 1,0,0
717.25 1041 m 0,0,0
 717.25 962.67 717.25 962.67 737.92 918.11 c 1,0,0
 803.56 943.77 803.56 943.77 837.49 962.255 c 0,0,0
 871.42 980.74 871.42 980.74 878.33 986.02 c 0,0,0
 927.66 1018.02 927.66 1018.02 950.48 1054.845 c 0,0,0
 973.3 1091.67 973.3 1091.67 973.3 1137.98 c 0,0,0
 973.3 1179.6 973.3 1179.6 947.84 1196.885 c 0,0,0
 922.38 1214.17 922.38 1214.17 874.43 1214.17 c 0,0,0
 807.52 1214.17 807.52 1214.17 762.385 1167.545 c 0,0,0
 717.25 1120.92 717.25 1120.92 717.25 1041 c 0,0,0
520.47 209.53 m 0,0,0
 570.74 209.53 570.74 209.53 624.03 230.02 c 0,0,0
 677.32 250.51 677.32 250.51 706.24 273.79 c 1,0,0
 651.61 350.43 651.61 350.43 613 427.84 c 0,0,0
 574.39 505.25 574.39 505.25 540.41 601.52 c 1,0,0
 445.89 552.22 445.89 552.22 408.78 490.575 c 0,0,0
 371.67 428.93 371.67 428.93 371.67 364.02 c 0,0,0
 371.67 296.44 371.67 296.44 412.615 252.985 c 0,0,0
 453.56 209.53 453.56 209.53 520.47 209.53 c 0,0,0
EndSplineSet
EndChar

StartChar: quotesingle
Encoding: 39 39 10
Width: 551
GlyphClass: 2
Flags: HW
LayerCount: 2
Fore
SplineSet
605.98 1409 m 1,0,0
 466.58 852.44 l 1,0,0
 195.32 852.44 l 1,0,0
 275.02 1409 l 1,0,0
 605.98 1409 l 1,0,0
EndSplineSet
EndChar

StartChar: parenleft
Encoding: 40 40 11
Width: 682
GlyphClass: 2
Flags: HW
LayerCount: 2
Fore
SplineSet
886.73 1484 m 1,0,0
 398.91 990.03 398.91 990.03 398.91 292.06 c 0,0,0
 398.91 -113.64 398.91 -113.64 505.71 -425.67 c 1,0,0
 163.04 -425.67 l 1,0,0
 59.26 -97.27 59.26 -97.27 59.26 308.06 c 0,0,0
 59.26 665.03 59.26 665.03 179.2 965.35 c 0,0,0
 299.14 1265.67 299.14 1265.67 534.04 1484 c 1,0,0
 886.73 1484 l 1,0,0
EndSplineSet
EndChar

StartChar: parenright
Encoding: 41 41 12
Width: 682
GlyphClass: 2
Flags: HW
LayerCount: 2
Fore
SplineSet
-167.27 -425.67 m 1,0,0
 322.22 90.01 322.22 90.01 322.22 816.37 c 0,0,0
 322.22 970.29 322.22 970.29 289.925 1157.32 c 0,0,0
 257.63 1344.35 257.63 1344.35 212.08 1484 c 1,0,0
 538.05 1484 l 1,0,0
 663.54 1147.25 663.54 1147.25 663.54 800.37 c 0,0,0
 663.54 423.36 663.54 423.36 540.26 109.68 c 0,0,0
 416.98 -204 416.98 -204 185.42 -425.67 c 1,0,0
 -167.27 -425.67 l 1,0,0
EndSplineSet
EndChar

StartChar: asterisk
Encoding: 42 42 13
Width: 797
GlyphClass: 2
Flags: HW
LayerCount: 2
Fore
SplineSet
851.86 772.02 m 1,0,0
 624.31 618.19 l 1,0,0
 480.99 866.17 l 1,0,0
 336.68 616.85 l 1,0,0
 105.79 774.02 l 1,0,0
 296.46 960.23 l 1,0,0
 66.56 1013.19 l 1,0,0
 149.97 1252.4 l 1,0,0
 370.21 1150.41 l 1,0,0
 348.19 1409 l 1,0,0
 616.12 1409 l 1,0,0
 594.77 1149.07 l 1,0,0
 810.34 1253.74 l 1,0,0
 893.75 1013.19 l 1,0,0
 665.19 960.23 l 1,0,0
 851.86 772.02 l 1,0,0
EndSplineSet
EndChar

StartChar: plus
Encoding: 43 43 14
Width: 1196
GlyphClass: 2
Flags: HW
LayerCount: 2
Fore
SplineSet
782.83 542.87 m 1,0,0
 782.83 148.27 l 1,0,0
 503.9 148.27 l 1,0,0
 503.9 542.87 l 1,0,0
 121.65 542.87 l 1,0,0
 121.65 819.13 l 1,0,0
 503.9 819.13 l 1,0,0
 503.9 1213.73 l 1,0,0
 782.83 1213.73 l 1,0,0
 782.83 819.13 l 1,0,0
 1170.09 819.13 l 1,0,0
 1170.09 542.87 l 1,0,0
 782.83 542.87 l 1,0,0
EndSplineSet
EndChar

StartChar: comma
Encoding: 44 44 15
Width: 569
GlyphClass: 2
Flags: HW
LayerCount: 2
Fore
SplineSet
379.16 76.05 m 2,0,0
 352.81 -60.7 352.81 -60.7 303.11 -163.255 c 0,0,0
 253.41 -265.81 253.41 -265.81 168.35 -353.85 c 1,0,0
 -58.19 -353.85 l 1,0,0
 31.87 -269.15 31.87 -269.15 93.755 -174.76 c 0,0,0
 155.64 -80.37 155.64 -80.37 170.31 0 c 1,0,0
 13.84 0 l 1,0,0
 84.23 362.62 l 1,0,0
 436.21 362.62 l 1,0,0
 379.16 76.05 l 2,0,0
EndSplineSet
EndChar

StartChar: hyphen
Encoding: 45 45 16
Width: 682
GlyphClass: 2
Flags: HW
LayerCount: 2
Fore
SplineSet
614.29 672.43 m 1,0,0
 556.57 372.15 l 1,0,0
 23.17 372.15 l 1,0,0
 80.89 672.43 l 1,0,0
 614.29 672.43 l 1,0,0
EndSplineSet
EndChar

StartChar: period
Encoding: 46 46 17
Width: 569
GlyphClass: 2
Flags: HW
LayerCount: 2
Fore
SplineSet
444.92 362.62 m 1,0,0
 375.2 0 l 1,0,0
 23.22 0 l 1,0,0
 92.94 362.62 l 1,0,0
 444.92 362.62 l 1,0,0
EndSplineSet
EndChar

StartChar: slash
Encoding: 47 47 18
Width: 569
GlyphClass: 2
Flags: HW
LayerCount: 2
Fore
SplineSet
751.68 1484 m 1,0,0
 247.07 -55.07 l 1,0,0
 -49.2 -55.07 l 1,0,0
 460.08 1484 l 1,0,0
 751.68 1484 l 1,0,0
EndSplineSet
EndChar

StartChar: zero
Encoding: 48 48 19
Width: 1139
GlyphClass: 2
Flags: HW
LayerCount: 2
Fore
SplineSet
718.64 1430 m 0,0,0
 925.02 1430 925.02 1430 1021.005 1317.855 c 0,0,0
 1116.99 1205.71 1116.99 1205.71 1116.99 964 c 0,0,0
 1116.99 948.48 1116.99 948.48 1105.79 796.32 c 0,0,0
 1037.81 384.31 1037.81 384.31 882.285 182.155 c 0,0,0
 726.76 -20 726.76 -20 479.34 -20 c 0,0,0
 266.61 -20 266.61 -20 174.465 89.795 c 0,0,0
 82.32 199.59 82.32 199.59 82.32 446.63 c 0,0,0
 82.32 521.54 82.32 521.54 102.32 647.71 c 0,0,0
 122.32 773.88 122.32 773.88 160.32 907.585 c 0,0,0
 198.32 1041.29 198.32 1041.29 249.65 1137.97 c 0,0,0
 327.98 1282.32 327.98 1282.32 443.31 1356.16 c 0,0,0
 558.64 1430 558.64 1430 718.64 1430 c 0,0,0
501.02 250.58 m 0,0,0
 596.91 250.58 596.91 250.58 649.49 359.92 c 0,0,0
 670.79 403.59 670.79 403.59 689.93 477.275 c 0,0,0
 709.07 550.96 709.07 550.96 725.385 634.47 c 0,0,0
 741.7 717.98 741.7 717.98 753.855 794.63 c 0,0,0
 766.01 871.28 766.01 871.28 772.17 923.05 c 0,0,0
 778.33 974.82 778.33 974.82 778.33 979.68 c 0,0,0
 778.33 1069.55 778.33 1069.55 754.735 1114.985 c 0,0,0
 731.14 1160.42 731.14 1160.42 676.58 1160.42 c 0,0,0
 583.88 1160.42 583.88 1160.42 536.575 1099.685 c 0,0,0
 489.27 1038.95 489.27 1038.95 457.3 900.78 c 0,0,0
 457.73 849.45 457.73 849.45 452.63 767.96 c 0,0,0
 447.53 686.47 447.53 686.47 440.405 604.68 c 0,0,0
 433.28 522.89 433.28 522.89 427.13 465.155 c 0,0,0
 420.98 407.42 420.98 407.42 420.98 399.59 c 0,0,0
 420.98 324.75 420.98 324.75 438.73 287.665 c 0,0,0
 456.48 250.58 456.48 250.58 501.02 250.58 c 0,0,0
EndSplineSet
EndChar

StartChar: one
Encoding: 49 49 20
Width: 1139
GlyphClass: 2
Flags: HW
LayerCount: 2
Fore
SplineSet
1071.21 283.26 m 1,0,0
 1017.83 0 l 1,0,0
 19.6 0 l 1,0,0
 71.31 283.26 l 1,0,0
 413.61 283.26 l 1,0,0
 573.18 1104.43 l 1,0,0
 178.78 896.46 l 1,0,0
 233.82 1180 l 1,0,0
 642.55 1409 l 1,0,0
 982.23 1409 l 1,0,0
 761.61 283.26 l 1,0,0
 1071.21 283.26 l 1,0,0
EndSplineSet
EndChar

StartChar: two
Encoding: 50 50 21
Width: 1139
GlyphClass: 2
Flags: HW
LayerCount: 2
Fore
SplineSet
1029.16 283.26 m 1,0,0
 975.11 0 l 1,0,0
 -45.4 0 l 1,0,0
 0.31 240.56 l 1,0,0
 5.21 250.06 5.21 250.06 6.41 266.28 c 0,0,0
 7.61 282.5 7.61 282.5 11.47 300.75 c 0,0,0
 49.78 354.11 49.78 354.11 91.095 401.97 c 0,0,0
 132.41 449.83 132.41 449.83 218.315 519.405 c 0,0,0
 304.22 588.98 304.22 588.98 472.46 709.16 c 0,0,0
 548.47 765.85 548.47 765.85 590.93 801.665 c 0,0,0
 633.39 837.48 633.39 837.48 646.99 848.4 c 0,0,0
 705.68 904.41 705.68 904.41 736.855 957.395 c 0,0,0
 768.03 1010.38 768.03 1010.38 768.03 1063 c 0,0,0
 768.03 1115.91 768.03 1115.91 742.27 1135.495 c 0,0,0
 716.51 1155.08 716.51 1155.08 652.26 1155.08 c 0,0,0
 578.33 1155.08 578.33 1155.08 542.42 1121.465 c 0,0,0
 506.51 1087.85 506.51 1087.85 486.21 1007.26 c 1,0,0
 155.89 1081 l 1,0,0
 208.22 1266.03 208.22 1266.03 338.9 1348.015 c 0,0,0
 469.58 1430 469.58 1430 678.29 1430 c 0,0,0
 830.35 1430 830.35 1430 929.03 1394.685 c 0,0,0
 1027.71 1359.37 1027.71 1359.37 1075.87 1284.045 c 0,0,0
 1124.03 1208.72 1124.03 1208.72 1124.03 1086.35 c 0,0,0
 1124.03 996.38 1124.03 996.38 1088.06 916.75 c 0,0,0
 1064.08 862.77 1064.08 862.77 1026.115 812.79 c 0,0,0
 988.15 762.81 988.15 762.81 917.855 702.49 c 0,0,0
 847.56 642.17 847.56 642.17 729.6 558.51 c 0,0,0
 607.65 470.52 607.65 470.52 537.19 407.88 c 0,0,0
 466.73 345.24 466.73 345.24 424.07 283.26 c 1,0,0
 1029.16 283.26 l 1,0,0
EndSplineSet
EndChar

StartChar: three
Encoding: 51 51 22
Width: 1139
GlyphClass: 2
Flags: HW
LayerCount: 2
Fore
SplineSet
514.23 851.78 m 2,0,0
 640.45 851.78 640.45 851.78 702.56 899.73 c 0,0,0
 764.67 947.68 764.67 947.68 764.67 1030.9 c 0,0,0
 764.67 1088.83 764.67 1088.83 740.91 1121.955 c 0,0,0
 717.15 1155.08 717.15 1155.08 651.22 1155.08 c 0,0,0
 575.64 1155.08 575.64 1155.08 534.395 1119.13 c 0,0,0
 493.15 1083.18 493.15 1083.18 472.51 1003.91 c 1,0,0
 145.88 1081.37 l 1,0,0
 192.19 1254.01 192.19 1254.01 318.175 1342.005 c 0,0,0
 444.16 1430 444.16 1430 662.89 1430 c 0,0,0
 876.61 1430 876.61 1430 994.63 1339.67 c 0,0,0
 1112.65 1249.34 1112.65 1249.34 1112.65 1086 c 0,0,0
 1112.65 927.99 1112.65 927.99 1015.315 833.995 c 0,0,0
 917.98 740 917.98 740 756.34 730.36 c 1,0,0
 755.34 726.36 l 1,0,0
 893.02 708.71 893.02 708.71 961.845 630.21 c 0,0,0
 1030.67 551.71 1030.67 551.71 1030.67 425.37 c 0,0,0
 1030.67 301.37 1030.67 301.37 962.32 198.36 c 0,0,0
 894.64 93.01 894.64 93.01 774.295 36.505 c 0,0,0
 653.95 -20 653.95 -20 500.95 -20 c 0,0,0
 357.25 -20 357.25 -20 253.24 8.97 c 0,0,0
 -1.2 83.27 -1.2 83.27 -5.44 346.35 c 1,0,0
 355.62 377.65 l 1,0,0
 353.89 305.07 353.89 305.07 381.77 281.33 c 0,0,0
 409.65 257.59 409.65 257.59 512.61 257.59 c 0,0,0
 591.82 257.59 591.82 257.59 636.25 301.195 c 0,0,0
 680.68 344.8 680.68 344.8 680.68 424.04 c 0,0,0
 680.68 504.31 680.68 504.31 639.08 540.76 c 0,0,0
 597.48 577.21 597.48 577.21 500.21 577.21 c 2,0,0
 404.6 577.21 l 1,0,0
 457.98 851.78 l 1,0,0
 514.23 851.78 l 2,0,0
EndSplineSet
EndChar

StartChar: four
Encoding: 52 52 23
Width: 1139
GlyphClass: 2
Flags: HW
LayerCount: 2
Fore
SplineSet
892.76 263.89 m 1,0,0
 844.12 0 l 1,0,0
 517.16 0 l 1,0,0
 565.8 263.89 l 1,0,0
 -65.49 263.89 l 1,0,0
 -15.11 515.78 l 1,0,0
 633.55 1409 l 1,0,0
 1118.12 1409 l 1,0,0
 944.14 519.45 l 1,0,0
 1132.14 519.45 l 1,0,0
 1080.76 263.89 l 1,0,0
 892.76 263.89 l 1,0,0
782.58 1238.83 m 1,0,0
 762.93 1196.48 762.93 1196.48 733.095 1147.615 c 0,0,0
 703.26 1098.75 703.26 1098.75 664.24 1044.71 c 2,0,0
 280.44 519.45 l 1,0,0
 617.18 519.45 l 1,0,0
 717.84 1028.71 l 2,0,0
 727.51 1078.4 727.51 1078.4 744.03 1130.93 c 0,0,0
 760.55 1183.46 760.55 1183.46 782.58 1238.83 c 1,0,0
EndSplineSet
EndChar

StartChar: five
Encoding: 53 53 24
Width: 1139
GlyphClass: 2
Flags: HW
LayerCount: 2
Fore
SplineSet
1011.42 262.47 m 0,0,0
 939.41 126.07 939.41 126.07 796.86 53.035 c 0,0,0
 654.31 -20 654.31 -20 473.27 -20 c 0,0,0
 264.89 -20 264.89 -20 142.375 72.52 c 0,0,0
 19.86 165.04 19.86 165.04 2.58 342.4 c 1,0,0
 365.98 388.74 l 1,0,0
 375.27 309.81 375.27 309.81 401.665 284.37 c 0,0,0
 428.06 258.93 428.06 258.93 506.65 258.93 c 0,0,0
 604.18 258.93 604.18 258.93 663.285 324.04 c 0,0,0
 722.39 389.15 722.39 389.15 722.39 486 c 0,0,0
 722.39 579.61 722.39 579.61 685.955 628.23 c 0,0,0
 649.52 676.85 649.52 676.85 576.94 676.85 c 0,0,0
 480.74 676.85 480.74 676.85 428.54 592.55 c 1,0,0
 88.88 592.55 l 1,0,0
 297.91 1409 l 1,0,0
 1175.73 1409 l 1,0,0
 1123.35 1125.74 l 1,0,0
 558.16 1125.74 l 1,0,0
 489.25 867.45 l 1,0,0
 525.89 902.77 525.89 902.77 584.53 930.11 c 0,0,0
 643.17 957.45 643.17 957.45 729.51 957.45 c 0,0,0
 885.12 957.45 885.12 957.45 978.915 840.095 c 0,0,0
 1072.71 722.74 1072.71 722.74 1072.71 526.04 c 0,0,0
 1072.71 378.78 1072.71 378.78 1011.42 262.47 c 0,0,0
EndSplineSet
EndChar

StartChar: six
Encoding: 54 54 25
Width: 1139
GlyphClass: 2
Flags: HW
LayerCount: 2
Fore
SplineSet
532.33 -20 m 0,0,0
 384.29 -20 384.29 -20 283.945 39.33 c 0,0,0
 183.6 98.66 183.6 98.66 132.6 215.175 c 0,0,0
 81.6 331.69 81.6 331.69 81.6 502.41 c 0,0,0
 81.6 791.17 81.6 791.17 165.6 996.11 c 0,0,0
 248.6 1202.05 248.6 1202.05 401.115 1316.025 c 0,0,0
 553.63 1430 553.63 1430 734.28 1430 c 0,0,0
 934.38 1430 934.38 1430 1042.57 1338.46 c 0,0,0
 1150.76 1246.92 1150.76 1246.92 1157.37 1075.85 c 1,0,0
 824.37 1031.5 l 1,0,0
 817.74 1099.14 817.74 1099.14 794.14 1128.11 c 0,0,0
 770.54 1157.08 770.54 1157.08 714.59 1157.08 c 0,0,0
 632.42 1157.08 632.42 1157.08 567.52 1062.85 c 0,0,0
 502.62 968.62 502.62 968.62 472.33 759.4 c 1,0,0
 520.64 819.34 520.64 819.34 595.44 861.83 c 0,0,0
 670.24 904.32 670.24 904.32 766.54 904.32 c 0,0,0
 873.19 904.32 873.19 904.32 947.5 861.33 c 0,0,0
 1021.81 818.34 1021.81 818.34 1060.29 735.01 c 0,0,0
 1098.77 651.68 1098.77 651.68 1098.77 533 c 0,0,0
 1098.77 381 1098.77 381 1026.09 254.67 c 0,0,0
 954.08 127.34 954.08 127.34 824.89 53.67 c 0,0,0
 695.7 -20 695.7 -20 532.33 -20 c 0,0,0
423.27 434.36 m 0,0,0
 423.27 346.78 423.27 346.78 459.54 298.515 c 0,0,0
 495.81 250.25 495.81 250.25 571.4 250.25 c 0,0,0
 629.33 250.25 629.33 250.25 668.095 277.535 c 0,0,0
 706.86 304.82 706.86 304.82 726.315 357.245 c 0,0,0
 745.77 409.67 745.77 409.67 745.77 483.59 c 0,0,0
 745.77 568.53 745.77 568.53 706.31 610.145 c 0,0,0
 666.85 651.76 666.85 651.76 603.28 651.76 c 0,0,0
 552.03 651.76 552.03 651.76 510.77 623.12 c 0,0,0
 468.51 595.15 468.51 595.15 445.89 543.87 c 0,0,0
 423.27 492.59 423.27 492.59 423.27 434.36 c 0,0,0
EndSplineSet
EndChar

StartChar: seven
Encoding: 55 55 26
Width: 1139
GlyphClass: 2
Flags: HW
LayerCount: 2
Fore
SplineSet
496.79 0 m 1,0,0
 125.09 0 l 1,0,0
 170.14 235.6 170.14 235.6 263.43 426.955 c 0,0,0
 356.72 618.31 356.72 618.31 485.56 790.47 c 0,0,0
 535.91 845.73 535.91 845.73 590.255 900.665 c 0,0,0
 644.6 955.6 644.6 955.6 694.73 1002.665 c 0,0,0
 744.86 1049.73 744.86 1049.73 781.57 1082.385 c 0,0,0
 818.28 1115.04 818.28 1115.04 830.69 1125.74 c 1,0,0
 96.77 1125.74 l 1,0,0
 152.49 1409 l 1,0,0
 1230.39 1409 l 1,0,0
 1175.67 1134.41 l 1,0,0
 1182.24 1140.35 1182.24 1140.35 1165.86 1122.5 c 0,0,0
 1149.48 1104.65 1149.48 1104.65 1111.49 1059.67 c 0,0,0
 1073.5 1018.03 1073.5 1018.03 1038.84 979.56 c 0,0,0
 1004.18 941.09 1004.18 941.09 971.85 905.79 c 0,0,0
 922.82 847.11 922.82 847.11 879.795 792.94 c 0,0,0
 836.77 738.77 836.77 738.77 800.75 690.78 c 0,0,0
 669.26 502.95 669.26 502.95 602.205 343.03 c 0,0,0
 535.15 183.11 535.15 183.11 496.79 0 c 1,0,0
EndSplineSet
EndChar

StartChar: eight
Encoding: 56 56 27
Width: 1139
GlyphClass: 2
Flags: HW
LayerCount: 2
Fore
SplineSet
709.01 1429 m 0,0,0
 913.37 1429 913.37 1429 1027.7 1337.5 c 0,0,0
 1142.03 1246 1142.03 1246 1142.03 1091 c 0,0,0
 1142.03 951 1142.03 951 1057.2 859.68 c 0,0,0
 972.37 768.36 972.37 768.36 828.71 749.7 c 1,0,0
 827.71 745.7 l 1,0,0
 939.38 712.7 939.38 712.7 999.55 629.02 c 0,0,0
 1059.72 545.34 1059.72 545.34 1059.72 432 c 0,0,0
 1059.72 224 1059.72 224 906.865 102 c 0,0,0
 754.01 -20 754.01 -20 488.31 -20 c 0,0,0
 260.28 -20 260.28 -20 134.595 80.165 c 0,0,0
 8.91 180.33 8.91 180.33 8.91 360 c 0,0,0
 8.91 504.99 8.91 504.99 105.755 599.305 c 0,0,0
 202.6 693.62 202.6 693.62 369.25 724.27 c 1,0,0
 369.25 728.27 l 1,0,0
 276.58 771.28 276.58 771.28 230.755 855.13 c 0,0,0
 184.93 938.98 184.93 938.98 184.93 1052 c 0,0,0
 184.93 1229 184.93 1229 326.62 1329 c 0,0,0
 468.31 1429 468.31 1429 709.01 1429 c 0,0,0
641.3 859.43 m 0,0,0
 708.5 859.43 708.5 859.43 749.6 910.89 c 0,0,0
 790.7 962.35 790.7 962.35 790.7 1048.59 c 0,0,0
 790.7 1123.21 790.7 1123.21 762.775 1156.835 c 0,0,0
 734.85 1190.46 734.85 1190.46 676.32 1190.46 c 0,0,0
 606.78 1190.46 606.78 1190.46 566.85 1142.665 c 0,0,0
 526.92 1094.87 526.92 1094.87 526.92 1011.29 c 0,0,0
 526.92 935.01 526.92 935.01 556.175 897.22 c 0,0,0
 585.43 859.43 585.43 859.43 641.3 859.43 c 0,0,0
557.65 618.56 m 0,0,0
 468.45 618.56 468.45 618.56 418.855 555.6 c 0,0,0
 369.26 492.64 369.26 492.64 369.26 391.07 c 0,0,0
 369.26 307.46 369.26 307.46 409.025 263.165 c 0,0,0
 448.79 218.87 448.79 218.87 520.67 218.87 c 0,0,0
 601.87 218.87 601.87 218.87 650.785 281.49 c 0,0,0
 699.7 344.11 699.7 344.11 699.7 449.36 c 0,0,0
 699.7 533.64 699.7 533.64 662.445 576.1 c 0,0,0
 625.19 618.56 625.19 618.56 557.65 618.56 c 0,0,0
EndSplineSet
EndChar

StartChar: nine
Encoding: 57 57 28
Width: 1139
GlyphClass: 2
Flags: HW
LayerCount: 2
Fore
SplineSet
762.73 632.23 m 1,0,0
 699.07 571.31 699.07 571.31 632.105 544.525 c 0,0,0
 565.14 517.74 565.14 517.74 460.47 517.74 c 0,0,0
 368.19 517.74 368.19 517.74 292.55 561.39 c 0,0,0
 220.92 605.71 220.92 605.71 178.6 692.7 c 0,0,0
 136.28 779.69 136.28 779.69 136.28 901.04 c 0,0,0
 136.28 1048.03 136.28 1048.03 210.63 1171.69 c 0,0,0
 284.98 1296.02 284.98 1296.02 414.5 1363.01 c 0,0,0
 544.02 1430 544.02 1430 698.7 1430 c 0,0,0
 834.71 1430 834.71 1430 936.395 1371.665 c 0,0,0
 1038.08 1313.33 1038.08 1313.33 1095.095 1206.495 c 0,0,0
 1152.11 1099.66 1152.11 1099.66 1152.11 957 c 0,0,0
 1152.11 835.63 1152.11 835.63 1126.76 699.58 c 0,0,0
 1101.41 563.53 1101.41 563.53 1053.71 435.315 c 0,0,0
 1006.01 307.1 1006.01 307.1 937.29 208.07 c 0,0,0
 886.65 142.19 886.65 142.19 821.01 91.58 c 0,0,0
 754.37 38.97 754.37 38.97 674.73 9.485 c 0,0,0
 595.09 -20 595.09 -20 496.42 -20 c 0,0,0
 295.66 -20 295.66 -20 174.275 77.39 c 0,0,0
 52.89 174.78 52.89 174.78 33.26 347.18 c 1,0,0
 384.98 397.19 l 1,0,0
 392.28 322.21 392.28 322.21 427.065 287.9 c 0,0,0
 461.85 253.59 461.85 253.59 522.79 253.59 c 0,0,0
 610.65 253.59 610.65 253.59 669.545 344.65 c 0,0,0
 728.44 435.71 728.44 435.71 762.73 632.23 c 1,0,0
808.1 1003.64 m 0,0,0
 808.1 1067.86 808.1 1067.86 770.83 1114.14 c 0,0,0
 733.56 1160.42 733.56 1160.42 678 1160.42 c 0,0,0
 586.78 1160.42 586.78 1160.42 538.2 1092.5 c 0,0,0
 489.62 1024.58 489.62 1024.58 489.62 914.07 c 0,0,0
 489.62 853.86 489.62 853.86 527.57 811.075 c 0,0,0
 565.52 768.29 565.52 768.29 631.77 768.29 c 0,0,0
 710.07 768.29 710.07 768.29 755.33 810.94 c 0,0,0
 808.1 873.19 808.1 873.19 808.1 1003.64 c 0,0,0
EndSplineSet
EndChar

StartChar: colon
Encoding: 58 58 29
Width: 757
GlyphClass: 2
Flags: HW
LayerCount: 2
Fore
SplineSet
638.97 1001.84 m 1,0,0
 574.59 669.59 l 1,0,0
 224.28 669.59 l 1,0,0
 288.66 1001.84 l 1,0,0
 638.97 1001.84 l 1,0,0
509.05 330.58 m 1,0,0
 444.67 0 l 1,0,0
 94.36 0 l 1,0,0
 158.74 330.58 l 1,0,0
 509.05 330.58 l 1,0,0
EndSplineSet
EndChar

StartChar: semicolon
Encoding: 59 59 30
Width: 757
GlyphClass: 2
Flags: HW
LayerCount: 2
Fore
SplineSet
630.26 1001.84 m 1,0,0
 565.21 669.59 l 1,0,0
 214.9 669.59 l 1,0,0
 279.95 1001.84 l 1,0,0
 630.26 1001.84 l 1,0,0
450.3 76.05 m 2,0,0
 423.95 -60.7 423.95 -60.7 375.085 -162.42 c 0,0,0
 326.22 -264.14 326.22 -264.14 237.82 -353.85 c 1,0,0
 12.95 -353.85 l 1,0,0
 103.01 -269.15 103.01 -269.15 164.895 -174.76 c 0,0,0
 226.78 -80.37 226.78 -80.37 241.45 0 c 1,0,0
 84.98 0 l 1,0,0
 150.03 330.58 l 1,0,0
 500.34 330.58 l 1,0,0
 450.3 76.05 l 2,0,0
EndSplineSet
EndChar

StartChar: less
Encoding: 60 60 31
Width: 1196
GlyphClass: 2
Flags: HW
LayerCount: 2
Fore
SplineSet
1167.75 382.15 m 1,0,0
 1167.75 105.57 l 1,0,0
 119.31 479.15 l 1,0,0
 119.31 879.54 l 1,0,0
 1167.75 1252.45 l 1,0,0
 1167.75 974.87 l 1,0,0
 351.5 677.34 l 1,0,0
 1167.75 382.15 l 1,0,0
EndSplineSet
EndChar

StartChar: equal
Encoding: 61 61 32
Width: 1196
GlyphClass: 2
Flags: HW
LayerCount: 2
Fore
SplineSet
1166.75 1105.87 m 1,0,0
 1166.75 832.62 l 1,0,0
 118.31 832.62 l 1,0,0
 118.31 1105.87 l 1,0,0
 1166.75 1105.87 l 1,0,0
1166.75 525.4 m 1,0,0
 1166.75 255.49 l 1,0,0
 118.31 255.49 l 1,0,0
 118.31 525.4 l 1,0,0
 1166.75 525.4 l 1,0,0
EndSplineSet
EndChar

StartChar: greater
Encoding: 62 62 33
Width: 1196
GlyphClass: 2
Flags: HW
LayerCount: 2
Fore
SplineSet
1167.75 479.15 m 1,0,0
 119.31 105.57 l 1,0,0
 119.31 382.15 l 1,0,0
 933.89 677.34 l 1,0,0
 119.31 974.87 l 1,0,0
 119.31 1252.45 l 1,0,0
 1167.75 879.54 l 1,0,0
 1167.75 479.15 l 1,0,0
EndSplineSet
EndChar

StartChar: question
Encoding: 63 63 34
Width: 1326
GlyphClass: 2
Flags: HW
LayerCount: 2
Fore
SplineSet
774.48 1430 m 0,0,0
 924.85 1430 924.85 1430 1033.54 1389.51 c 0,0,0
 1142.23 1349.02 1142.23 1349.02 1201.075 1271.025 c 0,0,0
 1259.92 1193.03 1259.92 1193.03 1259.92 1076.34 c 0,0,0
 1259.92 1066.18 1259.92 1066.18 1265.325 1044.44 c 0,0,0
 1270.73 1022.7 1270.73 1022.7 1271.16 997.75 c 0,0,0
 1250.85 942.04 1250.85 942.04 1214.855 890.325 c 0,0,0
 1178.86 838.61 1178.86 838.61 1099.95 779.205 c 0,0,0
 1021.04 719.8 1021.04 719.8 872.49 639.02 c 0,0,0
 849.57 620.72 849.57 620.72 833.455 608.925 c 0,0,0
 817.34 597.13 817.34 597.13 812.72 593.85 c 0,0,0
 784.72 568.86 784.72 568.86 765.21 537.19 c 0,0,0
 745.7 505.52 745.7 505.52 740.37 458.83 c 1,0,0
 411.73 458.83 l 1,0,0
 425.73 533.82 425.73 533.82 454.72 590.48 c 0,0,0
 473.71 627.14 473.71 627.14 499.37 659.64 c 0,0,0
 525.03 692.14 525.03 692.14 568.18 727.47 c 0,0,0
 611.33 762.8 611.33 762.8 681.96 809.46 c 0,0,0
 761.68 861.17 761.68 861.17 812.205 899.195 c 0,0,0
 862.73 937.22 862.73 937.22 892.41 974.92 c 0,0,0
 906.68 997.55 906.68 997.55 909.64 1015.82 c 0,0,0
 912.6 1034.09 912.6 1034.09 912.6 1057.01 c 0,0,0
 912.6 1096.56 912.6 1096.56 881.35 1125.665 c 0,0,0
 850.1 1154.77 850.1 1154.77 759.15 1154.77 c 0,0,0
 664.24 1154.77 664.24 1154.77 608.31 1121.51 c 0,0,0
 552.38 1088.25 552.38 1088.25 534.42 1008 c 1,0,0
 200.75 1048 l 1,0,0
 257.07 1236.32 257.07 1236.32 399.415 1333.16 c 0,0,0
 541.76 1430 541.76 1430 774.48 1430 c 0,0,0
728.39 316.23 m 1,0,0
 667.68 0 l 1,0,0
 315.7 0 l 1,0,0
 376.41 316.23 l 1,0,0
 728.39 316.23 l 1,0,0
EndSplineSet
EndChar

StartChar: at
Encoding: 64 64 35
Width: 1942
GlyphClass: 2
Flags: HW
LayerCount: 2
Fore
SplineSet
1894.92 755 m 0,0,0
 1894.92 575.68 1894.92 575.68 1827.9 425.68 c 0,0,0
 1759.88 276.35 1759.88 276.35 1641.515 190.175 c 0,0,0
 1523.15 104 1523.15 104 1391.14 104 c 0,0,0
 1305.17 104 1305.17 104 1258.015 149.5 c 0,0,0
 1210.86 195 1210.86 195 1210.86 273.32 c 0,0,0
 1210.19 293.66 1210.19 293.66 1212.36 309.155 c 0,0,0
 1214.53 324.65 1214.53 324.65 1218.87 338.31 c 1,0,0
 1212.87 338.31 l 1,0,0
 1173.59 245.37 1173.59 245.37 1074.42 174.685 c 0,0,0
 975.25 104 975.25 104 878.95 104 c 0,0,0
 721.95 104 721.95 104 635.45 205.165 c 0,0,0
 548.95 306.33 548.95 306.33 548.95 489 c 0,0,0
 548.95 650.33 548.95 650.33 613.95 795.67 c 0,0,0
 678.95 940.01 678.95 940.01 791.945 1020.505 c 0,0,0
 904.94 1101 904.94 1101 1047.61 1101 c 0,0,0
 1227.2 1101 1227.2 1101 1286.82 932.36 c 1,0,0
 1292.82 932.36 l 1,0,0
 1331.82 1079 l 1,0,0
 1487.82 1079 l 1,0,0
 1370.15 573 l 2,0,0
 1333.15 396.97 1333.15 396.97 1333.15 341.71 c 0,0,0
 1333.15 289.7 1333.15 289.7 1358.66 270.375 c 0,0,0
 1384.17 251.05 1384.17 251.05 1409.14 251.05 c 0,0,0
 1488.47 251.05 1488.47 251.05 1565.49 321.72 c 0,0,0
 1641.84 390.72 1641.84 390.72 1687.02 504.205 c 0,0,0
 1732.2 617.69 1732.2 617.69 1732.2 753 c 0,0,0
 1732.2 927.66 1732.2 927.66 1656.87 1057.64 c 0,0,0
 1581.54 1188.96 1581.54 1188.96 1437.375 1260.955 c 0,0,0
 1293.21 1332.95 1293.21 1332.95 1104.22 1332.95 c 0,0,0
 864.89 1332.95 864.89 1332.95 684.57 1229.29 c 0,0,0
 503.58 1125.63 503.58 1125.63 400.085 929.975 c 0,0,0
 296.59 734.32 296.59 734.32 296.59 491 c 0,0,0
 296.59 297 296.59 297 377.26 147.66 c 0,0,0
 458.6 -0.34 458.6 -0.34 598.75 -73.495 c 0,0,0
 738.9 -146.65 738.9 -146.65 930.22 -146.65 c 0,0,0
 1209.15 -146.65 1209.15 -146.65 1509.84 3.66 c 1,0,0
 1576.53 -125.04 l 1,0,0
 1393.12 -225.4 1393.12 -225.4 1238.65 -263.385 c 0,0,0
 1084.18 -301.37 1084.18 -301.37 918.53 -301.37 c 0,0,0
 685.21 -301.37 685.21 -301.37 506.21 -204.7 c 0,0,0
 326.21 -109.7 326.21 -109.7 223.365 73.145 c 0,0,0
 120.52 255.99 120.52 255.99 120.52 491 c 0,0,0
 120.52 776.68 120.52 776.68 248.86 1005.01 c 0,0,0
 375.53 1234.01 375.53 1234.01 600.205 1359.005 c 0,0,0
 824.88 1484 824.88 1484 1102.22 1484 c 0,0,0
 1346.56 1484 1346.56 1484 1526.57 1394 c 0,0,0
 1706.58 1303 1706.58 1303 1800.75 1138 c 0,0,0
 1894.92 973 1894.92 973 1894.92 755 c 0,0,0
1220.45 753.68 m 0,0,0
 1220.45 843.99 1220.45 843.99 1165.305 902.315 c 0,0,0
 1110.16 960.64 1110.16 960.64 1026.88 960.64 c 0,0,0
 937.57 960.64 937.57 960.64 866.25 899.31 c 0,0,0
 793.93 836.98 793.93 836.98 754.775 722.145 c 0,0,0
 715.62 607.31 715.62 607.31 715.62 491 c 0,0,0
 715.62 381.02 715.62 381.02 764.79 316.36 c 0,0,0
 813.96 251.7 813.96 251.7 914.63 251.7 c 0,0,0
 971.25 251.7 971.25 251.7 1026.715 293.195 c 0,0,0
 1082.18 334.69 1082.18 334.69 1127.16 414.36 c 0,0,0
 1157.48 468.03 1157.48 468.03 1177.97 534.205 c 0,0,0
 1198.46 600.38 1198.46 600.38 1209.455 659.71 c 0,0,0
 1220.45 719.04 1220.45 719.04 1220.45 753.68 c 0,0,0
EndSplineSet
EndChar

StartChar: A
Encoding: 65 65 36
Width: 1554
GlyphClass: 2
Flags: HW
LayerCount: 2
Fore
SplineSet
514 325.16 m 1,0,0
 349.15 0 l 1,0,0
 -2.47 0 l 1,0,0
 743.66 1409 l 1,0,0
 1179.43 1409 l 1,0,0
 1381.25 0 l 1,0,0
 1024.26 0 l 1,0,0
 982.66 325.16 l 1,0,0
 514 325.16 l 1,0,0
906.82 1143.09 m 1,0,0
 894.81 1098.36 894.81 1098.36 859.09 1021.24 c 0,0,0
 823.37 944.12 823.37 944.12 767.95 835.28 c 2,0,0
 656.45 596.07 l 1,0,0
 963.01 596.07 l 1,0,0
 919.46 980.4 l 2,0,0
 909.12 1068.5 909.12 1068.5 905.625 1109.005 c 0,0,0
 902.13 1149.51 902.13 1149.51 906.82 1143.09 c 1,0,0
EndSplineSet
EndChar

StartChar: B
Encoding: 66 66 37
Width: 1554
GlyphClass: 2
Flags: HW
LayerCount: 2
Fore
SplineSet
1449.07 425.64 m 0,0,0
 1449.07 215.98 1449.07 215.98 1292.235 107.99 c 0,0,0
 1135.4 0 1135.4 0 796.61 0 c 2,0,0
 17.91 0 l 1,0,0
 292.58 1409 l 1,0,0
 926.16 1409 l 2,0,0
 1205.3 1409 1205.3 1409 1339.995 1329.18 c 0,0,0
 1474.69 1249.36 1474.69 1249.36 1474.69 1080.32 c 0,0,0
 1474.69 807.01 1474.69 807.01 1160.74 734.65 c 1,0,0
 1295.4 711.65 1295.4 711.65 1372.235 628.48 c 0,0,0
 1449.07 545.31 1449.07 545.31 1449.07 425.64 c 0,0,0
549.61 861.77 m 1,0,0
 818.82 861.77 l 2,0,0
 991.81 861.77 991.81 861.77 1055.26 895.375 c 0,0,0
 1118.71 928.98 1118.71 928.98 1118.71 1017.9 c 0,0,0
 1118.71 1088.52 1118.71 1088.52 1068.41 1117.15 c 0,0,0
 1018.11 1145.78 1018.11 1145.78 884.11 1145.78 c 2,0,0
 603.21 1145.78 l 1,0,0
 549.61 861.77 l 1,0,0
433.3 263.22 m 1,0,0
 734.5 263.22 l 2,0,0
 942.83 263.22 942.83 263.22 1012.775 298.31 c 0,0,0
 1082.72 333.4 1082.72 333.4 1082.72 433.65 c 0,0,0
 1082.72 512.26 1082.72 512.26 1022.425 554.9 c 0,0,0
 962.13 597.54 962.13 597.54 804.78 597.54 c 2,0,0
 498.9 597.54 l 1,0,0
 433.3 263.22 l 1,0,0
EndSplineSet
EndChar

StartChar: C
Encoding: 67 67 38
Width: 1479
GlyphClass: 2
Flags: HW
LayerCount: 2
Fore
SplineSet
1104.78 497.81 m 1,0,0
 1388.06 362.05 l 1,0,0
 1297.13 177.39 1297.13 177.39 1126.275 78.695 c 0,0,0
 955.42 -20 955.42 -20 718.37 -20 c 0,0,0
 520.67 -20 520.67 -20 379.32 51.33 c 0,0,0
 236.3 123.33 236.3 123.33 163.795 256.495 c 0,0,0
 91.29 389.66 91.29 389.66 91.29 569 c 0,0,0
 91.29 825.02 91.29 825.02 196.29 1024.02 c 0,0,0
 301.29 1221.35 301.29 1221.35 491.13 1325.675 c 0,0,0
 680.97 1430 680.97 1430 927.67 1430 c 0,0,0
 1166.38 1430 1166.38 1430 1312.54 1326.14 c 0,0,0
 1458.7 1222.28 1458.7 1222.28 1511.71 1006.51 c 1,0,0
 1174.73 924.79 l 1,0,0
 1150.42 1028.44 1150.42 1028.44 1082.825 1087.76 c 0,0,0
 1015.23 1147.08 1015.23 1147.08 919.34 1147.08 c 0,0,0
 689.25 1147.08 689.25 1147.08 560.27 987.27 c 0,0,0
 515.46 910.96 515.46 910.96 491.395 809.245 c 0,0,0
 467.33 707.53 467.33 707.53 467.33 577.69 c 0,0,0
 467.33 422.78 467.33 422.78 537.085 342.35 c 0,0,0
 606.84 261.92 606.84 261.92 743.06 261.92 c 0,0,0
 866.01 261.92 866.01 261.92 954.765 320.39 c 0,0,0
 1043.52 378.86 1043.52 378.86 1104.78 497.81 c 1,0,0
EndSplineSet
EndChar

StartChar: D
Encoding: 68 68 39
Width: 1479
GlyphClass: 2
Flags: HW
LayerCount: 2
Fore
SplineSet
727.3 1409 m 2,0,0
 958.68 1409 958.68 1409 1114.525 1342.85 c 0,0,0
 1270.37 1276.7 1270.37 1276.7 1348.365 1145.38 c 0,0,0
 1426.36 1014.06 1426.36 1014.06 1426.36 817.72 c 0,0,0
 1426.36 584.06 1426.36 584.06 1330.04 398.04 c 0,0,0
 1233.72 214.36 1233.72 214.36 1049.405 107.18 c 0,0,0
 865.09 0 865.09 0 640.13 0 c 2,0,0
 17.91 0 l 1,0,0
 292.58 1409 l 1,0,0
 727.3 1409 l 2,0,0
436.64 278.25 m 1,0,0
 630.46 278.25 l 2,0,0
 766.34 278.25 766.34 278.25 874.26 341.22 c 0,0,0
 979.84 403.19 979.84 403.19 1037.63 521.135 c 0,0,0
 1095.42 639.08 1095.42 639.08 1095.42 794.67 c 0,0,0
 1095.42 963.57 1095.42 963.57 1003.655 1047.16 c 0,0,0
 911.89 1130.75 911.89 1130.75 733.32 1130.75 c 2,0,0
 601.54 1130.75 l 1,0,0
 436.64 278.25 l 1,0,0
EndSplineSet
EndChar

StartChar: E
Encoding: 69 69 40
Width: 1366
GlyphClass: 2
Flags: HW
LayerCount: 2
Fore
SplineSet
1259.82 276.24 m 1,0,0
 1204.77 0 l 1,0,0
 17.91 0 l 1,0,0
 290.91 1409 l 1,0,0
 1438.44 1409 l 1,0,0
 1385.06 1132.76 l 1,0,0
 602.21 1132.76 l 1,0,0
 545.94 844.42 l 1,0,0
 1267.12 844.42 l 1,0,0
 1213.74 566.84 l 1,0,0
 492.56 566.84 l 1,0,0
 435.97 276.24 l 1,0,0
 1259.82 276.24 l 1,0,0
EndSplineSet
EndChar

StartChar: F
Encoding: 70 70 41
Width: 1251
GlyphClass: 2
Flags: HW
LayerCount: 2
Fore
SplineSet
475.89 480.82 m 1,0,0
 380.92 0 l 1,0,0
 17.91 0 l 1,0,0
 290.91 1409 l 1,0,0
 1260.16 1409 l 1,0,0
 1206.78 1132.76 l 1,0,0
 602.21 1132.76 l 1,0,0
 528.6 755.72 l 1,0,0
 1110.84 755.72 l 1,0,0
 1058.13 480.82 l 1,0,0
 475.89 480.82 l 1,0,0
EndSplineSet
EndChar

StartChar: G
Encoding: 71 71 42
Width: 1593
GlyphClass: 2
Flags: HW
LayerCount: 2
Fore
SplineSet
738.66 -18.33 m 0,0,0
 442.01 -18.33 442.01 -18.33 270.67 141.845 c 0,0,0
 99.33 302.02 99.33 302.02 99.33 589.7 c 0,0,0
 99.33 841.37 99.33 841.37 204.33 1032.36 c 0,0,0
 307.66 1224.35 307.66 1224.35 498.49 1327.175 c 0,0,0
 689.32 1430 689.32 1430 940.66 1430 c 0,0,0
 1172.68 1430 1172.68 1430 1333.885 1314.27 c 0,0,0
 1495.09 1198.54 1495.09 1198.54 1546.75 999.47 c 1,0,0
 1205.12 905.39 l 1,0,0
 1181.48 1017.05 1181.48 1017.05 1107.86 1082.065 c 0,0,0
 1034.24 1147.08 1034.24 1147.08 921.98 1147.08 c 0,0,0
 784.42 1147.08 784.42 1147.08 681.17 1079.45 c 0,0,0
 577.92 1011.82 577.92 1011.82 522.63 887.555 c 0,0,0
 467.34 763.29 467.34 763.29 467.34 602.05 c 0,0,0
 467.34 446.16 467.34 446.16 547.765 354.04 c 0,0,0
 628.19 261.92 628.19 261.92 774.72 261.92 c 0,0,0
 862.62 261.92 862.62 261.92 948.54 278.875 c 0,0,0
 1034.46 295.83 1034.46 295.83 1092.39 317.72 c 1,0,0
 1135.04 528.3 l 1,0,0
 845.97 528.3 l 1,0,0
 889.66 768.46 l 1,0,0
 1515.05 768.46 l 1,0,0
 1406.7 151.55 l 1,0,0
 1239.98 53.26 1239.98 53.26 1085.655 17.465 c 0,0,0
 931.33 -18.33 931.33 -18.33 738.66 -18.33 c 0,0,0
EndSplineSet
EndChar

StartChar: H
Encoding: 72 72 43
Width: 1479
GlyphClass: 2
Flags: HW
LayerCount: 2
Fore
SplineSet
492.89 571.17 m 1,0,0
 380.92 0 l 1,0,0
 17.91 0 l 1,0,0
 290.24 1409 l 1,0,0
 654.92 1409 l 1,0,0
 550.61 871.45 l 1,0,0
 1082.14 871.45 l 1,0,0
 1186.45 1409 l 1,0,0
 1536.11 1409 l 1,0,0
 1262.11 0 l 1,0,0
 912.45 0 l 1,0,0
 1024.42 571.17 l 1,0,0
 492.89 571.17 l 1,0,0
EndSplineSet
EndChar

StartChar: I
Encoding: 73 73 44
Width: 569
GlyphClass: 2
Flags: HW
LayerCount: 2
Fore
SplineSet
642.86 1409 m 1,0,0
 368.86 0 l 1,0,0
 5.85 0 l 1,0,0
 278.18 1409 l 1,0,0
 642.86 1409 l 1,0,0
EndSplineSet
EndChar

StartChar: J
Encoding: 74 74 45
Width: 1216
GlyphClass: 2
Flags: HW
LayerCount: 2
Fore
SplineSet
546.33 -20 m 0,0,0
 335.56 -20 335.56 -20 213.35 78.01 c 0,0,0
 91.14 176.02 91.14 176.02 45.1 403.12 c 1,0,0
 378.43 477.87 l 1,0,0
 401.43 367.55 401.43 367.55 450.75 314.735 c 0,0,0
 500.07 261.92 500.07 261.92 566.67 261.92 c 0,0,0
 613.3 261.92 613.3 261.92 642.93 284.58 c 0,0,0
 667.2 303.89 667.2 303.89 682.155 331.475 c 0,0,0
 697.11 359.06 697.11 359.06 713.1 440 c 2,0,0
 900.1 1409 l 1,0,0
 1263.78 1409 l 1,0,0
 1070.78 423 l 2,0,0
 1024.44 187.31 1024.44 187.31 900.42 83.655 c 0,0,0
 776.4 -20 776.4 -20 546.33 -20 c 0,0,0
EndSplineSet
EndChar

StartChar: K
Encoding: 75 75 46
Width: 1554
GlyphClass: 2
Flags: HW
LayerCount: 2
Fore
SplineSet
475.23 498.24 m 1,0,0
 377.58 0 l 1,0,0
 17.91 0 l 1,0,0
 290.91 1409 l 1,0,0
 655.59 1409 l 1,0,0
 529.61 804.84 l 1,0,0
 701.34 942.19 l 1,0,0
 1259.46 1409 l 1,0,0
 1711.54 1409 l 1,0,0
 966.55 802.38 l 1,0,0
 1369.91 0 l 1,0,0
 976.91 0 l 1,0,0
 700.3 617.22 l 1,0,0
 475.23 498.24 l 1,0,0
EndSplineSet
EndChar

StartChar: L
Encoding: 76 76 47
Width: 1326
GlyphClass: 2
Flags: HW
LayerCount: 2
Fore
SplineSet
1221.45 276.24 m 1,0,0
 1166.4 0 l 1,0,0
 17.91 0 l 1,0,0
 290.91 1409 l 1,0,0
 655.59 1409 l 1,0,0
 435.97 276.24 l 1,0,0
 1221.45 276.24 l 1,0,0
EndSplineSet
EndChar

StartChar: M
Encoding: 77 77 48
Width: 1706
GlyphClass: 2
Flags: HW
LayerCount: 2
Fore
SplineSet
494.79 783.82 m 2,0,0
 341.55 0 l 1,0,0
 17.91 0 l 1,0,0
 292.58 1409 l 1,0,0
 794.11 1409 l 1,0,0
 814.44 747.63 l 2,0,0
 821.78 645.13 821.78 645.13 827.275 564.405 c 0,0,0
 832.77 483.68 832.77 483.68 834.75 424.06 c 1,0,0
 847.39 455.35 847.39 455.35 857.525 480.46 c 0,0,0
 867.66 505.57 867.66 505.57 876.96 523.5 c 2,0,0
 1281.33 1409 l 1,0,0
 1766.12 1409 l 1,0,0
 1491.45 0 l 1,0,0
 1169.15 0 l 1,0,0
 1335.79 854.52 l 2,0,0
 1345.44 901.43 1345.44 901.43 1365.28 985.615 c 0,0,0
 1385.12 1069.8 1385.12 1069.8 1415.82 1191.26 c 1,0,0
 1334.05 1011.36 1334.05 1011.36 1291.685 916.775 c 0,0,0
 1249.32 822.19 1249.32 822.19 1232.33 782.86 c 0,0,0
 1215.34 743.53 1215.34 743.53 1207.36 727.56 c 2,0,0
 886.48 0 l 1,0,0
 618.86 0 l 1,0,0
 585.83 732.57 l 2,0,0
 561.12 967.01 561.12 967.01 552.29 1080.93 c 0,0,0
 543.46 1194.85 543.46 1194.85 546.5 1191.26 c 1,0,0
 525.8 1007.62 525.8 1007.62 513.29 906.01 c 0,0,0
 500.78 804.4 500.78 804.4 494.79 783.82 c 2,0,0
EndSplineSet
EndChar

StartChar: N
Encoding: 78 78 49
Width: 1479
GlyphClass: 2
Flags: HW
LayerCount: 2
Fore
SplineSet
510.86 857.83 m 2,0,0
 341.55 0 l 1,0,0
 17.91 0 l 1,0,0
 292.58 1409 l 1,0,0
 735.04 1409 l 1,0,0
 1006.85 317.58 l 1,0,0
 1023.19 425.94 1023.19 425.94 1030.015 467.715 c 0,0,0
 1036.84 509.49 1036.84 509.49 1045.17 554.82 c 2,0,0
 1214.48 1409 l 1,0,0
 1536.78 1409 l 1,0,0
 1262.11 0 l 1,0,0
 814.99 0 l 1,0,0
 546.18 1078.07 l 1,0,0
 535.18 999.75 535.18 999.75 526.35 944.44 c 0,0,0
 517.52 889.13 517.52 889.13 510.86 857.83 c 2,0,0
EndSplineSet
EndChar

StartChar: O
Encoding: 79 79 50
Width: 1593
GlyphClass: 2
Flags: HW
LayerCount: 2
Fore
SplineSet
921.3 1430 m 0,0,0
 1124.67 1430 1124.67 1430 1270.36 1359.835 c 0,0,0
 1416.05 1289.67 1416.05 1289.67 1495.23 1160.505 c 0,0,0
 1574.41 1031.34 1574.41 1031.34 1574.41 851 c 0,0,0
 1577.09 616.73 1577.09 616.73 1474.1 409.71 c 0,0,0
 1368.77 200.35 1368.77 200.35 1177.76 90.175 c 0,0,0
 986.75 -20 986.75 -20 739.06 -20 c 0,0,0
 553.09 -20 553.09 -20 407.41 45.97 c 0,0,0
 254.02 118.64 254.02 118.64 173.325 255.485 c 0,0,0
 92.63 392.33 92.63 392.33 92.63 573 c 0,0,0
 92.63 806.32 92.63 806.32 198.63 1011.33 c 0,0,0
 303.63 1216.34 303.63 1216.34 489.29 1323.17 c 0,0,0
 674.95 1430 674.95 1430 921.3 1430 c 0,0,0
903.95 1144.07 m 0,0,0
 766.74 1144.07 766.74 1144.07 670.16 1078.45 c 0,0,0
 605.55 1034.48 605.55 1034.48 559.92 959.365 c 0,0,0
 514.29 884.25 514.29 884.25 489.975 789.97 c 0,0,0
 465.66 695.69 465.66 695.69 465.66 593.06 c 0,0,0
 465.66 425.81 465.66 425.81 544.605 344.7 c 0,0,0
 623.55 263.59 623.55 263.59 756.41 263.59 c 0,0,0
 893.29 263.59 893.29 263.59 990.54 330.55 c 0,0,0
 1055.82 375.19 1055.82 375.19 1101.615 450.145 c 0,0,0
 1147.41 525.1 1147.41 525.1 1171.055 618.71 c 0,0,0
 1194.7 712.32 1194.7 712.32 1194.7 813.6 c 0,0,0
 1194.7 968.83 1194.7 968.83 1121.27 1056.45 c 0,0,0
 1047.84 1144.07 1047.84 1144.07 903.95 1144.07 c 0,0,0
EndSplineSet
EndChar

StartChar: P
Encoding: 80 80 51
Width: 1366
GlyphClass: 2
Flags: HW
LayerCount: 2
Fore
SplineSet
848.66 1409 m 2,0,0
 1104.71 1409 1104.71 1409 1242.215 1291.64 c 0,0,0
 1379.72 1174.28 1379.72 1174.28 1379.72 964.89 c 0,0,0
 1379.72 812.21 1379.72 812.21 1309.885 698.695 c 0,0,0
 1240.05 585.18 1240.05 585.18 1114.22 522.835 c 0,0,0
 988.39 460.49 988.39 460.49 819.07 460.49 c 2,0,0
 473.56 460.49 l 1,0,0
 380.92 0 l 1,0,0
 17.91 0 l 1,0,0
 290.91 1409 l 1,0,0
 848.66 1409 l 2,0,0
525.27 738.41 m 1,0,0
 748.61 738.41 l 2,0,0
 879.49 738.41 879.49 738.41 944.93 783.01 c 0,0,0
 1010.37 827.61 1010.37 827.61 1010.37 944.2 c 0,0,0
 1010.37 1034.81 1010.37 1034.81 956.42 1081.945 c 0,0,0
 902.47 1129.08 902.47 1129.08 805.25 1129.08 c 2,0,0
 601.54 1129.08 l 1,0,0
 525.27 738.41 l 1,0,0
EndSplineSet
EndChar

StartChar: Q
Encoding: 81 81 52
Width: 1593
GlyphClass: 2
Flags: HW
LayerCount: 2
Fore
SplineSet
928 1430 m 0,0,0
 1131.37 1430 1131.37 1430 1277.06 1359.835 c 0,0,0
 1422.75 1289.67 1422.75 1289.67 1501.93 1160.505 c 0,0,0
 1581.11 1031.34 1581.11 1031.34 1581.11 851 c 0,0,0
 1583.79 838.79 1583.79 838.79 1578.615 649.43 c 0,0,0
 1573.44 460.07 1573.44 460.07 1377.32 245.19 c 0,0,0
 1203.64 44.72 1203.64 44.72 922.2 -5.32 c 1,0,0
 942.54 -87.91 942.54 -87.91 985.025 -124.205 c 0,0,0
 1027.51 -160.5 1027.51 -160.5 1109.81 -160.5 c 0,0,0
 1197.53 -160.5 1197.53 -160.5 1277.9 -145.83 c 1,0,0
 1214.81 -381.7 l 1,0,0
 1146.49 -408.71 1146.49 -408.71 1045.81 -408.71 c 0,0,0
 817.99 -408.71 817.99 -408.71 694.405 -309.35 c 0,0,0
 570.82 -209.99 570.82 -209.99 547.82 -3.64 c 1,0,0
 435.85 22.06 435.85 22.06 352.215 76.915 c 0,0,0
 268.58 131.77 268.58 131.77 211.27 207.77 c 0,0,0
 99.33 356.76 99.33 356.76 99.33 573 c 0,0,0
 99.33 806.32 99.33 806.32 205.33 1011.33 c 0,0,0
 310.33 1216.34 310.33 1216.34 495.99 1323.17 c 0,0,0
 681.65 1430 681.65 1430 928 1430 c 0,0,0
910.65 1144.07 m 0,0,0
 773.44 1144.07 773.44 1144.07 676.86 1078.45 c 0,0,0
 612.25 1034.48 612.25 1034.48 566.62 959.365 c 0,0,0
 520.99 884.25 520.99 884.25 496.675 789.97 c 0,0,0
 472.36 695.69 472.36 695.69 472.36 593.06 c 0,0,0
 472.36 425.81 472.36 425.81 551.305 344.7 c 0,0,0
 630.25 263.59 630.25 263.59 763.11 263.59 c 0,0,0
 899.99 263.59 899.99 263.59 997.24 330.55 c 0,0,0
 1062.52 375.19 1062.52 375.19 1108.315 450.145 c 0,0,0
 1154.11 525.1 1154.11 525.1 1177.755 618.71 c 0,0,0
 1201.4 712.32 1201.4 712.32 1201.4 813.6 c 0,0,0
 1201.4 968.83 1201.4 968.83 1127.97 1056.45 c 0,0,0
 1054.54 1144.07 1054.54 1144.07 910.65 1144.07 c 0,0,0
EndSplineSet
EndChar

StartChar: R
Encoding: 82 82 53
Width: 1479
GlyphClass: 2
Flags: HW
LayerCount: 2
Fore
SplineSet
478.89 499.83 m 1,0,0
 382.59 0 l 1,0,0
 17.91 0 l 1,0,0
 292.58 1409 l 1,0,0
 969.71 1409 l 2,0,0
 1134.4 1409 1134.4 1409 1248.74 1363.35 c 0,0,0
 1372.46 1312.34 1372.46 1312.34 1435.145 1214.975 c 0,0,0
 1497.83 1117.61 1497.83 1117.61 1497.83 983.89 c 0,0,0
 1497.83 834.3 1497.83 834.3 1388.995 715.95 c 0,0,0
 1280.16 597.6 1280.16 597.6 1110.91 570.27 c 1,0,0
 1388.93 0 l 1,0,0
 982.53 0 l 1,0,0
 761.24 499.83 l 1,0,0
 478.89 499.83 l 1,0,0
882.05 782.76 m 2,0,0
 1002.93 782.76 1002.93 782.76 1065.705 829.87 c 0,0,0
 1128.48 876.98 1128.48 876.98 1128.48 965.55 c 0,0,0
 1128.48 1045.82 1128.48 1045.82 1072.35 1087.45 c 0,0,0
 1016.22 1129.08 1016.22 1129.08 923.33 1129.08 c 2,0,0
 601.54 1129.08 l 1,0,0
 533.94 782.76 l 1,0,0
 882.05 782.76 l 2,0,0
EndSplineSet
EndChar

StartChar: S
Encoding: 83 83 54
Width: 1366
GlyphClass: 2
Flags: HW
LayerCount: 2
Fore
SplineSet
589.28 -20 m 0,0,0
 310.22 -20 310.22 -20 168.545 78.52 c 0,0,0
 26.87 177.04 26.87 177.04 2.89 383.09 c 1,0,0
 366.93 440.13 l 1,0,0
 383.91 341.19 383.91 341.19 442.675 294.88 c 0,0,0
 501.44 248.57 501.44 248.57 613.3 248.57 c 0,0,0
 755.48 248.57 755.48 248.57 831.43 287.35 c 0,0,0
 907.38 326.13 907.38 326.13 907.38 402.68 c 0,0,0
 907.38 424.59 907.38 424.59 901.76 450.895 c 0,0,0
 896.14 477.2 896.14 477.2 892.94 493.5 c 0,0,0
 866.29 521.19 866.29 521.19 807.125 546.2 c 0,0,0
 747.96 571.21 747.96 571.21 656.95 591.87 c 0,0,0
 463.9 642.88 463.9 642.88 373.56 697.22 c 0,0,0
 283.55 752.23 283.55 752.23 234.205 833.42 c 0,0,0
 184.86 914.61 184.86 914.61 184.86 1034.32 c 0,0,0
 184.86 1149.64 184.86 1149.64 257.7 1239.145 c 0,0,0
 330.54 1328.65 330.54 1328.65 460.21 1379.325 c 0,0,0
 589.88 1430 589.88 1430 760.54 1430 c 0,0,0
 1010.6 1430 1010.6 1430 1161.97 1336.465 c 0,0,0
 1313.34 1242.93 1313.34 1242.93 1345.67 1063.53 c 1,0,0
 980.62 985.81 l 1,0,0
 965.99 1065.76 965.99 1065.76 900.53 1121.605 c 0,0,0
 835.07 1177.45 835.07 1177.45 734.49 1177.45 c 0,0,0
 653.37 1177.45 653.37 1177.45 597.78 1139.325 c 0,0,0
 542.19 1101.2 542.19 1101.2 542.19 1044.99 c 0,0,0
 542.19 1006.7 542.19 1006.7 568.19 976.715 c 0,0,0
 594.19 946.73 594.19 946.73 638.83 926.08 c 0,0,0
 661.15 913.75 661.15 913.75 704.955 900.095 c 0,0,0
 748.76 886.44 748.76 886.44 814.05 868.45 c 0,0,0
 1013.92 813.06 1013.92 813.06 1093.94 766.185 c 0,0,0
 1173.96 719.31 1173.96 719.31 1221.97 655.9 c 0,0,0
 1239.5 609.24 1239.5 609.24 1249.43 553.605 c 0,0,0
 1259.36 497.97 1259.36 497.97 1259.36 433.05 c 0,0,0
 1259.36 210.35 1259.36 210.35 1085.99 95.175 c 0,0,0
 912.62 -20 912.62 -20 589.28 -20 c 0,0,0
EndSplineSet
EndChar

StartChar: T
Encoding: 84 84 55
Width: 1251
GlyphClass: 2
Flags: HW
LayerCount: 2
Fore
SplineSet
919.79 1132.76 m 1,0,0
 699.17 0 l 1,0,0
 333.82 0 l 1,0,0
 554.44 1132.76 l 1,0,0
 118.87 1132.76 l 1,0,0
 172.25 1409 l 1,0,0
 1410.41 1409 l 1,0,0
 1357.03 1132.76 l 1,0,0
 919.79 1132.76 l 1,0,0
EndSplineSet
EndChar

StartChar: U
Encoding: 85 85 56
Width: 1479
GlyphClass: 2
Flags: HW
LayerCount: 2
Fore
SplineSet
684.06 -20 m 0,0,0
 399.29 -20 399.29 -20 247.755 95.49 c 0,0,0
 96.22 210.98 96.22 210.98 96.22 431 c 0,0,0
 96.22 475 96.22 475 103.72 536.5 c 0,0,0
 111.22 598 111.22 598 119.22 635 c 2,0,0
 265.88 1409 l 1,0,0
 630.56 1409 l 1,0,0
 483.59 621.11 l 2,0,0
 464.92 536.12 464.92 536.12 464.92 429.68 c 0,0,0
 464.92 348.79 464.92 348.79 528.205 305.355 c 0,0,0
 591.49 261.92 591.49 261.92 700.06 261.92 c 0,0,0
 846.97 261.92 846.97 261.92 912.37 320.835 c 0,0,0
 977.77 379.75 977.77 379.75 1009.09 541 c 2,0,0
 1177.09 1409 l 1,0,0
 1542.44 1409 l 1,0,0
 1370.77 530 l 2,0,0
 1315.1 243.64 1315.1 243.64 1152.11 111.82 c 0,0,0
 989.12 -20 989.12 -20 684.06 -20 c 0,0,0
EndSplineSet
EndChar

StartChar: V
Encoding: 86 86 57
Width: 1366
GlyphClass: 2
Flags: HW
LayerCount: 2
Fore
SplineSet
1498.28 1409 m 1,0,0
 777.2 0 l 1,0,0
 343.73 0 l 1,0,0
 166.98 1409 l 1,0,0
 546.35 1409 l 1,0,0
 604.07 562.29 l 2,0,0
 611.4 481.92 611.4 481.92 614.89 411.905 c 0,0,0
 618.38 341.89 618.38 341.89 617.36 284.9 c 1,0,0
 633.66 331.87 633.66 331.87 643.78 359.3 c 0,0,0
 653.9 386.73 653.9 386.73 655.17 396.96 c 2,0,0
 1123.28 1409 l 1,0,0
 1498.28 1409 l 1,0,0
EndSplineSet
EndChar

StartChar: W
Encoding: 87 87 58
Width: 1933
GlyphClass: 2
Flags: HW
LayerCount: 2
Fore
SplineSet
972.69 864.94 m 2,0,0
 628.84 0 l 1,0,0
 185.4 0 l 1,0,0
 131.91 1409 l 1,0,0
 467.52 1409 l 1,0,0
 474.71 647.6 l 2,0,0
 477.37 558.91 477.37 558.91 477.195 472.745 c 0,0,0
 477.02 386.58 477.02 386.58 475.68 301.6 c 1,0,0
 503.99 377.23 503.99 377.23 538.16 463.585 c 0,0,0
 572.33 549.94 572.33 549.94 610.02 648.69 c 2,0,0
 906.06 1409 l 1,0,0
 1311.17 1409 l 1,0,0
 1312.69 565.4 l 2,0,0
 1313.01 490.07 1313.01 490.07 1314.17 424.12 c 0,0,0
 1315.33 358.17 1315.33 358.17 1319.67 301.6 c 1,0,0
 1317.59 307.78 1317.59 307.78 1336.42 358.78 c 0,0,0
 1355.25 409.78 1355.25 409.78 1388.62 497.22 c 2,0,0
 1717.65 1409 l 1,0,0
 2068.95 1409 l 1,0,0
 1464.45 0 l 1,0,0
 1029.36 0 l 1,0,0
 1031.84 756.39 l 2,0,0
 1035.87 864.17 l 0,0,0
 1036.88 936.82 1036.88 936.82 1034.21 1046.99 c 1,0,0
 1009.57 980.39 1009.57 980.39 994.775 935.295 c 0,0,0
 979.98 890.2 979.98 890.2 972.69 864.94 c 2,0,0
EndSplineSet
EndChar

StartChar: X
Encoding: 88 88 59
Width: 1366
GlyphClass: 2
Flags: HW
LayerCount: 2
Fore
SplineSet
880.43 0 m 1,0,0
 660.93 482.42 l 1,0,0
 252.16 0 l 1,0,0
 -130.85 0 l 1,0,0
 519.81 729.3 l 1,0,0
 183.15 1409 l 1,0,0
 565.85 1409 l 1,0,0
 759.03 991.6 l 1,0,0
 1112.12 1409 l 1,0,0
 1493.46 1409 l 1,0,0
 893.46 731.33 l 1,0,0
 1259.79 0 l 1,0,0
 880.43 0 l 1,0,0
EndSplineSet
EndChar

StartChar: Y
Encoding: 89 89 60
Width: 1366
GlyphClass: 2
Flags: HW
LayerCount: 2
Fore
SplineSet
870.17 573.98 m 1,0,0
 758.84 0 l 1,0,0
 395.16 0 l 1,0,0
 505.15 573.98 l 1,0,0
 144.53 1409 l 1,0,0
 500.85 1409 l 1,0,0
 728.36 850.23 l 1,0,0
 1144.74 1409 l 1,0,0
 1540.77 1409 l 1,0,0
 870.17 573.98 l 1,0,0
EndSplineSet
EndChar

StartChar: Z
Encoding: 90 90 61
Width: 1251
GlyphClass: 2
Flags: HW
LayerCount: 2
Fore
SplineSet
1137.05 281.25 m 1,0,0
 1082 0 l 1,0,0
 -53.36 0 l 1,0,0
 -4.65 253.22 l 1,0,0
 837.26 1127.75 l 1,0,0
 242.6 1127.75 l 1,0,0
 297.65 1409 l 1,0,0
 1319.69 1409 l 1,0,0
 1270.98 1159.78 l 1,0,0
 424.06 281.25 l 1,0,0
 1137.05 281.25 l 1,0,0
EndSplineSet
EndChar

StartChar: bracketleft
Encoding: 91 91 62
Width: 757
GlyphClass: 2
Flags: HW
LayerCount: 2
Fore
SplineSet
612.44 -192.46 m 1,0,0
 567.4 -425 l 1,0,0
 -64.05 -425 l 1,0,0
 305.95 1484 l 1,0,0
 938.4 1484 l 1,0,0
 893.36 1253.13 l 1,0,0
 588.55 1253.13 l 1,0,0
 307.63 -192.46 l 1,0,0
 612.44 -192.46 l 1,0,0
EndSplineSet
EndChar

StartChar: backslash
Encoding: 92 92 63
Width: 569
GlyphClass: 2
Flags: HW
LayerCount: 2
Fore
SplineSet
385.85 1485.67 m 1,0,0
 572.2 -55.07 l 1,0,0
 268.23 -55.07 l 1,0,0
 87.55 1485.67 l 1,0,0
 385.85 1485.67 l 1,0,0
EndSplineSet
EndChar

StartChar: bracketright
Encoding: 93 93 64
Width: 757
GlyphClass: 2
Flags: HW
LayerCount: 2
Fore
SplineSet
825.1 1484 m 1,0,0
 454.1 -425 l 1,0,0
 -177.35 -425 l 1,0,0
 -132.31 -192.46 l 1,0,0
 174.84 -192.46 l 1,0,0
 455.76 1253.13 l 1,0,0
 147.61 1253.13 l 1,0,0
 192.65 1484 l 1,0,0
 825.1 1484 l 1,0,0
EndSplineSet
EndChar

StartChar: asciicircum
Encoding: 94 94 65
Width: 1353
GlyphClass: 2
Flags: HW
LayerCount: 2
Fore
SplineSet
721.76 1239.2 m 1,0,0
 385.7 407.47 l 1,0,0
 115.15 407.47 l 1,0,0
 521.56 1409 l 1,0,0
 923.29 1409 l 1,0,0
 1331.7 407.47 l 1,0,0
 1059.15 407.47 l 1,0,0
 721.76 1239.2 l 1,0,0
EndSplineSet
EndChar

StartChar: underscore
Encoding: 95 95 66
Width: 1139
GlyphClass: 2
Flags: HW
LayerCount: 2
Fore
SplineSet
1083.13 -170.66 m 1,0,0
 1083.13 -250 l 1,0,0
 -93.2 -250 l 1,0,0
 -93.2 -170.66 l 1,0,0
 1083.13 -170.66 l 1,0,0
EndSplineSet
EndChar

StartChar: grave
Encoding: 96 96 67
Width: 682
GlyphClass: 2
Flags: HW
LayerCount: 2
Fore
SplineSet
915.49 1209.31 m 1,0,0
 907.48 1170.94 l 1,0,0
 719.28 1170.94 l 1,0,0
 395.53 1445.6 l 1,0,0
 405.54 1497.98 l 1,0,0
 697.71 1497.98 l 1,0,0
 915.49 1209.31 l 1,0,0
EndSplineSet
EndChar

StartChar: a
Encoding: 97 97 68
Width: 1139
GlyphClass: 2
Flags: HW
LayerCount: 2
Fore
SplineSet
868.55 -10 m 0,0,0
 811.89 -10 811.89 -10 765.535 2.33 c 0,0,0
 719.18 14.66 719.18 14.66 688.99 41.325 c 0,0,0
 658.8 67.99 658.8 67.99 646.785 109.325 c 0,0,0
 634.77 150.66 634.77 150.66 645.45 207 c 1,0,0
 639.45 207 l 1,0,0
 605.79 154.34 605.79 154.34 570.965 111.84 c 0,0,0
 536.14 69.34 536.14 69.34 495.985 40.005 c 0,0,0
 455.83 10.67 455.83 10.67 405.34 -4.665 c 0,0,0
 354.85 -20 354.85 -20 287.52 -20 c 0,0,0
 220.52 -20 220.52 -20 164.69 1 c 0,0,0
 108.86 22 108.86 22 68.865 60.5 c 0,0,0
 28.87 99 28.87 99 7.375 154 c 0,0,0
 -14.12 209 -14.12 209 -14.12 278 c 0,0,0
 -14.12 376.32 -14.12 376.32 16.865 442.815 c 0,0,0
 47.85 509.31 47.85 509.31 101.665 551.31 c 0,0,0
 155.48 593.31 155.48 593.31 225.455 614.98 c 0,0,0
 295.43 636.65 295.43 636.65 373.245 646.655 c 0,0,0
 451.06 656.66 451.06 656.66 530.045 657.83 c 0,0,0
 609.03 659 609.03 659 681.03 660 c 1,0,0
 688.7 692.67 688.7 692.67 696.035 727.175 c 0,0,0
 703.37 761.68 703.37 761.68 703.37 793.68 c 0,0,0
 703.37 814.96 703.37 814.96 699.725 832.595 c 0,0,0
 696.08 850.23 696.08 850.23 687.95 862.545 c 0,0,0
 679.82 874.86 679.82 874.86 664.195 881.52 c 0,0,0
 648.57 888.18 648.57 888.18 625.28 888.18 c 0,0,0
 593.65 888.18 593.65 888.18 566.68 881.85 c 0,0,0
 539.71 875.52 539.71 875.52 519.905 861.03 c 0,0,0
 500.1 846.54 500.1 846.54 485.955 823.56 c 0,0,0
 471.81 800.58 471.81 800.58 465.83 766.28 c 1,0,0
 145.88 798.62 l 1,0,0
 161.86 886.63 161.86 886.63 210.035 944.805 c 0,0,0
 258.21 1002.98 258.21 1002.98 325.225 1037.485 c 0,0,0
 392.24 1071.99 392.24 1071.99 470.42 1086.995 c 0,0,0
 548.6 1102 548.6 1102 626.93 1102 c 0,0,0
 708.62 1102 708.62 1102 784.305 1093.015 c 0,0,0
 859.99 1084.03 859.99 1084.03 918.67 1054.04 c 0,0,0
 977.35 1024.05 977.35 1024.05 1012.19 965.545 c 0,0,0
 1047.03 907.04 1047.03 907.04 1047.03 807 c 0,0,0
 1047.03 770.34 1047.03 770.34 1037.355 728.835 c 0,0,0
 1027.68 687.33 1027.68 687.33 1019.68 650 c 2,0,0
 950.69 313.75 l 2,0,0
 947.36 300.1 947.36 300.1 946.03 282.775 c 0,0,0
 944.7 265.45 944.7 265.45 944.7 252.47 c 0,0,0
 944.7 218.48 944.7 218.48 968.37 205.655 c 0,0,0
 992.04 192.83 992.04 192.83 1022.36 192.83 c 0,0,0
 1039.03 192.83 1039.03 192.83 1054.865 193.995 c 0,0,0
 1070.7 195.16 1070.7 195.16 1085.7 199.83 c 1,0,0
 1071.7 16.02 l 1,0,0
 1023 -5.34 1023 -5.34 972.63 -7.67 c 0,0,0
 922.26 -10 922.26 -10 868.55 -10 c 0,0,0
337.2 351.13 m 0,0,0
 337.2 319.81 337.2 319.81 345.19 294.99 c 0,0,0
 353.18 270.17 353.18 270.17 368.665 252.345 c 0,0,0
 384.15 234.52 384.15 234.52 408.635 225.025 c 0,0,0
 433.12 215.53 433.12 215.53 464.44 215.53 c 0,0,0
 498.71 215.53 498.71 215.53 519.63 226.175 c 0,0,0
 540.55 236.82 540.55 236.82 554.98 253.275 c 0,0,0
 569.41 269.73 569.41 269.73 578.525 291.165 c 0,0,0
 587.64 312.6 587.64 312.6 596.63 334.18 c 2,0,0
 645.34 480.89 l 1,0,0
 500.76 481.56 l 2,0,0
 476.85 481.56 476.85 481.56 447.595 473.73 c 0,0,0
 418.34 465.9 418.34 465.9 393.9 448.92 c 0,0,0
 369.46 431.94 369.46 431.94 353.33 407.99 c 0,0,0
 337.2 384.04 337.2 384.04 337.2 351.13 c 0,0,0
EndSplineSet
EndChar

StartChar: b
Encoding: 98 98 69
Width: 1326
GlyphClass: 2
Flags: HW
LayerCount: 2
Fore
SplineSet
929.37 1102 m 0,0,0
 1089.71 1102 1089.71 1102 1179.715 1007.5 c 0,0,0
 1269.72 913 1269.72 913 1269.72 748 c 0,0,0
 1269.72 641.99 1269.72 641.99 1253.885 545.995 c 0,0,0
 1238.05 450 1238.05 450 1207.05 355 c 0,0,0
 1144.38 161.66 1144.38 161.66 1031.545 70.83 c 0,0,0
 918.71 -20 918.71 -20 744.04 -20 c 0,0,0
 617.7 -20 617.7 -20 539.865 32 c 0,0,0
 462.03 84 462.03 84 430.03 178 c 1,0,0
 427.03 178 l 1,0,0
 416.35 130.28 416.35 130.28 409.685 107.135 c 0,0,0
 403.02 83.99 403.02 83.99 400.03 72.36 c 0,0,0
 395.7 61.72 395.7 61.72 389.53 44.385 c 0,0,0
 383.36 27.05 383.36 27.05 375.68 0 c 1,0,0
 39.02 0 l 1,0,0
 44.02 15 44.02 15 59.355 82 c 0,0,0
 74.69 149 74.69 149 88.02 223 c 2,0,0
 334.69 1484 l 1,0,0
 683.36 1484 l 1,0,0
 598.69 1054.32 l 2,0,0
 589.68 1016.29 589.68 1016.29 582.85 979.62 c 0,0,0
 576.02 942.95 576.02 942.95 568.03 907.64 c 1,0,0
 572.03 907.64 l 1,0,0
 616.64 984.27 616.64 984.27 711.835 1043.135 c 0,0,0
 807.03 1102 807.03 1102 929.37 1102 c 0,0,0
763.81 869.48 m 0,0,0
 678.02 869.48 678.02 869.48 616.76 826.05 c 0,0,0
 574.4 785.4 574.4 785.4 544.55 719.23 c 0,0,0
 514.7 653.06 514.7 653.06 495.69 553.33 c 0,0,0
 480.03 460.01 480.03 460.01 480.03 417.08 c 0,0,0
 480.03 322.14 480.03 322.14 525.995 267.67 c 0,0,0
 571.96 213.2 571.96 213.2 654.9 213.2 c 0,0,0
 740.49 213.2 740.49 213.2 787.44 267.49 c 0,0,0
 811.75 293.8 811.75 293.8 832.735 345.945 c 0,0,0
 853.72 398.09 853.72 398.09 870.38 460.23 c 0,0,0
 887.04 522.37 887.04 522.37 896.705 581.17 c 0,0,0
 906.37 639.97 906.37 639.97 906.37 679.26 c 0,0,0
 906.37 772.2 906.37 772.2 878.575 820.84 c 0,0,0
 850.78 869.48 850.78 869.48 763.81 869.48 c 0,0,0
EndSplineSet
EndChar

StartChar: c
Encoding: 99 99 70
Width: 1216
GlyphClass: 2
Flags: HW
LayerCount: 2
Fore
SplineSet
580.89 207.17 m 0,0,0
 650.49 207.17 650.49 207.17 692.43 256.32 c 0,0,0
 734.37 305.47 734.37 305.47 759.67 400.43 c 1,0,0
 1107.72 349.76 l 1,0,0
 1012.44 -20 1012.44 -20 556.85 -20 c 0,0,0
 318.09 -20 318.09 -20 189.205 94.845 c 0,0,0
 60.32 209.69 60.32 209.69 60.32 411.7 c 0,0,0
 60.32 604.35 60.32 604.35 143.34 773.68 c 0,0,0
 227.03 944.01 227.03 944.01 366.57 1023.005 c 0,0,0
 506.11 1102 506.11 1102 716.85 1102 c 0,0,0
 919.25 1102 919.25 1102 1041.965 999.465 c 0,0,0
 1164.68 896.93 1164.68 896.93 1181.36 712.19 c 1,0,0
 825.67 690.53 l 1,0,0
 821.34 784.19 821.34 784.19 787.38 829.175 c 0,0,0
 753.42 874.16 753.42 874.16 684.13 874.16 c 0,0,0
 603.93 874.16 603.93 874.16 556.83 812.72 c 0,0,0
 509.73 751.28 509.73 751.28 454.7 566.96 c 1,0,0
 443.03 502.93 443.03 502.93 436.36 466.625 c 0,0,0
 429.69 430.32 429.69 430.32 429.69 419.06 c 0,0,0
 429.69 207.17 429.69 207.17 580.89 207.17 c 0,0,0
EndSplineSet
EndChar

StartChar: d
Encoding: 100 100 71
Width: 1326
GlyphClass: 2
Flags: HW
LayerCount: 2
Fore
SplineSet
385.97 -21 m 0,0,0
 233.98 -21 233.98 -21 142.305 86.025 c 0,0,0
 50.63 193.05 50.63 193.05 50.63 368.07 c 0,0,0
 50.63 553.37 50.63 553.37 115.97 728.67 c 0,0,0
 181.31 906.31 181.31 906.31 299.825 1004.49 c 0,0,0
 418.34 1102.67 418.34 1102.67 574.64 1102.67 c 0,0,0
 705.99 1102.67 705.99 1102.67 785.16 1054.845 c 0,0,0
 864.33 1007.02 864.33 1007.02 891.32 904.67 c 1,0,0
 896.32 904.67 l 1,0,0
 894.97 910.6 894.97 910.6 900.3 950.265 c 0,0,0
 905.63 989.93 905.63 989.93 920.98 1066.67 c 2,0,0
 1006.32 1484 l 1,0,0
 1348.31 1484 l 1,0,0
 1115 236.36 l 2,0,0
 1107.68 189.74 1107.68 189.74 1102.355 130.4 c 0,0,0
 1097.03 71.06 1097.03 71.06 1092.03 0 c 1,0,0
 738 0 l 1,0,0
 738 71.04 738 71.04 748.98 160 c 1,0,0
 745.65 160 l 1,0,0
 675.99 68.34 675.99 68.34 592.485 23.67 c 0,0,0
 508.98 -21 508.98 -21 385.97 -21 c 0,0,0
556.54 208.18 m 0,0,0
 690.09 208.18 690.09 208.18 760.37 334.44 c 0,0,0
 785.02 378.42 785.02 378.42 801.84 437.89 c 0,0,0
 818.66 497.36 818.66 497.36 828.655 557.825 c 0,0,0
 838.65 618.29 838.65 618.29 838.65 665.59 c 0,0,0
 838.65 782.24 838.65 782.24 802.705 826.69 c 0,0,0
 766.76 871.14 766.76 871.14 685.49 871.14 c 0,0,0
 598.56 871.14 598.56 871.14 537.58 804.15 c 0,0,0
 497.26 759.49 497.26 759.49 471.78 694.045 c 0,0,0
 446.3 628.6 446.3 628.6 433.48 554.83 c 0,0,0
 420.66 481.06 420.66 481.06 420.66 411.76 c 0,0,0
 420.66 310.47 420.66 310.47 455.97 259.325 c 0,0,0
 491.28 208.18 491.28 208.18 556.54 208.18 c 0,0,0
EndSplineSet
EndChar

StartChar: e
Encoding: 101 101 72
Width: 1139
GlyphClass: 2
Flags: HW
LayerCount: 2
Fore
SplineSet
426.34 457.91 m 1,0,0
 418.67 422.24 418.67 422.24 420.68 384.99 c 0,0,0
 420.68 297.08 420.68 297.08 453.78 250.295 c 0,0,0
 486.88 203.51 486.88 203.51 549.07 203.51 c 0,0,0
 607.66 203.51 607.66 203.51 643.24 241.49 c 0,0,0
 678.82 279.47 678.82 279.47 704.45 365.81 c 1,0,0
 1021.14 284.44 l 1,0,0
 944.8 106.68 944.8 106.68 834.805 43.34 c 0,0,0
 724.81 -20 724.81 -20 531.41 -20 c 0,0,0
 310.37 -20 310.37 -20 184.675 98.18 c 0,0,0
 58.98 216.36 58.98 216.36 58.98 426.71 c 0,0,0
 58.98 639.07 58.98 639.07 131.65 791.05 c 0,0,0
 204.32 943.37 204.32 943.37 339.165 1022.685 c 0,0,0
 474.01 1102 474.01 1102 656.72 1102 c 0,0,0
 868.4 1102 868.4 1102 981.565 991.485 c 0,0,0
 1094.73 880.97 1094.73 880.97 1094.73 679.61 c 0,0,0
 1094.73 583.96 1094.73 583.96 1070.73 457.91 c 1,0,0
 426.34 457.91 l 1,0,0
465.37 677.74 m 1,0,0
 783.14 677.74 l 1,0,0
 785.47 723.02 l 1,0,0
 785.47 818.63 785.47 818.63 746.02 856.24 c 0,0,0
 706.57 893.85 706.57 893.85 654.04 893.85 c 0,0,0
 583.5 893.85 583.5 893.85 535.42 840.08 c 0,0,0
 487.34 786.31 487.34 786.31 465.37 677.74 c 1,0,0
EndSplineSet
EndChar

StartChar: f
Encoding: 102 102 73
Width: 757
GlyphClass: 2
Flags: HW
LayerCount: 2
Fore
SplineSet
590.98 852.47 m 1,0,0
 424.35 0 l 1,0,0
 77.35 0 l 1,0,0
 243.98 852.47 l 1,0,0
 81.96 852.47 l 1,0,0
 126.33 1082 l 1,0,0
 288.35 1082 l 1,0,0
 309.68 1188.97 l 2,0,0
 331.68 1295.63 331.68 1295.63 385.71 1358.64 c 0,0,0
 442.08 1426.33 442.08 1426.33 532.805 1455.165 c 0,0,0
 623.53 1484 623.53 1484 748.92 1484 c 0,0,0
 815.57 1484 815.57 1484 924.69 1463.65 c 1,0,0
 881.99 1253.17 l 1,0,0
 879.34 1253.5 879.34 1253.5 865.335 1255.835 c 0,0,0
 851.33 1258.17 851.33 1258.17 833.65 1259.17 c 0,0,0
 819.31 1261.84 819.31 1261.84 805.64 1263.175 c 0,0,0
 791.97 1264.51 791.97 1264.51 782.64 1264.51 c 0,0,0
 713.63 1264.51 713.63 1264.51 685.64 1232.845 c 0,0,0
 657.65 1201.18 657.65 1201.18 649.34 1158.96 c 2,0,0
 635.35 1082 l 1,0,0
 849.69 1082 l 1,0,0
 805.32 852.47 l 1,0,0
 590.98 852.47 l 1,0,0
EndSplineSet
EndChar

StartChar: g
Encoding: 103 103 74
Width: 1326
GlyphClass: 2
Flags: HW
LayerCount: 2
Fore
SplineSet
453.78 -425 m 0,0,0
 234.68 -425 234.68 -425 121.985 -351.98 c 0,0,0
 9.29 -278.96 9.29 -278.96 -14.37 -121.23 c 1,0,0
 349.03 -99.27 l 1,0,0
 371.34 -206.17 371.34 -206.17 506.21 -206.17 c 0,0,0
 594.77 -206.17 594.77 -206.17 644.38 -156.885 c 0,0,0
 693.99 -107.6 693.99 -107.6 729.33 27 c 0,0,0
 740.67 77.68 740.67 77.68 748 121.18 c 0,0,0
 755.33 164.68 755.33 164.68 758.32 201 c 1,0,0
 756.32 201 l 1,0,0
 691.98 111.33 691.98 111.33 645.65 73 c 0,0,0
 597.65 34 597.65 34 538.15 13 c 0,0,0
 478.65 -8 478.65 -8 401.65 -8 c 0,0,0
 245.31 -8 245.31 -8 153.48 91.665 c 0,0,0
 61.65 191.33 61.65 191.33 61.65 353.99 c 0,0,0
 61.65 406.25 61.65 406.25 61.95 448.635 c 0,0,0
 62.25 491.02 62.25 491.02 65.36 534.755 c 0,0,0
 68.47 578.49 68.47 578.49 74.73 634.8 c 0,0,0
 136.39 875.41 136.39 875.41 260.285 988.205 c 0,0,0
 384.18 1101 384.18 1101 584.66 1101 c 0,0,0
 700.65 1101 700.65 1101 786.655 1045.67 c 0,0,0
 872.66 990.34 872.66 990.34 901.67 890.32 c 1,0,0
 903.67 890.32 l 1,0,0
 907 906.97 907 906.97 917 950.975 c 0,0,0
 927 994.98 927 994.98 937.835 1036.325 c 0,0,0
 948.67 1077.67 948.67 1077.67 951.67 1082 c 1,0,0
 1279.65 1082 l 1,0,0
 1260.65 998.33 l 1,0,0
 1230.65 849.65 l 1,0,0
 1062.97 -4.07 l 2,0,0
 1016.64 -231.04 1016.64 -231.04 874.27 -328.02 c 0,0,0
 731.9 -425 731.9 -425 453.78 -425 c 0,0,0
426 411.41 m 0,0,0
 426 245.24 426 245.24 576.22 245.24 c 0,0,0
 652.49 245.24 652.49 245.24 715.44 304.2 c 0,0,0
 778.39 363.83 778.39 363.83 811.86 464.925 c 0,0,0
 845.33 566.02 845.33 566.02 845.33 673.94 c 0,0,0
 845.33 763.87 845.33 763.87 801.37 816.67 c 0,0,0
 757.41 869.47 757.41 869.47 675.47 869.47 c 0,0,0
 608.85 869.47 608.85 869.47 567.22 840.82 c 0,0,0
 525.59 812.17 525.59 812.17 494.61 746.53 c 0,0,0
 474.29 701.21 474.29 701.21 458.97 636.07 c 0,0,0
 443.65 570.93 443.65 570.93 434.825 509.64 c 0,0,0
 426 448.35 426 448.35 426 411.41 c 0,0,0
EndSplineSet
EndChar

StartChar: h
Encoding: 104 104 75
Width: 1326
GlyphClass: 2
Flags: HW
LayerCount: 2
Fore
SplineSet
555.01 897 m 1,0,0
 624.65 993.63 624.65 993.63 719.84 1047.315 c 0,0,0
 815.03 1101 815.03 1101 933.37 1101 c 0,0,0
 1088.05 1101 1088.05 1101 1166.725 1028 c 0,0,0
 1245.4 955 1245.4 955 1245.4 817 c 0,0,0
 1245.4 796.69 1245.4 796.69 1237.06 733.145 c 0,0,0
 1228.72 669.6 1228.72 669.6 1224.4 653 c 2,0,0
 1097.4 0 l 1,0,0
 752.74 0 l 1,0,0
 865.38 561.5 l 2,0,0
 896.74 713.96 896.74 713.96 896.74 736.55 c 0,0,0
 896.74 840.09 896.74 840.09 762.83 840.09 c 0,0,0
 707.22 840.09 707.22 840.09 650.75 806.61 c 0,0,0
 594.28 773.13 594.28 773.13 554.635 719.515 c 0,0,0
 514.99 665.9 514.99 665.9 504.68 606 c 2,0,0
 386.68 0 l 1,0,0
 35.67 0 l 1,0,0
 320.33 1484 l 1,0,0
 667.33 1484 l 1,0,0
 585.65 1066.27 l 2,0,0
 576.65 1022.95 576.65 1022.95 567.99 981.635 c 0,0,0
 559.33 940.32 559.33 940.32 552.01 897 c 1,0,0
 555.01 897 l 1,0,0
EndSplineSet
EndChar

StartChar: i
Encoding: 105 105 76
Width: 645
GlyphClass: 2
Flags: HW
LayerCount: 2
Fore
SplineSet
673.01 1484 m 1,0,0
 627.32 1253.55 l 1,0,0
 278.65 1253.55 l 1,0,0
 324.34 1484 l 1,0,0
 673.01 1484 l 1,0,0
595.01 1082 m 1,0,0
 384.01 0 l 1,0,0
 36.34 0 l 1,0,0
 246.34 1082 l 1,0,0
 595.01 1082 l 1,0,0
EndSplineSet
Substitution2: "Single Substitution lookup 3 subtable" dotlessi
EndChar

StartChar: j
Encoding: 106 106 77
Width: 645
GlyphClass: 2
Flags: HW
LayerCount: 2
Fore
SplineSet
672.34 1484 m 1,0,0
 627.65 1253.55 l 1,0,0
 278.98 1253.55 l 1,0,0
 323.67 1484 l 1,0,0
 672.34 1484 l 1,0,0
-23.18 -425 m 0,0,0
 -149.66 -425 -149.66 -425 -213.97 -402.65 c 1,0,0
 -169.26 -179.81 l 1,0,0
 -163.3 -178.8 -163.3 -178.8 -151.985 -179.965 c 0,0,0
 -140.67 -181.13 -140.67 -181.13 -128.01 -181.13 c 0,0,0
 -55.65 -181.13 -55.65 -181.13 -23.145 -151.655 c 0,0,0
 9.36 -122.18 9.36 -122.18 28.03 -28.51 c 2,0,0
 245.67 1082 l 1,0,0
 594.34 1082 l 1,0,0
 359.01 -123.98 l 2,0,0
 331.35 -258.6 331.35 -258.6 232.125 -341.8 c 0,0,0
 132.9 -425 132.9 -425 -23.18 -425 c 0,0,0
EndSplineSet
Substitution2: "Single Substitution lookup 3 subtable" uni0237
EndChar

StartChar: k
Encoding: 107 107 78
Width: 1216
GlyphClass: 2
Flags: HW
LayerCount: 2
Fore
SplineSet
477.05 451.48 m 1,0,0
 383.34 0 l 1,0,0
 35.67 0 l 1,0,0
 323.67 1484 l 1,0,0
 672.34 1484 l 1,0,0
 513.38 678.89 l 1,0,0
 643.9 808.77 l 1,0,0
 911.38 1082 l 1,0,0
 1300.38 1082 l 1,0,0
 865.57 688.81 l 1,0,0
 1099.7 0 l 1,0,0
 732.69 0 l 1,0,0
 598.29 493.65 l 1,0,0
 477.05 451.48 l 1,0,0
EndSplineSet
EndChar

StartChar: l
Encoding: 108 108 79
Width: 645
GlyphClass: 2
Flags: HW
LayerCount: 2
Fore
SplineSet
673.01 1484 m 1,0,0
 384.01 0 l 1,0,0
 36.34 0 l 1,0,0
 324.34 1484 l 1,0,0
 673.01 1484 l 1,0,0
EndSplineSet
EndChar

StartChar: m
Encoding: 109 109 80
Width: 1898
GlyphClass: 2
Flags: HW
LayerCount: 2
Fore
SplineSet
681.71 0 m 1,0,0
 804.04 635.67 l 2,0,0
 815.68 710.91 815.68 710.91 815.68 746.21 c 0,0,0
 815.68 797.83 815.68 797.83 788.535 821.465 c 0,0,0
 761.39 845.1 761.39 845.1 713.8 845.1 c 0,0,0
 644.56 845.1 644.56 845.1 588.12 785.345 c 0,0,0
 531.68 725.59 531.68 725.59 504.68 604 c 1,0,0
 386.68 0 l 1,0,0
 35.67 0 l 1,0,0
 201.67 851 l 2,0,0
 221.67 946 221.67 946 240.67 1082 c 1,0,0
 581.01 1082 l 1,0,0
 581.01 1075 581.01 1075 576.01 1040.5 c 0,0,0
 571.01 1006 571.01 1006 564.51 965.5 c 0,0,0
 558.01 925 558.01 925 553.01 897 c 1,0,0
 556.01 897 l 1,0,0
 635.69 1014.34 635.69 1014.34 710.86 1057.67 c 0,0,0
 786.03 1101 786.03 1101 888.03 1101 c 0,0,0
 1144.38 1101 1144.38 1101 1173.38 869 c 1,0,0
 1251.37 990.65 1251.37 990.65 1335.21 1045.825 c 0,0,0
 1419.05 1101 1419.05 1101 1531.4 1101 c 0,0,0
 1671.41 1101 1671.41 1101 1745.58 1028 c 0,0,0
 1819.75 955 1819.75 955 1819.75 817 c 0,0,0
 1819.75 754 1819.75 754 1798.75 653 c 2,0,0
 1670.08 0 l 1,0,0
 1323.41 0 l 1,0,0
 1444.07 622.31 l 2,0,0
 1457.38 690.87 1457.38 690.87 1457.38 746.21 c 0,0,0
 1455.71 797.83 1455.71 797.83 1428.565 821.465 c 0,0,0
 1401.42 845.1 1401.42 845.1 1355.5 845.1 c 0,0,0
 1281.25 845.1 1281.25 845.1 1226.98 781.835 c 0,0,0
 1172.71 718.57 1172.71 718.57 1148.05 607 c 2,0,0
 1028.38 0 l 1,0,0
 681.71 0 l 1,0,0
EndSplineSet
EndChar

StartChar: n
Encoding: 110 110 81
Width: 1326
GlyphClass: 2
Flags: HW
LayerCount: 2
Fore
SplineSet
504.01 606 m 2,0,0
 386.01 0 l 1,0,0
 35.67 0 l 1,0,0
 201.67 851 l 2,0,0
 208.33 886.31 208.33 886.31 217.83 943.475 c 0,0,0
 227.33 1000.64 227.33 1000.64 239 1082 c 1,0,0
 572.66 1082 l 1,0,0
 572.66 1076.67 572.66 1076.67 568.495 1035.49 c 0,0,0
 564.33 994.31 564.33 994.31 559.5 951.305 c 0,0,0
 554.67 908.3 554.67 908.3 551.34 897 c 1,0,0
 554.34 897 l 1,0,0
 623.98 993.63 623.98 993.63 719.17 1047.315 c 0,0,0
 814.36 1101 814.36 1101 932.7 1101 c 0,0,0
 1087.38 1101 1087.38 1101 1166.055 1028 c 0,0,0
 1244.73 955 1244.73 955 1244.73 817 c 0,0,0
 1244.73 796.69 1244.73 796.69 1236.39 733.145 c 0,0,0
 1228.05 669.6 1228.05 669.6 1223.73 653 c 2,0,0
 1096.73 0 l 1,0,0
 752.07 0 l 1,0,0
 864.71 561.5 l 2,0,0
 896.07 713.96 896.07 713.96 896.07 736.55 c 0,0,0
 896.07 840.09 896.07 840.09 762.16 840.09 c 0,0,0
 706.55 840.09 706.55 840.09 650.08 806.61 c 0,0,0
 593.61 773.13 593.61 773.13 553.965 719.515 c 0,0,0
 514.32 665.9 514.32 665.9 504.01 606 c 2,0,0
EndSplineSet
EndChar

StartChar: o
Encoding: 111 111 82
Width: 1326
GlyphClass: 2
Flags: HW
LayerCount: 2
Fore
SplineSet
1259.37 683 m 0,0,0
 1259.37 598.09 1259.37 598.09 1252.77 537.415 c 0,0,0
 1246.17 476.74 1246.17 476.74 1227.28 408.8 c 0,0,0
 1140.59 204.92 1140.59 204.92 963.285 92.46 c 0,0,0
 785.98 -20 785.98 -20 564.48 -20 c 0,0,0
 331.74 -20 331.74 -20 196.03 97.165 c 0,0,0
 60.32 214.33 60.32 214.33 60.32 419 c 1,0,0
 56.97 615.98 56.97 615.98 144.34 770.98 c 0,0,0
 231.04 923.97 231.04 923.97 392.615 1012.485 c 0,0,0
 554.19 1101 554.19 1101 745.54 1101 c 0,0,0
 997.29 1101 997.29 1101 1128.33 991.5 c 0,0,0
 1259.37 882 1259.37 882 1259.37 683 c 0,0,0
893.01 647.93 m 1,0,0
 893.01 868.8 893.01 868.8 711.81 868.8 c 0,0,0
 613.55 868.8 613.55 868.8 554.26 814.83 c 0,0,0
 515.29 778.85 515.29 778.85 486.81 716.72 c 0,0,0
 458.33 654.59 458.33 654.59 443.675 581.8 c 0,0,0
 429.02 509.01 429.02 509.01 429.02 441.05 c 0,0,0
 429.02 323.11 429.02 323.11 472.98 267.32 c 0,0,0
 516.94 211.53 516.94 211.53 608.88 211.53 c 0,0,0
 633.39 211.53 633.39 211.53 665.83 212.295 c 0,0,0
 698.27 213.06 698.27 213.06 721.89 210.91 c 0,0,0
 798.95 254.85 798.95 254.85 841.81 370.855 c 0,0,0
 884.67 486.86 884.67 486.86 893.01 647.93 c 1,0,0
EndSplineSet
EndChar

StartChar: p
Encoding: 112 112 83
Width: 1326
GlyphClass: 2
Flags: HW
LayerCount: 2
Fore
SplineSet
734.36 -20 m 0,0,0
 608.02 -20 608.02 -20 529.685 32 c 0,0,0
 451.35 84 451.35 84 419.35 178 c 1,0,0
 419.36 178 l 1,0,0
 412.68 129.58 412.68 129.58 401.495 62.145 c 0,0,0
 390.31 -5.29 390.31 -5.29 371.28 -92.41 c 0,0,0
 340.56 -246.33 340.56 -246.33 324.58 -329.895 c 0,0,0
 306.69 -425 l 1,0,0
 -40.98 -425 l 1,0,0
 198 814.24 l 2,0,0
 203 844.92 203 844.92 209.17 873.93 c 0,0,0
 215.34 902.94 215.34 902.94 219.34 933.62 c 0,0,0
 230.01 1008.31 l 0,0,0
 239.68 1082 l 1,0,0
 587.04 1082 l 1,0,0
 587.04 1079.03 587.04 1079.03 583.205 1044.025 c 0,0,0
 579.37 1009.02 579.37 1009.02 573.7 968.835 c 0,0,0
 568.03 928.65 568.03 928.65 560.02 907.64 c 1,0,0
 564.02 907.64 l 1,0,0
 635.35 1010.99 635.35 1010.99 718.855 1056.495 c 0,0,0
 802.36 1102 802.36 1102 919.69 1102 c 0,0,0
 1080.03 1102 1080.03 1102 1170.035 1007.5 c 0,0,0
 1260.04 913 1260.04 913 1260.04 748 c 0,0,0
 1260.04 549.01 1260.04 549.01 1197.37 355 c 0,0,0
 1134.7 161.66 1134.7 161.66 1021.865 70.83 c 0,0,0
 909.03 -20 909.03 -20 734.36 -20 c 0,0,0
754.13 869.48 m 0,0,0
 610.04 869.48 610.04 869.48 531.19 749.655 c 0,0,0
 452.34 629.83 452.34 629.83 428.39 388.51 c 0,0,0
 441.48 372.92 441.48 372.92 450.88 377.245 c 0,0,0
 460.28 381.57 460.28 381.57 465.315 394.25 c 0,0,0
 470.35 406.93 470.35 406.93 470.35 417.08 c 0,0,0
 470.35 322.14 470.35 322.14 516.315 267.67 c 0,0,0
 562.28 213.2 562.28 213.2 645.22 213.2 c 0,0,0
 734.15 213.2 734.15 213.2 782.77 269.16 c 0,0,0
 808.75 297.14 808.75 297.14 828.9 345.945 c 0,0,0
 849.05 394.75 849.05 394.75 863.205 452.715 c 0,0,0
 877.36 510.68 877.36 510.68 884.52 570.315 c 0,0,0
 891.68 629.95 891.68 629.95 891.68 679.26 c 0,0,0
 891.68 773.87 891.68 773.87 858.875 821.675 c 0,0,0
 826.07 869.48 826.07 869.48 754.13 869.48 c 0,0,0
EndSplineSet
EndChar

StartChar: q
Encoding: 113 113 84
Width: 1326
GlyphClass: 2
Flags: HW
LayerCount: 2
Fore
SplineSet
389.31 -21 m 0,0,0
 240.66 -21 240.66 -21 146.48 79.345 c 0,0,0
 52.3 179.69 52.3 179.69 52.3 358.05 c 0,0,0
 52.3 551.7 52.3 551.7 117.64 727 c 0,0,0
 182.98 904.64 182.98 904.64 302.33 1003.655 c 0,0,0
 421.68 1102.67 421.68 1102.67 574.64 1102.67 c 0,0,0
 709.33 1102.67 709.33 1102.67 775.975 1061.525 c 0,0,0
 842.62 1020.38 842.62 1020.38 889.65 903 c 1,0,0
 894.65 903 l 1,0,0
 904.32 947.35 904.32 947.35 910.48 975.155 c 0,0,0
 916.64 1002.96 916.64 1002.96 923.97 1025.105 c 0,0,0
 931.3 1047.25 931.3 1047.25 940.31 1072.62 c 1,0,0
 1275.3 1072.62 l 1,0,0
 1275.99 1077.04 1275.99 1077.04 1274.52 1070.34 c 0,0,0
 1273.05 1063.64 1273.05 1063.64 1268.75 1048.16 c 0,0,0
 1289.91 1164.67 1289.91 1164.67 1218.22 796.715 c 0,0,0
 1146.53 428.76 1146.53 428.76 982.32 -425 c 1,0,0
 633.65 -425 l 1,0,0
 718.65 2.31 l 1,0,0
 757.33 165.01 l 1,0,0
 753.33 165.01 l 1,0,0
 676.99 65 676.99 65 590.145 22 c 0,0,0
 503.3 -21 503.3 -21 389.31 -21 c 0,0,0
561.55 208.18 m 0,0,0
 707.31 208.18 707.31 208.18 785.325 328.84 c 0,0,0
 863.34 449.5 863.34 449.5 883.95 691.82 c 0,0,0
 871.86 705.74 871.86 705.74 861.96 700.08 c 0,0,0
 852.06 694.42 852.06 694.42 846.19 683.075 c 0,0,0
 840.32 671.73 840.32 671.73 840.32 663.92 c 0,0,0
 840.32 772.22 840.32 772.22 810.22 821.68 c 0,0,0
 780.12 871.14 780.12 871.14 710.54 871.14 c 0,0,0
 606.91 871.14 606.91 871.14 545.93 812.5 c 0,0,0
 503.94 772.85 503.94 772.85 476.79 705.735 c 0,0,0
 449.64 638.62 449.64 638.62 435.985 559.005 c 0,0,0
 422.33 479.39 422.33 479.39 422.33 400.07 c 0,0,0
 422.33 308.8 422.33 308.8 458.475 258.49 c 0,0,0
 494.62 208.18 494.62 208.18 561.55 208.18 c 0,0,0
EndSplineSet
EndChar

StartChar: r
Encoding: 114 114 85
Width: 874
GlyphClass: 2
Flags: HW
LayerCount: 2
Fore
SplineSet
928.42 796.05 m 1,0,0
 841.33 812.39 841.33 812.39 798.34 812.39 c 0,0,0
 708.3 812.39 708.3 812.39 647.135 781.93 c 0,0,0
 585.97 751.47 585.97 751.47 545.98 678.665 c 0,0,0
 505.99 605.86 505.99 605.86 479.31 480.5 c 2,0,0
 384.34 0 l 1,0,0
 35.67 0 l 1,0,0
 196 830 l 2,0,0
 202 854.98 202 854.98 206.83 880.295 c 0,0,0
 211.66 905.61 211.66 905.61 214.32 932.93 c 0,0,0
 220.99 968.61 220.99 968.61 227.16 1006.295 c 0,0,0
 233.33 1043.98 233.33 1043.98 237.33 1082 c 1,0,0
 570.99 1082 l 1,0,0
 552.34 907.99 l 1,0,0
 544.34 861 l 1,0,0
 548.34 861 l 1,0,0
 626.03 995.67 626.03 995.67 701.72 1048.835 c 0,0,0
 777.41 1102 777.41 1102 874.77 1102 c 0,0,0
 920.44 1102 920.44 1102 983.13 1088 c 1,0,0
 928.42 796.05 l 1,0,0
EndSplineSet
EndChar

StartChar: s
Encoding: 115 115 86
Width: 1216
GlyphClass: 2
Flags: HW
LayerCount: 2
Fore
SplineSet
1062.31 345.39 m 0,0,0
 1062.31 163.35 1062.31 163.35 930.795 71.675 c 0,0,0
 799.28 -20 799.28 -20 545.24 -20 c 0,0,0
 326.15 -20 326.15 -20 201.105 59.375 c 0,0,0
 76.06 138.75 76.06 138.75 35.06 303.16 c 1,0,0
 355.74 325.76 l 1,0,0
 368.7 259.47 368.7 259.47 415.655 231.16 c 0,0,0
 462.61 202.85 462.61 202.85 567.92 202.85 c 0,0,0
 743.69 202.85 743.69 202.85 743.69 302.67 c 0,0,0
 743.69 346.3 743.69 346.3 709.39 366.59 c 0,0,0
 674.09 384.21 674.09 384.21 548.5 400.14 c 0,0,0
 434.53 416.42 434.53 416.42 348.15 457.09 c 0,0,0
 244.07 507.11 244.07 507.11 202.555 578.98 c 0,0,0
 161.04 650.85 161.04 650.85 161.04 750.24 c 0,0,0
 161.04 920.29 161.04 920.29 292.905 1009.645 c 0,0,0
 424.77 1099 424.77 1099 672.51 1099 c 0,0,0
 897.94 1099 897.94 1099 999.945 1023.81 c 0,0,0
 1101.95 948.62 1101.95 948.62 1127.29 788.89 c 1,0,0
 817.33 757.21 l 1,0,0
 803.68 819.51 803.68 819.51 762.72 847.83 c 0,0,0
 721.76 876.15 721.76 876.15 648.82 876.15 c 0,0,0
 559.89 876.15 559.89 876.15 519.275 852.515 c 0,0,0
 478.66 828.88 478.66 828.88 478.66 776.92 c 0,0,0
 478.66 749.95 478.66 749.95 497.99 732.305 c 0,0,0
 517.32 714.66 517.32 714.66 552.31 703.35 c 0,0,0
 585.63 692.04 585.63 692.04 727.63 667.08 c 0,0,0
 868.99 642.11 868.99 642.11 953.03 586.08 c 0,0,0
 1016.36 543.41 1016.36 543.41 1039.335 483.235 c 0,0,0
 1062.31 423.06 1062.31 423.06 1062.31 345.39 c 0,0,0
EndSplineSet
EndChar

StartChar: t
Encoding: 116 116 87
Width: 757
GlyphClass: 2
Flags: HW
LayerCount: 2
Fore
SplineSet
443.67 -13.32 m 0,0,0
 293.54 -13.32 293.54 -13.32 212.475 50.205 c 0,0,0
 131.41 113.73 131.41 113.73 131.41 237.81 c 0,0,0
 131.41 324.54 131.41 324.54 148.08 412.9 c 2,0,0
 234 852.47 l 1,0,0
 70.59 852.47 l 1,0,0
 114.96 1082 l 1,0,0
 300.41 1082 l 1,0,0
 458.85 1344.04 l 1,0,0
 672.37 1344.04 l 1,0,0
 623.7 1082 l 1,0,0
 827.04 1082 l 1,0,0
 786.01 852.47 l 1,0,0
 577.66 852.47 l 1,0,0
 487.73 391.17 l 2,0,0
 477.4 334.51 477.4 334.51 477.4 306.19 c 0,0,0
 477.4 258.85 477.4 258.85 501.57 236.015 c 0,0,0
 525.74 213.18 525.74 213.18 562.39 213.18 c 0,0,0
 593.04 213.18 593.04 213.18 675.75 225.51 c 1,0,0
 635.04 10.68 l 1,0,0
 566.1 -13.32 566.1 -13.32 443.67 -13.32 c 0,0,0
EndSplineSet
EndChar

StartChar: u
Encoding: 117 117 88
Width: 1326
GlyphClass: 2
Flags: HW
LayerCount: 2
Fore
SplineSet
774.72 185 m 1,0,0
 703.41 83.36 703.41 83.36 608.22 32.18 c 0,0,0
 513.03 -19 513.03 -19 396.36 -19 c 0,0,0
 241.68 -19 241.68 -19 163.005 54 c 0,0,0
 84.33 127 84.33 127 84.33 265 c 0,0,0
 84.33 278.65 84.33 278.65 88.5 314.505 c 0,0,0
 92.67 350.36 92.67 350.36 98.005 385.705 c 0,0,0
 103.34 421.05 103.34 421.05 105.33 429 c 2,0,0
 232.33 1082 l 1,0,0
 576.99 1082 l 1,0,0
 464.35 520.5 l 2,0,0
 432.99 370.71 432.99 370.71 432.99 345.45 c 0,0,0
 432.99 241.91 432.99 241.91 566.9 241.91 c 0,0,0
 624.18 241.91 624.18 241.91 678.98 274.555 c 0,0,0
 733.78 307.2 733.78 307.2 773.925 361.315 c 0,0,0
 814.07 415.43 814.07 415.43 825.05 476 c 2,0,0
 943.05 1082 l 1,0,0
 1293.39 1082 l 1,0,0
 1127.39 231 l 2,0,0
 1120.73 195.69 1120.73 195.69 1111.23 138.525 c 0,0,0
 1101.73 81.36 1101.73 81.36 1090.06 0 c 1,0,0
 756.4 0 l 1,0,0
 756.4 4.66 756.4 4.66 760.565 46.175 c 0,0,0
 764.73 87.69 764.73 87.69 770.06 131.195 c 0,0,0
 775.39 174.7 775.39 174.7 777.72 185 c 1,0,0
 774.72 185 l 1,0,0
EndSplineSet
EndChar

StartChar: v
Encoding: 118 118 89
Width: 1216
GlyphClass: 2
Flags: HW
LayerCount: 2
Fore
SplineSet
1305.7 1082 m 1,0,0
 699.05 0 l 1,0,0
 280.64 0 l 1,0,0
 108.66 1082 l 1,0,0
 466 1082 l 1,0,0
 516.9 543.33 l 2,0,0
 518.23 533.02 518.23 533.02 522.065 487.82 c 0,0,0
 525.9 442.62 525.9 442.62 530.235 389.58 c 0,0,0
 534.57 336.54 534.57 336.54 535.9 302.55 c 2,0,0
 538.23 252.89 l 1,0,0
 557.55 299.21 l 2,0,0
 583.89 364.58 583.89 364.58 610.23 424.275 c 0,0,0
 636.57 483.97 636.57 483.97 662.24 539.66 c 2,0,0
 932.68 1082 l 1,0,0
 1305.7 1082 l 1,0,0
EndSplineSet
EndChar

StartChar: w
Encoding: 119 119 90
Width: 1669
GlyphClass: 2
Flags: HW
LayerCount: 2
Fore
SplineSet
770.35 560.85 m 2,0,0
 507.21 0 l 1,0,0
 150.58 0 l 1,0,0
 96.99 1082 l 1,0,0
 408.59 1082 l 1,0,0
 405.17 412.13 l 2,0,0
 405.5 389.85 405.5 389.85 403.325 368.74 c 0,0,0
 401.15 347.63 401.15 347.63 400.48 326.02 c 1,0,0
 420.48 374.69 420.48 374.69 437.64 422.69 c 0,0,0
 454.8 470.69 454.8 470.69 478.14 517.69 c 2,0,0
 740.65 1082 l 1,0,0
 1114.01 1082 l 1,0,0
 1154.67 517.69 l 2,0,0
 1157.67 473.71 1157.67 473.71 1157.5 426.21 c 0,0,0
 1157.33 378.71 1157.33 378.71 1159 326.02 c 1,0,0
 1177.69 371.08 1177.69 371.08 1186.335 396.04 c 0,0,0
 1194.58 427.2 l 2,0,0
 1451.41 1082 l 1,0,0
 1777.71 1082 l 1,0,0
 1300.13 0 l 1,0,0
 944.17 0 l 1,0,0
 897.15 634.54 l 1,0,0
 892.82 860.52 l 1,0,0
 859.45 766.74 859.45 766.74 828.415 691.99 c 0,0,0
 797.38 617.24 797.38 617.24 770.35 560.85 c 2,0,0
EndSplineSet
EndChar

StartChar: x
Encoding: 120 120 91
Width: 1216
GlyphClass: 2
Flags: HW
LayerCount: 2
Fore
SplineSet
565.47 342.13 m 1,0,0
 273.98 0 l 1,0,0
 -95.36 0 l 1,0,0
 423.36 566.02 l 1,0,0
 134.31 1082 l 1,0,0
 495.32 1082 l 1,0,0
 654.92 784.58 l 1,0,0
 914.74 1082 l 1,0,0
 1291.08 1082 l 1,0,0
 798.7 556.33 l 1,0,0
 1101.41 0 l 1,0,0
 736.06 0 l 1,0,0
 565.47 342.13 l 1,0,0
EndSplineSet
EndChar

StartChar: y
Encoding: 121 121 92
Width: 1216
GlyphClass: 2
Flags: HW
LayerCount: 2
Fore
SplineSet
136.24 -425 m 0,0,0
 22.82 -425 22.82 -425 -64.23 -404.32 c 1,0,0
 -21.54 -166.78 l 1,0,0
 14.77 -176.45 14.77 -176.45 72.16 -176.45 c 0,0,0
 138.77 -176.45 138.77 -176.45 189.56 -142.51 c 0,0,0
 240.35 -108.57 240.35 -108.57 291.98 -16.63 c 2,0,0
 320.65 32.04 l 1,0,0
 112 1082 l 1,0,0
 475.36 1082 l 1,0,0
 518.89 652.67 l 2,0,0
 520.21 629.37 520.21 629.37 525.54 577.355 c 0,0,0
 530.87 525.34 530.87 525.34 536.035 465.47 c 0,0,0
 541.2 405.6 541.2 405.6 545.2 355.395 c 0,0,0
 549.2 305.19 549.2 305.19 549.2 287.85 c 1,0,0
 554.2 297.18 554.2 297.18 556.525 303.165 c 0,0,0
 560.17 313.46 l 2,0,0
 710.56 652.02 l 1,0,0
 921.32 1082 l 1,0,0
 1288.99 1082 l 1,0,0
 616.23 -95.19 l 1,0,0
 510.91 -246.77 510.91 -246.77 444.91 -306.74 c 0,0,0
 377.91 -368.04 377.91 -368.04 303.91 -396.52 c 0,0,0
 229.91 -425 229.91 -425 136.24 -425 c 0,0,0
EndSplineSet
EndChar

StartChar: z
Encoding: 122 122 93
Width: 1024
GlyphClass: 2
Flags: HW
LayerCount: 2
Fore
SplineSet
912.79 249.22 m 1,0,0
 862.74 0 l 1,0,0
 -8.66 0 l 1,0,0
 39.39 240.54 l 1,0,0
 565.96 836.12 l 1,0,0
 210.38 836.12 l 1,0,0
 260.43 1082 l 1,0,0
 1019.38 1082 l 1,0,0
 970.33 838.12 l 1,0,0
 448.77 249.22 l 1,0,0
 912.79 249.22 l 1,0,0
EndSplineSet
EndChar

StartChar: braceleft
Encoding: 123 123 94
Width: 872
GlyphClass: 2
Flags: HW
LayerCount: 2
Fore
SplineSet
402.74 -425 m 2,0,0
 278.38 -425 278.38 -425 207.87 -368.52 c 0,0,0
 137.36 -312.04 137.36 -312.04 137.36 -220.09 c 0,0,0
 137.36 -194.5 137.36 -194.5 149.03 -129.81 c 2,0,0
 213.38 192.26 l 2,0,0
 219.04 216.22 219.04 216.22 219.04 254.23 c 0,0,0
 219.04 327.21 219.04 327.21 170.035 368.72 c 0,0,0
 121.03 410.23 121.03 410.23 17.66 410.89 c 1,0,0
 64.37 646.44 l 1,0,0
 305.42 648.43 305.42 648.43 347.08 867.41 c 2,0,0
 412.07 1189.33 l 2,0,0
 441.74 1337.34 441.74 1337.34 530.6 1410.67 c 0,0,0
 619.46 1484 619.46 1484 781.5 1484 c 2,0,0
 1015.03 1484 l 1,0,0
 969.99 1253.13 l 1,0,0
 885.28 1253.13 l 2,0,0
 807.97 1253.13 807.97 1253.13 768.655 1206.965 c 0,0,0
 729.34 1160.8 729.34 1160.8 708.68 1054.83 c 2,0,0
 654.71 775.65 l 2,0,0
 635.71 682.32 635.71 682.32 562.695 616.49 c 0,0,0
 489.68 550.66 489.68 550.66 390 532 c 1,0,0
 388.33 526.66 l 1,0,0
 465.68 506.32 465.68 506.32 512.86 455.485 c 0,0,0
 560.04 404.65 560.04 404.65 560.04 331.66 c 0,0,0
 560.04 304.66 560.04 304.66 555.71 284.35 c 2,0,0
 488.03 -59.7 l 2,0,0
 484.7 -78.69 484.7 -78.69 483.205 -81.61 c 0,0,0
 481.71 -84.53 481.71 -84.53 481.71 -100.86 c 0,0,0
 481.71 -151.85 481.71 -151.85 513.705 -172.155 c 0,0,0
 545.7 -192.46 545.7 -192.46 587.63 -192.46 c 2,0,0
 689.07 -192.46 l 1,0,0
 644.03 -425 l 1,0,0
 402.74 -425 l 2,0,0
EndSplineSet
EndChar

StartChar: bar
Encoding: 124 124 95
Width: 600
GlyphClass: 2
Flags: HW
LayerCount: 2
Fore
SplineSet
502.58 1484 m 1,0,0
 502.58 -405.57 l 1,0,0
 176.26 -405.57 l 1,0,0
 176.26 1484 l 1,0,0
 502.58 1484 l 1,0,0
EndSplineSet
EndChar

StartChar: braceright
Encoding: 125 125 96
Width: 872
GlyphClass: 2
Flags: HW
LayerCount: 2
Fore
SplineSet
459.97 1485.67 m 2,0,0
 584.33 1485.67 584.33 1485.67 654.84 1429.19 c 0,0,0
 725.35 1372.71 725.35 1372.71 725.35 1280.76 c 0,0,0
 725.35 1251.83 725.35 1251.83 713.68 1190.48 c 2,0,0
 649.33 868.41 l 2,0,0
 643.67 845.45 643.67 845.45 643.67 806.44 c 0,0,0
 643.67 733.46 643.67 733.46 690.17 691.95 c 0,0,0
 736.67 650.44 736.67 650.44 845.05 649.78 c 1,0,0
 798.34 414.23 l 1,0,0
 557.29 412.24 557.29 412.24 515.63 191.59 c 2,0,0
 450.64 -128.66 l 2,0,0
 417.63 -286.69 417.63 -286.69 327.1 -355.845 c 0,0,0
 236.57 -425 236.57 -425 81.21 -425 c 2,0,0
 -152.32 -425 l 1,0,0
 -107.28 -194.13 l 1,0,0
 -22.57 -194.13 l 2,0,0
 54.74 -194.13 54.74 -194.13 94.055 -147.965 c 0,0,0
 133.37 -101.8 133.37 -101.8 154.03 4.17 c 2,0,0
 208 283.35 l 2,0,0
 227 378.35 227 378.35 300.015 444.18 c 0,0,0
 373.03 510.01 373.03 510.01 472.71 528.67 c 1,0,0
 474.38 532.34 l 1,0,0
 395.36 552.68 395.36 552.68 349.015 605.185 c 0,0,0
 302.67 657.69 302.67 657.69 302.67 729.01 c 0,0,0
 302.67 755.34 302.67 755.34 307 776.32 c 2,0,0
 374.68 1118.7 l 2,0,0
 379.68 1141.03 379.68 1141.03 380.34 1143.28 c 0,0,0
 381 1145.53 381 1145.53 381 1161.53 c 0,0,0
 381 1212.52 381 1212.52 349.005 1232.825 c 0,0,0
 317.01 1253.13 317.01 1253.13 275.08 1253.13 c 2,0,0
 173.64 1253.13 l 1,0,0
 218.68 1485.67 l 1,0,0
 459.97 1485.67 l 2,0,0
EndSplineSet
EndChar

StartChar: asciitilde
Encoding: 126 126 97
Width: 1196
GlyphClass: 2
Flags: HW
LayerCount: 2
Fore
SplineSet
899.05 491.21 m 0,0,0
 820.03 491.21 820.03 491.21 747.53 511.54 c 0,0,0
 675.03 531.87 675.03 531.87 598.69 557.87 c 0,0,0
 458 606.21 458 606.21 375.01 606.21 c 0,0,0
 301.33 606.21 301.33 606.21 240.825 584.04 c 0,0,0
 180.32 561.87 180.32 561.87 115.32 518.21 c 1,0,0
 115.32 778.11 l 1,0,0
 229.66 862.11 229.66 862.11 391.68 862.11 c 0,0,0
 491.11 862.11 491.11 862.11 579.67 833.075 c 0,0,0
 668.23 804.04 668.23 804.04 746.92 776.03 c 0,0,0
 756.41 773.76 756.41 773.76 786.705 766.275 c 0,0,0
 817 758.79 817 758.79 854.86 751.95 c 0,0,0
 892.72 745.11 892.72 745.11 920.06 745.11 c 0,0,0
 1055.74 745.11 1055.74 745.11 1170.74 837.11 c 1,0,0
 1170.74 571.21 l 1,0,0
 1104.06 525.87 1104.06 525.87 1044.89 508.54 c 0,0,0
 985.72 491.21 985.72 491.21 899.05 491.21 c 0,0,0
EndSplineSet
EndChar

StartChar: exclamdown
Encoding: 161 161 99
Width: 682
GlyphClass: 2
Flags: HW
LayerCount: 2
Fore
SplineSet
622.84 1081.33 m 1,0,0
 561.13 765.1 l 1,0,0
 210.15 765.1 l 1,0,0
 271.86 1081.33 l 1,0,0
 622.84 1081.33 l 1,0,0
213.86 632.56 m 1,0,0
 498.8 632.56 l 1,0,0
 350.18 -327.67 l 1,0,0
 -9.48 -327.67 l 1,0,0
 213.86 632.56 l 1,0,0
EndSplineSet
EndChar

StartChar: cent
Encoding: 162 162 100
Width: 1139
GlyphClass: 2
Flags: HW
LayerCount: 2
Fore
SplineSet
541.63 361.5 m 0,0,0
 611.23 361.5 611.23 361.5 653.17 410.65 c 0,0,0
 695.11 459.8 695.11 459.8 720.41 554.76 c 1,0,0
 1068.46 504.09 l 1,0,0
 1020.48 325.04 1020.48 325.04 897.275 237.025 c 0,0,0
 774.07 149.01 774.07 149.01 581.32 136 c 1,0,0
 549.32 -31 l 1,0,0
 361.86 -31 l 1,0,0
 392.52 143.67 l 1,0,0
 216.8 172.35 216.8 172.35 118.93 281.355 c 0,0,0
 21.06 390.36 21.06 390.36 21.06 566.03 c 0,0,0
 21.06 662.65 21.06 662.65 31.69 704.83 c 0,0,0
 62.38 842.62 62.38 842.62 115.43 945.69 c 0,0,0
 168.48 1048.76 168.48 1048.76 243.89 1120.8 c 0,0,0
 315.57 1181.4 315.57 1181.4 407.735 1214.53 c 0,0,0
 499.9 1247.66 499.9 1247.66 607.85 1253.66 c 1,0,0
 640.86 1409 l 1,0,0
 828.32 1409 l 1,0,0
 794.31 1245.99 l 1,0,0
 943.68 1220.31 943.68 1220.31 1036.385 1119.94 c 0,0,0
 1129.09 1019.57 1129.09 1019.57 1142.1 866.52 c 1,0,0
 786.41 844.86 l 1,0,0
 782.08 938.52 782.08 938.52 748.12 983.505 c 0,0,0
 714.16 1028.49 714.16 1028.49 644.87 1028.49 c 0,0,0
 551.27 1028.49 551.27 1028.49 502.66 951.47 c 0,0,0
 482.05 915.15 482.05 915.15 460.245 862.035 c 0,0,0
 438.44 808.92 438.44 808.92 413.43 711.91 c 0,0,0
 399.09 651.56 399.09 651.56 394.76 616.765 c 0,0,0
 390.43 581.97 390.43 581.97 390.43 573.39 c 0,0,0
 390.43 361.5 390.43 361.5 541.63 361.5 c 0,0,0
EndSplineSet
EndChar

StartChar: sterling
Encoding: 163 163 101
Width: 1139
GlyphClass: 2
Flags: HW
LayerCount: 2
Fore
SplineSet
977.67 0 m 1,0,0
 -77.13 0 l 1,0,0
 -31.43 239.17 l 1,0,0
 60.56 271.81 60.56 271.81 116.555 330.27 c 0,0,0
 172.55 388.73 172.55 388.73 191.54 481 c 2,0,0
 214.53 589.93 l 1,0,0
 26.86 589.93 l 1,0,0
 63.55 787.4 l 1,0,0
 236.19 787.4 l 1,0,0
 284.51 1034 l 2,0,0
 322.84 1242.34 322.84 1242.34 431.165 1336.17 c 0,0,0
 539.49 1430 539.49 1430 742.52 1430 c 0,0,0
 937.28 1430 937.28 1430 1047.81 1339.11 c 0,0,0
 1158.34 1248.22 1158.34 1248.22 1171.32 1083.1 c 1,0,0
 872.05 1036.44 l 1,0,0
 860.4 1133.84 860.4 1133.84 828.615 1172.015 c 0,0,0
 796.83 1210.19 796.83 1210.19 727.17 1210.19 c 0,0,0
 673.29 1210.19 673.29 1210.19 645.695 1171.895 c 0,0,0
 618.1 1133.6 618.1 1133.6 600.78 1042 c 2,0,0
 549.79 787.4 l 1,0,0
 754.05 787.4 l 1,0,0
 715.69 589.93 l 1,0,0
 511.43 589.93 l 1,0,0
 484.43 478 l 2,0,0
 462.76 390.38 462.76 390.38 407.775 336.11 c 0,0,0
 352.79 281.84 352.79 281.84 253.77 248.19 c 1,0,0
 1021.7 248.19 l 1,0,0
 977.67 0 l 1,0,0
EndSplineSet
EndChar

StartChar: currency
Encoding: 164 164 102
Width: 1139
GlyphClass: 2
Flags: HW
LayerCount: 2
Fore
SplineSet
138.28 684 m 0,0,0
 138.28 793.61 138.28 793.61 186.22 884.23 c 1,0,0
 31.11 1039.34 l 1,0,0
 223.62 1230.85 l 1,0,0
 376.06 1076.41 l 1,0,0
 469.02 1120 469.02 1120 573.28 1120 c 0,0,0
 684.23 1120 684.23 1120 770.84 1075.07 c 1,0,0
 931.3 1235.53 l 1,0,0
 1125.48 1042.02 l 1,0,0
 962.68 880.89 l 1,0,0
 1009.28 794.62 1009.28 794.62 1009.28 684 c 0,0,0
 1009.28 578.4 1009.28 578.4 967.36 490.45 c 1,0,0
 1124.14 335.34 l 1,0,0
 928.62 138.49 l 1,0,0
 774.18 296.27 l 1,0,0
 681.89 250 681.89 250 573.28 250 c 0,0,0
 464.68 250 464.68 250 374.72 291.59 c 1,0,0
 219.62 133.15 l 1,0,0
 25.77 326.66 l 1,0,0
 182.88 487.11 l 1,0,0
 138.28 574.39 138.28 574.39 138.28 684 c 0,0,0
412.52 686 m 0,0,0
 412.52 641.73 412.52 641.73 433.82 604.95 c 0,0,0
 455.12 568.17 455.12 568.17 491.9 546.37 c 0,0,0
 528.68 524.57 528.68 524.57 573.28 524.57 c 0,0,0
 617.55 524.57 617.55 524.57 653.495 547.04 c 0,0,0
 689.44 569.51 689.44 569.51 711.24 607.125 c 0,0,0
 733.04 644.74 733.04 644.74 733.04 686 c 0,0,0
 733.04 730.6 733.04 730.6 711.74 766.545 c 0,0,0
 690.44 802.49 690.44 802.49 654.495 824.625 c 0,0,0
 618.55 846.76 618.55 846.76 573.28 846.76 c 0,0,0
 530.35 846.76 530.35 846.76 493.57 825.795 c 0,0,0
 456.79 804.83 456.79 804.83 434.655 768.385 c 0,0,0
 412.52 731.94 412.52 731.94 412.52 686 c 0,0,0
EndSplineSet
EndChar

StartChar: yen
Encoding: 165 165 103
Width: 1139
GlyphClass: 2
Flags: HW
LayerCount: 2
Fore
SplineSet
675.81 191.11 m 1,0,0
 638.52 0 l 1,0,0
 303.54 0 l 1,0,0
 340.83 191.11 l 1,0,0
 34.98 191.11 l 1,0,0
 64.99 351.51 l 1,0,0
 372.51 351.51 l 1,0,0
 404.51 518.87 l 1,0,0
 98.33 518.87 l 1,0,0
 129.01 678.94 l 1,0,0
 375.53 678.94 l 1,0,0
 192.4 1409 l 1,0,0
 537.37 1409 l 1,0,0
 629.73 847.17 l 1,0,0
 946.03 1409 l 1,0,0
 1299.66 1409 l 1,0,0
 831.84 678.94 l 1,0,0
 1077.69 678.94 l 1,0,0
 1047.01 518.87 l 1,0,0
 739.16 518.87 l 1,0,0
 705.82 351.51 l 1,0,0
 1013.67 351.51 l 1,0,0
 983.66 191.11 l 1,0,0
 675.81 191.11 l 1,0,0
EndSplineSet
EndChar

StartChar: brokenbar
Encoding: 166 166 104
Width: 600
GlyphClass: 2
Flags: HW
LayerCount: 2
Fore
SplineSet
504.25 1483.33 m 1,0,0
 504.25 755.43 l 1,0,0
 177.93 755.43 l 1,0,0
 177.93 1483.33 l 1,0,0
 504.25 1483.33 l 1,0,0
504.25 324 m 1,0,0
 504.25 -404.9 l 1,0,0
 177.93 -404.9 l 1,0,0
 177.93 324 l 1,0,0
 504.25 324 l 1,0,0
EndSplineSet
EndChar

StartChar: section
Encoding: 167 167 105
Width: 1139
GlyphClass: 2
Flags: HW
LayerCount: 2
Fore
SplineSet
1125.23 664.65 m 0,0,0
 1125.23 552.65 1125.23 552.65 1074.265 478.31 c 0,0,0
 1023.3 403.97 1023.3 403.97 892.98 354.6 c 1,0,0
 1024.98 285.96 1024.98 285.96 1024.98 126.59 c 0,0,0
 1024.98 -68.81 1024.98 -68.81 876.765 -168 c 0,0,0
 728.55 -267.19 728.55 -267.19 453.14 -267.19 c 0,0,0
 200.31 -267.19 200.31 -267.19 78.94 -190.32 c 0,0,0
 -42.43 -113.45 -42.43 -113.45 -47.36 50.96 c 1,0,0
 261.63 75.23 l 1,0,0
 262.9 -4.42 262.9 -4.42 313.195 -37.74 c 0,0,0
 363.49 -71.06 363.49 -71.06 462.12 -71.06 c 0,0,0
 593.43 -71.06 593.43 -71.06 662.42 -36.755 c 0,0,0
 731.41 -2.45 731.41 -2.45 731.41 58.82 c 0,0,0
 731.41 117.54 731.41 117.54 698.705 151.555 c 0,0,0
 666 185.57 666 185.57 604.93 205.9 c 0,0,0
 562.28 212.83 562.28 212.83 408.63 239.45 c 0,0,0
 90.31 291.02 90.31 291.02 90.31 526.04 c 0,0,0
 90.31 725.66 90.31 725.66 357.96 796.68 c 1,0,0
 205.59 870.99 205.59 870.99 205.59 1045.06 c 0,0,0
 205.59 1223.46 205.59 1223.46 332.61 1306.135 c 0,0,0
 459.63 1388.81 459.63 1388.81 733.41 1388.81 c 0,0,0
 958.18 1388.81 958.18 1388.81 1075.72 1314.455 c 0,0,0
 1193.26 1240.1 1193.26 1240.1 1190.21 1102.08 c 1,0,0
 891.94 1077.08 l 1,0,0
 885.3 1141.06 885.3 1141.06 830.975 1166.87 c 0,0,0
 776.65 1192.68 776.65 1192.68 703.03 1192.68 c 0,0,0
 503.17 1192.68 503.17 1192.68 503.17 1079.78 c 0,0,0
 503.17 1054.17 503.17 1054.17 510.41 1035.22 c 0,0,0
 543.09 994.85 543.09 994.85 599.765 976.025 c 0,0,0
 656.44 957.2 656.44 957.2 750.14 938.88 c 0,0,0
 927.13 908.6 927.13 908.6 1026.18 839.12 c 0,0,0
 1125.23 769.64 1125.23 769.64 1125.23 664.65 c 0,0,0
392.9 584.46 m 0,0,0
 392.9 545.14 392.9 545.14 416.56 521.67 c 0,0,0
 440.22 498.2 440.22 498.2 471.16 485.91 c 0,0,0
 499.43 472.95 499.43 472.95 633.5 444.62 c 1,0,0
 730.43 456.3 730.43 456.3 778.54 483.42 c 0,0,0
 826.65 510.54 826.65 510.54 826.65 555.12 c 0,0,0
 826.65 579.4 826.65 579.4 823.2 599.365 c 0,0,0
 819.75 619.33 819.75 619.33 810.84 633.3 c 0,0,0
 754.5 678 754.5 678 596.46 708.98 c 1,0,0
 502.84 702.98 502.84 702.98 447.87 674.03 c 0,0,0
 392.9 645.08 392.9 645.08 392.9 584.46 c 0,0,0
EndSplineSet
EndChar

StartChar: dieresis
Encoding: 168 168 106
Width: 682
GlyphClass: 2
Flags: HW
LayerCount: 2
Fore
SplineSet
894.33 1428.05 m 1,0,0
 845.97 1185.6 l 1,0,0
 599.49 1185.6 l 1,0,0
 647.85 1428.05 l 1,0,0
 894.33 1428.05 l 1,0,0
420.48 1428.05 m 1,0,0
 372.12 1185.6 l 1,0,0
 133.66 1185.6 l 1,0,0
 180.35 1428.05 l 1,0,0
 420.48 1428.05 l 1,0,0
EndSplineSet
EndChar

StartChar: copyright
Encoding: 169 169 107
Width: 1509
GlyphClass: 2
Flags: HW
LayerCount: 2
Fore
SplineSet
1507.33 707 m 0,0,0
 1507.33 514 1507.33 514 1411.33 346 c 0,0,0
 1314.33 177 1314.33 177 1145.83 80.5 c 0,0,0
 977.33 -16 977.33 -16 784.33 -16 c 0,0,0
 588.33 -16 588.33 -16 418.33 85 c 0,0,0
 249.33 186 249.33 186 155.33 352 c 0,0,0
 61.33 518 61.33 518 61.33 707 c 0,0,0
 61.33 901 61.33 901 158.33 1068 c 0,0,0
 255.33 1236 255.33 1236 423.33 1333 c 0,0,0
 591.33 1430 591.33 1430 784.33 1430 c 0,0,0
 978.33 1430 978.33 1430 1147.33 1333 c 0,0,0
 1315.33 1236 1315.33 1236 1411.33 1068.5 c 0,0,0
 1507.33 901 1507.33 901 1507.33 707 c 0,0,0
1381.93 707 m 0,0,0
 1381.93 867.65 1381.93 867.65 1301.27 1004.3 c 0,0,0
 1221.28 1140.28 1221.28 1140.28 1082.295 1220.94 c 0,0,0
 943.31 1301.6 943.31 1301.6 784.33 1301.6 c 0,0,0
 634.7 1301.6 634.7 1301.6 498.72 1227.62 c 0,0,0
 362.74 1154.31 362.74 1154.31 276.235 1015.825 c 0,0,0
 189.73 877.34 189.73 877.34 189.73 707 c 0,0,0
 189.73 548.69 189.73 548.69 269.72 408.7 c 0,0,0
 348.71 269.38 348.71 269.38 486.195 188.72 c 0,0,0
 623.68 108.06 623.68 108.06 784.33 108.06 c 0,0,0
 943.64 108.06 943.64 108.06 1082.96 188.05 c 0,0,0
 1222.28 268.71 1222.28 268.71 1302.105 408.365 c 0,0,0
 1381.93 548.02 1381.93 548.02 1381.93 707 c 0,0,0
798.67 289.02 m 0,0,0
 602.32 289.02 602.32 289.02 495.815 398.68 c 0,0,0
 389.31 508.34 389.31 508.34 389.31 709 c 0,0,0
 389.31 912 389.31 912 492.65 1014.985 c 0,0,0
 595.99 1117.97 595.99 1117.97 788.33 1117.97 c 0,0,0
 1057.38 1117.97 1057.38 1117.97 1150.04 875.57 c 1,0,0
 965.9 829.21 l 1,0,0
 943.92 884.85 943.92 884.85 901.785 918.85 c 0,0,0
 859.65 952.85 859.65 952.85 795.34 952.85 c 0,0,0
 698.4 952.85 698.4 952.85 650.94 889.885 c 0,0,0
 603.48 826.92 603.48 826.92 603.48 709 c 0,0,0
 603.48 587.4 603.48 587.4 654.44 521.105 c 0,0,0
 705.4 454.81 705.4 454.81 798.67 454.81 c 0,0,0
 924.61 454.81 924.61 454.81 969.88 589.1 c 1,0,0
 1160.03 534.06 l 1,0,0
 1104.71 406.38 1104.71 406.38 1016.035 347.7 c 0,0,0
 927.36 289.02 927.36 289.02 798.67 289.02 c 0,0,0
EndSplineSet
EndChar

StartChar: ordfeminine
Encoding: 170 170 108
Width: 758
GlyphClass: 2
Flags: HW
LayerCount: 2
Fore
SplineSet
649.52 723.8 m 0,0,0
 583.52 723.8 583.52 723.8 548.02 747.455 c 0,0,0
 512.52 771.11 512.52 771.11 512.52 815.1 c 1,0,0
 514.85 856.77 l 1,0,0
 512.52 856.77 l 1,0,0
 463.22 768.43 463.22 768.43 418.26 741.445 c 0,0,0
 373.3 714.46 373.3 714.46 299.31 714.46 c 0,0,0
 218.35 714.46 218.35 714.46 166.2 767.12 c 0,0,0
 114.05 819.78 114.05 819.78 114.05 901.42 c 0,0,0
 114.05 1013.06 114.05 1013.06 191.69 1074.055 c 0,0,0
 269.33 1135.05 269.33 1135.05 459.68 1138.72 c 2,0,0
 545.16 1139.38 l 1,0,0
 556.48 1195.98 556.48 1195.98 556.48 1208.96 c 0,0,0
 556.48 1277.56 556.48 1277.56 504.63 1277.56 c 0,0,0
 455.35 1277.56 455.35 1277.56 436.07 1261.595 c 0,0,0
 416.79 1245.63 416.79 1245.63 407.47 1216.04 c 1,0,0
 210.34 1236.38 l 1,0,0
 224.31 1309.64 224.31 1309.64 294.625 1359.13 c 0,0,0
 364.94 1408.62 364.94 1408.62 508.3 1408.62 c 0,0,0
 648.66 1408.62 648.66 1408.62 706.47 1366.81 c 0,0,0
 764.28 1325 764.28 1325 764.28 1222.98 c 0,0,0
 764.28 1207.32 764.28 1207.32 760.11 1187.155 c 0,0,0
 755.94 1166.99 755.94 1166.99 750.94 1147.33 c 2,0,0
 701.28 909.07 l 2,0,0
 701.62 899.75 701.62 899.75 700.955 889.255 c 0,0,0
 700.29 878.76 700.29 878.76 696.95 866.09 c 0,0,0
 696.95 831.13 696.95 831.13 751.63 831.13 c 0,0,0
 767.96 831.13 767.96 831.13 790.62 835.79 c 1,0,0
 783.97 735.13 l 1,0,0
 751.31 723.8 751.31 723.8 649.52 723.8 c 0,0,0
334.85 946.83 m 0,0,0
 334.85 893.15 334.85 893.15 358.005 872.665 c 0,0,0
 381.16 852.18 381.16 852.18 410.45 852.18 c 0,0,0
 428.7 852.18 428.7 852.18 445.795 863.645 c 0,0,0
 462.89 875.11 462.89 875.11 477.845 900.565 c 0,0,0
 492.8 926.02 492.8 926.02 505.47 966.99 c 2,0,0
 525.49 1032.35 l 1,0,0
 454.96 1031.69 l 2,0,0
 408.78 1030.36 408.78 1030.36 371.815 1008.56 c 0,0,0
 334.85 986.76 334.85 986.76 334.85 946.83 c 0,0,0
EndSplineSet
EndChar

StartChar: guillemotleft
Encoding: 171 171 109
Width: 1139
GlyphClass: 2
Flags: HW
LayerCount: 2
Fore
SplineSet
942.92 187.38 m 1,0,0
 937.92 137.66 l 1,0,0
 657.68 137.66 l 1,0,0
 515.93 495.98 l 1,0,0
 531.27 572.34 l 1,0,0
 795.98 936.66 l 1,0,0
 1089.25 936.66 l 1,0,0
 1083.25 892.98 l 1,0,0
 808.52 531 l 1,0,0
 942.92 187.38 l 1,0,0
498.32 188.05 m 1,0,0
 493.32 137.66 l 1,0,0
 212.41 137.66 l 1,0,0
 69.32 495.98 l 1,0,0
 84.66 572.34 l 1,0,0
 350.71 936.66 l 1,0,0
 644.65 936.66 l 1,0,0
 638.65 893.65 l 1,0,0
 361.91 531.67 l 1,0,0
 498.32 188.05 l 1,0,0
EndSplineSet
EndChar

StartChar: logicalnot
Encoding: 172 172 110
Width: 1196
GlyphClass: 2
Flags: HW
LayerCount: 2
Fore
SplineSet
1106.69 819.13 m 1,0,0
 1106.69 114.87 l 1,0,0
 829.76 114.87 l 1,0,0
 829.76 542.87 l 1,0,0
 58.25 542.87 l 1,0,0
 58.25 819.13 l 1,0,0
 1106.69 819.13 l 1,0,0
EndSplineSet
EndChar

StartChar: registered
Encoding: 174 174 111
Width: 1509
GlyphClass: 2
Flags: HW
LayerCount: 2
Fore
SplineSet
1507.33 707 m 0,0,0
 1507.33 514 1507.33 514 1411.33 346 c 0,0,0
 1314.33 177 1314.33 177 1145.83 80.5 c 0,0,0
 977.33 -16 977.33 -16 784.33 -16 c 0,0,0
 588.33 -16 588.33 -16 418.33 85 c 0,0,0
 249.33 186 249.33 186 155.33 352 c 0,0,0
 61.33 518 61.33 518 61.33 707 c 0,0,0
 61.33 901 61.33 901 158.33 1068 c 0,0,0
 255.33 1236 255.33 1236 423.33 1333 c 0,0,0
 591.33 1430 591.33 1430 784.33 1430 c 0,0,0
 978.33 1430 978.33 1430 1147.33 1333 c 0,0,0
 1315.33 1236 1315.33 1236 1411.33 1068.5 c 0,0,0
 1507.33 901 1507.33 901 1507.33 707 c 0,0,0
1381.93 707 m 0,0,0
 1381.93 867.65 1381.93 867.65 1301.27 1004.3 c 0,0,0
 1221.28 1140.28 1221.28 1140.28 1082.295 1220.94 c 0,0,0
 943.31 1301.6 943.31 1301.6 784.33 1301.6 c 0,0,0
 634.7 1301.6 634.7 1301.6 498.72 1227.62 c 0,0,0
 362.74 1154.31 362.74 1154.31 276.235 1015.825 c 0,0,0
 189.73 877.34 189.73 877.34 189.73 707 c 0,0,0
 189.73 548.69 189.73 548.69 269.72 408.7 c 0,0,0
 348.71 269.38 348.71 269.38 486.195 188.72 c 0,0,0
 623.68 108.06 623.68 108.06 784.33 108.06 c 0,0,0
 943.64 108.06 943.64 108.06 1082.96 188.05 c 0,0,0
 1222.28 268.71 1222.28 268.71 1302.105 408.365 c 0,0,0
 1381.93 548.02 1381.93 548.02 1381.93 707 c 0,0,0
678.77 599.95 m 1,0,0
 678.77 302.36 l 1,0,0
 466.6 302.36 l 1,0,0
 466.6 1106.64 l 1,0,0
 812.01 1106.64 l 2,0,0
 972.38 1106.64 972.38 1106.64 1048.715 1041.135 c 0,0,0
 1125.05 975.63 1125.05 975.63 1125.05 861.29 c 0,0,0
 1125.05 772.65 1125.05 772.65 1079.73 715.325 c 0,0,0
 1034.41 658 1034.41 658 961.1 628.98 c 1,0,0
 1168.74 302.36 l 1,0,0
 930.22 302.36 l 1,0,0
 766.29 599.95 l 1,0,0
 678.77 599.95 l 1,0,0
909.54 859.29 m 0,0,0
 909.54 908.25 909.54 908.25 878.74 934.23 c 0,0,0
 847.94 960.21 847.94 960.21 786.98 960.21 c 2,0,0
 678.77 960.21 l 1,0,0
 678.77 751.06 l 1,0,0
 797.31 751.06 l 2,0,0
 853.93 751.06 853.93 751.06 881.735 781.87 c 0,0,0
 909.54 812.68 909.54 812.68 909.54 859.29 c 0,0,0
EndSplineSet
EndChar

StartChar: macron
Encoding: 175 175 112
Width: 1131
GlyphClass: 2
Flags: HW
LayerCount: 2
Fore
SplineSet
1148 1496.42 m 1,0,0
 1148 1417.83 l 1,0,0
 -17 1417.83 l 1,0,0
 -17 1496.42 l 1,0,0
 1148 1496.42 l 1,0,0
EndSplineSet
EndChar

StartChar: degree
Encoding: 176 176 113
Width: 819
GlyphClass: 2
Flags: HW
LayerCount: 2
Fore
SplineSet
870.2 1086.55 m 0,0,0
 870.2 994.19 870.2 994.19 824.52 918.335 c 0,0,0
 778.84 842.48 778.84 842.48 701.315 796.965 c 0,0,0
 623.79 751.45 623.79 751.45 526.42 751.45 c 0,0,0
 431.72 751.45 431.72 751.45 354.53 795.46 c 0,0,0
 277.34 839.47 277.34 839.47 230.825 915.66 c 0,0,0
 184.31 991.85 184.31 991.85 184.31 1088.22 c 0,0,0
 184.31 1182.92 184.31 1182.92 230.325 1257.94 c 0,0,0
 276.34 1332.96 276.34 1332.96 354.7 1377.305 c 0,0,0
 433.06 1421.65 433.06 1421.65 526.42 1421.65 c 0,0,0
 623.12 1421.65 623.12 1421.65 700.645 1376.135 c 0,0,0
 778.17 1330.62 778.17 1330.62 824.185 1254.43 c 0,0,0
 870.2 1178.24 870.2 1178.24 870.2 1086.55 c 0,0,0
679.37 1086.55 m 0,0,0
 679.37 1152.53 679.37 1152.53 636.22 1197.85 c 0,0,0
 593.07 1243.17 593.07 1243.17 526.42 1243.17 c 0,0,0
 458.1 1243.17 458.1 1243.17 413.28 1197.685 c 0,0,0
 368.46 1152.2 368.46 1152.2 368.46 1086.55 c 0,0,0
 368.46 1020.9 368.46 1020.9 415.115 973.745 c 0,0,0
 461.77 926.59 461.77 926.59 526.42 926.59 c 0,0,0
 588.73 926.59 588.73 926.59 634.05 973.245 c 0,0,0
 679.37 1019.9 679.37 1019.9 679.37 1086.55 c 0,0,0
EndSplineSet
EndChar

StartChar: plusminus
Encoding: 177 177 114
Width: 1124
GlyphClass: 2
Flags: HW
LayerCount: 2
Fore
SplineSet
762.92 725.09 m 1,0,0
 762.92 420.27 l 1,0,0
 487.33 420.27 l 1,0,0
 487.33 725.09 l 1,0,0
 101.74 725.09 l 1,0,0
 101.74 1000.35 l 1,0,0
 487.33 1000.35 l 1,0,0
 487.33 1304.17 l 1,0,0
 762.92 1304.17 l 1,0,0
 762.92 1000.35 l 1,0,0
 1150.18 1000.35 l 1,0,0
 1150.18 725.09 l 1,0,0
 762.92 725.09 l 1,0,0
1150.18 275.26 m 1,0,0
 1150.18 0 l 1,0,0
 101.74 0 l 1,0,0
 101.74 275.26 l 1,0,0
 1150.18 275.26 l 1,0,0
EndSplineSet
EndChar

StartChar: uni00B2
Encoding: 178 178 115
Width: 682
GlyphClass: 2
Flags: HW
LayerCount: 2
Fore
SplineSet
98.47 785.11 m 1,0,0
 126.49 916.5 l 1,0,0
 153.82 960.16 153.82 960.16 195.49 997.82 c 0,0,0
 219.82 1020.48 219.82 1020.48 252.665 1043.145 c 0,0,0
 285.51 1065.81 285.51 1065.81 320.495 1086.795 c 0,0,0
 355.48 1107.78 355.48 1107.78 387.74 1125.4 c 0,0,0
 388.14 1121.57 388.14 1121.57 424.47 1146.22 c 0,0,0
 467.14 1176.88 467.14 1176.88 483.13 1202.69 c 0,0,0
 499.12 1228.5 499.12 1228.5 499.12 1257.13 c 0,0,0
 499.12 1271.39 499.12 1271.39 485.16 1279.835 c 0,0,0
 471.2 1288.28 471.2 1288.28 456.3 1288.28 c 0,0,0
 429.72 1288.28 429.72 1288.28 415.625 1274.33 c 0,0,0
 401.53 1260.38 401.53 1260.38 389.2 1220.76 c 1,0,0
 202.41 1267.49 l 1,0,0
 234.75 1356.44 234.75 1356.44 296.045 1392.895 c 0,0,0
 357.34 1429.35 357.34 1429.35 478.33 1429.35 c 0,0,0
 590.65 1429.35 590.65 1429.35 652.965 1385.215 c 0,0,0
 715.28 1341.08 715.28 1341.08 715.28 1261.11 c 0,0,0
 715.28 1191.4 715.28 1191.4 684.92 1149.74 c 0,0,0
 652.55 1099.38 652.55 1099.38 605.005 1063.54 c 0,0,0
 557.46 1027.7 557.46 1027.7 499.41 1002.71 c 0,0,0
 477.42 996.41 477.42 996.41 471.675 997.145 c 0,0,0
 465.93 997.88 465.93 997.88 477.1 1006.65 c 0,0,0
 465.27 1002.42 465.27 1002.42 433.975 987.3 c 0,0,0
 402.68 972.18 402.68 972.18 383.36 948.21 c 1,0,0
 666.03 948.21 l 1,0,0
 637.68 785.11 l 1,0,0
 98.47 785.11 l 1,0,0
EndSplineSet
EndChar

StartChar: uni00B3
Encoding: 179 179 116
Width: 682
GlyphClass: 2
Flags: HW
LayerCount: 2
Fore
SplineSet
347.03 1177.59 m 1,0,0
 409.04 1177.59 l 2,0,0
 447.59 1177.59 447.59 1177.59 476.21 1191.535 c 0,0,0
 504.83 1205.48 504.83 1205.48 504.83 1232.39 c 0,0,0
 504.83 1268.7 504.83 1268.7 491.87 1282.665 c 0,0,0
 478.91 1296.63 478.91 1296.63 448.63 1296.63 c 0,0,0
 419.04 1296.63 419.04 1296.63 403.94 1280.835 c 0,0,0
 388.84 1265.04 388.84 1265.04 379.86 1230.1 c 1,0,0
 191.4 1253.43 l 1,0,0
 212.04 1344.73 212.04 1344.73 275.675 1387.04 c 0,0,0
 339.31 1429.35 339.31 1429.35 475.33 1429.35 c 0,0,0
 598.02 1429.35 598.02 1429.35 661.34 1392.89 c 0,0,0
 724.66 1356.43 724.66 1356.43 724.66 1266.43 c 0,0,0
 724.66 1207.49 724.66 1207.49 676.84 1159.84 c 0,0,0
 629.02 1112.19 629.02 1112.19 565.11 1115.24 c 1,0,0
 563.44 1113.24 l 1,0,0
 621.41 1101.91 621.41 1101.91 656.39 1069.44 c 0,0,0
 691.37 1036.97 691.37 1036.97 691.37 977.32 c 0,0,0
 691.37 889.72 691.37 889.72 609.05 834.755 c 0,0,0
 526.73 779.79 526.73 779.79 381.73 779.79 c 0,0,0
 145.78 779.79 145.78 779.79 124.81 952 c 1,0,0
 340.65 983.03 l 1,0,0
 347.98 949.44 347.98 949.44 362.585 932.48 c 0,0,0
 377.19 915.52 377.19 915.52 404.43 915.52 c 0,0,0
 423.63 915.52 423.63 915.52 446.08 929.96 c 0,0,0
 468.53 944.4 468.53 944.4 468.53 978.65 c 0,0,0
 468.53 1014.28 468.53 1014.28 452.085 1027.24 c 0,0,0
 435.64 1040.2 435.64 1040.2 393.71 1040.2 c 2,0,0
 321.02 1040.2 l 1,0,0
 347.03 1177.59 l 1,0,0
EndSplineSet
EndChar

StartChar: acute
Encoding: 180 180 117
Width: 682
GlyphClass: 2
Flags: HW
LayerCount: 2
Fore
SplineSet
866.78 1445.6 m 1,0,0
 489.44 1170.94 l 1,0,0
 308.6 1170.94 l 1,0,0
 316.61 1209.31 l 1,0,0
 559.59 1497.98 l 1,0,0
 876.79 1497.98 l 1,0,0
 866.78 1445.6 l 1,0,0
EndSplineSet
EndChar

StartChar: mu
Encoding: 181 181 118
Width: 1180
GlyphClass: 2
Flags: HW
LayerCount: 2
Fore
SplineSet
341.51 -45.67 m 1,0,0
 269.18 -425 l 1,0,0
 -77.82 -425 l 1,0,0
 211.84 1082 l 1,0,0
 559.84 1082 l 1,0,0
 452.56 531.27 l 2,0,0
 447.56 504.28 447.56 504.28 443.725 470.93 c 0,0,0
 439.89 437.58 439.89 437.58 438.22 400.21 c 0,0,0
 438.22 242.58 438.22 242.58 538.43 242.58 c 0,0,0
 598.66 242.58 598.66 242.58 643.585 312.53 c 0,0,0
 688.51 382.48 688.51 382.48 713.17 525.44 c 2,0,0
 821.15 1082 l 1,0,0
 1169.82 1082 l 1,0,0
 1029.52 358.5 l 2,0,0
 1020.52 310.15 1020.52 310.15 1020.52 304.89 c 0,0,0
 1020.52 237.9 1020.52 237.9 1065.83 237.9 c 0,0,0
 1100.88 237.9 1100.88 237.9 1105.13 244.23 c 1,0,0
 1093.15 8.35 l 1,0,0
 969.05 -20 969.05 -20 861.6 -20 c 0,0,0
 759.53 -20 759.53 -20 716.34 8.145 c 0,0,0
 673.15 36.29 673.15 36.29 676.5 115.3 c 2,0,0
 680.51 160.65 l 1,0,0
 675.17 160.65 l 1,0,0
 647.91 78.34 647.91 78.34 611.325 29.17 c 0,0,0
 574.74 -20 574.74 -20 499.77 -20 c 0,0,0
 442.78 -20 442.78 -20 408.635 6.845 c 0,0,0
 374.49 33.69 374.49 33.69 364.85 77.37 c 1,0,0
 354.83 77.37 l 1,0,0
 341.51 -45.67 l 1,0,0
EndSplineSet
EndChar

StartChar: paragraph
Encoding: 182 182 119
Width: 1165
GlyphClass: 2
Flags: HW
LayerCount: 2
Fore
SplineSet
627.35 1238.53 m 1,0,0
 627.35 -264 l 1,0,0
 444.21 -264 l 1,0,0
 444.21 694 l 1,0,0
 274.54 694 274.54 694 177.54 786.5 c 0,0,0
 80.54 879 80.54 879 80.54 1049 c 0,0,0
 80.54 1218 80.54 1218 179.04 1313.5 c 0,0,0
 277.54 1409 277.54 1409 452.21 1409 c 2,0,0
 1125.43 1409 l 1,0,0
 1125.43 1238.53 l 1,0,0
 993.09 1238.53 l 1,0,0
 993.09 -264 l 1,0,0
 807.61 -264 l 1,0,0
 807.61 1238.53 l 1,0,0
 627.35 1238.53 l 1,0,0
EndSplineSet
EndChar

StartChar: periodcentered
Encoding: 183 183 120
Width: 682
GlyphClass: 2
Flags: HW
LayerCount: 2
Fore
SplineSet
587.59 949.9 m 1,0,0
 517.87 587.95 l 1,0,0
 167.56 587.95 l 1,0,0
 237.28 949.9 l 1,0,0
 587.59 949.9 l 1,0,0
EndSplineSet
EndChar

StartChar: cedilla
Encoding: 184 184 121
Width: 682
GlyphClass: 2
Flags: HW
LayerCount: 2
Fore
SplineSet
424.88 -74.29 m 1,0,0
 487.51 -72.61 487.51 -72.61 533.02 -102.765 c 0,0,0
 578.53 -132.92 578.53 -132.92 578.53 -203.61 c 0,0,0
 578.53 -300.61 578.53 -300.61 488.835 -362.805 c 0,0,0
 399.14 -425 399.14 -425 205.39 -425 c 0,0,0
 180.39 -425 180.39 -425 153.89 -423.5 c 0,0,0
 127.39 -422 127.39 -422 99.39 -419.67 c 1,0,0
 133.75 -285.25 l 1,0,0
 166.72 -292.92 166.72 -292.92 211.73 -292.92 c 0,0,0
 286.03 -292.92 286.03 -292.92 322.695 -278.435 c 0,0,0
 359.36 -263.95 359.36 -263.95 359.36 -223.96 c 0,0,0
 359.36 -166.99 359.36 -166.99 255.39 -166.99 c 0,0,0
 248.42 -168.66 248.42 -168.66 236.425 -168.325 c 0,0,0
 224.43 -167.99 224.43 -167.99 205.74 -168.99 c 1,0,0
 301.73 0 l 1,0,0
 465.51 0 l 1,0,0
 424.88 -74.29 l 1,0,0
EndSplineSet
EndChar

StartChar: uni00B9
Encoding: 185 185 122
Width: 682
GlyphClass: 2
Flags: HW
LayerCount: 2
Fore
SplineSet
669.73 910.48 m 1,0,0
 645.39 780.1 l 1,0,0
 122.79 780.1 l 1,0,0
 147.8 910.48 l 1,0,0
 313.71 910.48 l 1,0,0
 386.62 1284.01 l 1,0,0
 216.07 1196.11 l 1,0,0
 238.73 1312.08 l 1,0,0
 417.28 1415.68 l 1,0,0
 627.12 1415.68 l 1,0,0
 529.88 910.48 l 1,0,0
 669.73 910.48 l 1,0,0
EndSplineSet
EndChar

StartChar: ordmasculine
Encoding: 186 186 123
Width: 748
GlyphClass: 2
Flags: HW
LayerCount: 2
Fore
SplineSet
413.02 714.46 m 0,0,0
 273.03 714.46 273.03 714.46 187.85 792.96 c 0,0,0
 102.67 871.46 102.67 871.46 102.67 1000.1 c 0,0,0
 102.67 1065.44 102.67 1065.44 117.34 1123.09 c 0,0,0
 149.67 1244.98 149.67 1244.98 258.685 1326.8 c 0,0,0
 367.7 1408.62 367.7 1408.62 511.65 1408.62 c 0,0,0
 670.01 1408.62 670.01 1408.62 751.015 1338.47 c 0,0,0
 832.02 1268.32 832.02 1268.32 832.02 1148.03 c 0,0,0
 832.02 1091.04 832.02 1091.04 824.03 1053.43 c 0,0,0
 798.38 909.83 798.38 909.83 682.685 812.145 c 0,0,0
 566.99 714.46 566.99 714.46 413.02 714.46 c 0,0,0
492.96 1249.85 m 0,0,0
 430.69 1249.85 430.69 1249.85 392.39 1202.85 c 0,0,0
 373.09 1180.87 373.09 1180.87 362.12 1156.605 c 0,0,0
 351.15 1132.34 351.15 1132.34 348.005 1100.075 c 0,0,0
 344.86 1067.81 344.86 1067.81 344.86 1019.83 c 0,0,0
 344.86 871.56 344.86 871.56 443.07 871.56 c 0,0,0
 493.74 871.56 493.74 871.56 512.035 884.06 c 0,0,0
 530.33 896.56 530.33 896.56 546.64 919.89 c 0,0,0
 560.26 942.87 560.26 942.87 570.395 978.32 c 0,0,0
 580.53 1013.77 580.53 1013.77 585.01 1049.705 c 0,0,0
 589.49 1085.64 589.49 1085.64 589.49 1110.58 c 0,0,0
 589.49 1169.51 589.49 1169.51 566.03 1209.68 c 0,0,0
 542.57 1249.85 542.57 1249.85 492.96 1249.85 c 0,0,0
EndSplineSet
EndChar

StartChar: guillemotright
Encoding: 187 187 124
Width: 1139
GlyphClass: 2
Flags: HW
LayerCount: 2
Fore
SplineSet
1064.03 506 m 1,0,0
 798.65 137.66 l 1,0,0
 505.38 137.66 l 1,0,0
 510.71 180 l 1,0,0
 785.44 545.33 l 1,0,0
 648.36 885.6 l 1,0,0
 654.03 936.66 l 1,0,0
 936.95 936.66 l 1,0,0
 1079.37 582.36 l 1,0,0
 1064.03 506 l 1,0,0
619.43 506 m 1,0,0
 352.04 137.66 l 1,0,0
 60.11 137.66 l 1,0,0
 65.44 180 l 1,0,0
 340.17 545.33 l 1,0,0
 203.09 885.6 l 1,0,0
 208.76 936.66 l 1,0,0
 490.34 936.66 l 1,0,0
 634.77 582.36 l 1,0,0
 619.43 506 l 1,0,0
EndSplineSet
EndChar

StartChar: questiondown
Encoding: 191 191 128
Width: 1251
GlyphClass: 2
Flags: HW
LayerCount: 2
Fore
SplineSet
944.09 1081.33 m 1,0,0
 883.38 765.1 l 1,0,0
 531.4 765.1 l 1,0,0
 592.11 1081.33 l 1,0,0
 944.09 1081.33 l 1,0,0
485.31 -348.67 m 0,0,0
 335.94 -348.67 335.94 -348.67 226.75 -308.18 c 0,0,0
 117.56 -267.69 117.56 -267.69 58.715 -189.195 c 0,0,0
 -0.13 -110.7 -0.13 -110.7 -0.13 4.99 c 0,0,0
 -0.13 15.15 -0.13 15.15 -4.7 36.89 c 0,0,0
 -9.27 58.63 -9.27 58.63 -10.37 82.91 c 0,0,0
 9.94 140.29 9.94 140.29 46.27 191.17 c 0,0,0
 82.6 242.05 82.6 242.05 161.51 301.12 c 0,0,0
 240.42 360.19 240.42 360.19 387.3 442.31 c 1,0,0
 414.23 465.62 414.23 465.62 432.85 479.085 c 0,0,0
 451.47 492.55 451.47 492.55 454.42 495.5 c 0,0,0
 480.08 518.15 480.08 518.15 497.92 548.315 c 0,0,0
 515.76 578.48 515.76 578.48 519.42 622.5 c 1,0,0
 848.06 622.5 l 1,0,0
 834.06 548.18 834.06 548.18 805.07 491.85 c 0,0,0
 787.08 455.19 787.08 455.19 760.92 422.19 c 0,0,0
 734.76 389.19 734.76 389.19 692.11 354.36 c 0,0,0
 649.46 319.53 649.46 319.53 577.83 271.87 c 0,0,0
 497.44 219.49 497.44 219.49 446.915 181.465 c 0,0,0
 396.39 143.44 396.39 143.44 366.71 106.74 c 0,0,0
 352.44 83.11 352.44 83.11 349.815 64.17 c 0,0,0
 347.19 45.23 347.19 45.23 347.19 24.32 c 0,0,0
 347.19 -15.23 347.19 -15.23 378.44 -44.335 c 0,0,0
 409.69 -73.44 409.69 -73.44 500.64 -73.44 c 0,0,0
 595.55 -73.44 595.55 -73.44 651.48 -40.18 c 0,0,0
 707.41 -6.92 707.41 -6.92 725.37 73.33 c 1,0,0
 1059.04 33.33 l 1,0,0
 1004.39 -154.99 1004.39 -154.99 860.54 -251.83 c 0,0,0
 716.69 -348.67 716.69 -348.67 485.31 -348.67 c 0,0,0
EndSplineSet
EndChar

StartChar: AE
Encoding: 198 198 135
Width: 2048
GlyphClass: 2
Flags: HW
LayerCount: 2
Fore
SplineSet
494.52 325.16 m 1,0,0
 277.31 0 l 1,0,0
 -107.72 0 l 1,0,0
 861.3 1409 l 1,0,0
 2120.44 1409 l 1,0,0
 2065.39 1134.43 l 1,0,0
 1389.85 1134.43 l 1,0,0
 1333.58 844.42 l 1,0,0
 1945.78 844.42 l 1,0,0
 1894.07 578.53 l 1,0,0
 1281.87 578.53 l 1,0,0
 1223.61 274.57 l 1,0,0
 1940.15 274.57 l 1,0,0
 1887.44 0 l 1,0,0
 819.58 0 l 1,0,0
 882.21 325.16 l 1,0,0
 494.52 325.16 l 1,0,0
670.34 596.07 m 1,0,0
 934.59 596.07 l 1,0,0
 1040.53 1145.1 l 1,0,0
 1039.83 1145.1 l 1,0,0
 903.83 940.79 l 1,0,0
 670.34 596.07 l 1,0,0
EndSplineSet
EndChar

StartChar: Eth
Encoding: 208 208 145
Width: 1479
GlyphClass: 2
Flags: HW
LayerCount: 2
Fore
SplineSet
713.9 1409 m 2,0,0
 945.28 1409 945.28 1409 1101.125 1342.85 c 0,0,0
 1256.97 1276.7 1256.97 1276.7 1334.965 1145.38 c 0,0,0
 1412.96 1014.06 1412.96 1014.06 1412.96 817.72 c 0,0,0
 1412.96 581.38 1412.96 581.38 1313.29 397.37 c 0,0,0
 1214.29 214.36 1214.29 214.36 1027.965 107.18 c 0,0,0
 841.64 0 841.64 0 615.34 0 c 2,0,0
 17.91 0 l 1,0,0
 126.21 558.49 l 1,0,0
 15.63 558.49 l 1,0,0
 65.67 821.04 l 1,0,0
 177.92 821.04 l 1,0,0
 292.58 1409 l 1,0,0
 713.9 1409 l 2,0,0
436.64 278.25 m 1,0,0
 617.06 278.25 l 2,0,0
 752.94 278.25 752.94 278.25 860.86 341.22 c 0,0,0
 966.44 403.19 966.44 403.19 1024.23 521.135 c 0,0,0
 1082.02 639.08 1082.02 639.08 1082.02 794.67 c 0,0,0
 1082.02 963.57 1082.02 963.57 990.255 1047.16 c 0,0,0
 898.49 1130.75 898.49 1130.75 719.92 1130.75 c 2,0,0
 601.54 1130.75 l 1,0,0
 540.93 821.04 l 1,0,0
 865.1 821.04 l 1,0,0
 811.72 558.49 l 1,0,0
 490.89 558.49 l 1,0,0
 436.64 278.25 l 1,0,0
EndSplineSet
EndChar

StartChar: multiply
Encoding: 215 215 152
Width: 1196
GlyphClass: 2
Flags: HW
LayerCount: 2
Fore
SplineSet
646.7 489.82 m 1,0,0
 290.7 129.81 l 1,0,0
 95.18 323.32 l 1,0,0
 452.52 684 l 1,0,0
 100.52 1036 l 1,0,0
 294.7 1227.51 l 1,0,0
 648.04 879.52 l 1,0,0
 1001.38 1232.19 l 1,0,0
 1194.89 1038.68 l 1,0,0
 841.55 680.66 l 1,0,0
 1193.55 332 l 1,0,0
 998.03 135.15 l 1,0,0
 646.7 489.82 l 1,0,0
EndSplineSet
EndChar

StartChar: Oslash
Encoding: 216 216 153
Width: 1593
GlyphClass: 2
Flags: HW
LayerCount: 2
Fore
SplineSet
1443.04 1241.74 m 1,0,0
 1581.11 1091.73 1581.11 1091.73 1581.11 851 c 0,0,0
 1583.79 616.73 1583.79 616.73 1480.8 409.71 c 0,0,0
 1375.47 200.35 1375.47 200.35 1184.46 90.175 c 0,0,0
 993.45 -20 993.45 -20 745.76 -20 c 0,0,0
 544.53 -20 544.53 -20 399.21 48.89 c 1,0,0
 315.03 -53 l 1,0,0
 95.97 -53 l 1,0,0
 264.12 144.22 l 1,0,0
 99.33 308.92 99.33 308.92 99.33 573 c 0,0,0
 99.33 806.32 99.33 806.32 205.33 1011.33 c 0,0,0
 310.33 1216.34 310.33 1216.34 495.99 1323.17 c 0,0,0
 681.65 1430 681.65 1430 928 1430 c 0,0,0
 1155.29 1430 1155.29 1430 1318.64 1341.41 c 1,0,0
 1425.52 1466 l 1,0,0
 1635.89 1466 l 1,0,0
 1443.04 1241.74 l 1,0,0
910.65 1144.07 m 0,0,0
 773.44 1144.07 773.44 1144.07 676.86 1078.45 c 0,0,0
 612.25 1034.48 612.25 1034.48 566.62 959.365 c 0,0,0
 520.99 884.25 520.99 884.25 496.675 789.97 c 0,0,0
 472.36 695.69 472.36 695.69 472.36 593.06 c 0,0,0
 472.36 483.45 472.36 483.45 506.67 410.49 c 1,0,0
 1091.1 1090.15 l 1,0,0
 1020.51 1144.07 1020.51 1144.07 910.65 1144.07 c 0,0,0
1201.4 813.6 m 0,0,0
 1201.4 889.15 1201.4 889.15 1183.79 953.76 c 1,0,0
 617.73 289.46 l 1,0,0
 679.98 263.59 679.98 263.59 763.11 263.59 c 0,0,0
 899.99 263.59 899.99 263.59 997.24 330.55 c 0,0,0
 1062.52 375.19 1062.52 375.19 1108.315 450.145 c 0,0,0
 1154.11 525.1 1154.11 525.1 1177.755 618.71 c 0,0,0
 1201.4 712.32 1201.4 712.32 1201.4 813.6 c 0,0,0
EndSplineSet
EndChar

StartChar: Thorn
Encoding: 222 222 159
Width: 1366
GlyphClass: 2
Flags: HW
LayerCount: 2
Fore
SplineSet
430.9 253.58 m 1,0,0
 382.59 0 l 1,0,0
 17.91 0 l 1,0,0
 291.91 1409 l 1,0,0
 656.59 1409 l 1,0,0
 615.94 1202.09 l 1,0,0
 807.67 1202.09 l 2,0,0
 1059.7 1202.09 1059.7 1202.09 1199.215 1083.39 c 0,0,0
 1338.73 964.69 1338.73 964.69 1338.73 757.98 c 0,0,0
 1338.73 605.3 1338.73 605.3 1268.895 491.785 c 0,0,0
 1199.06 378.27 1199.06 378.27 1073.23 315.925 c 0,0,0
 947.4 253.58 947.4 253.58 778.08 253.58 c 2,0,0
 430.9 253.58 l 1,0,0
484.28 531.5 m 1,0,0
 707.62 531.5 l 2,0,0
 838.5 531.5 838.5 531.5 903.94 576.1 c 0,0,0
 969.38 620.7 969.38 620.7 969.38 737.29 c 0,0,0
 969.38 827.9 969.38 827.9 915.43 875.035 c 0,0,0
 861.48 922.17 861.48 922.17 764.26 922.17 c 2,0,0
 560.55 922.17 l 1,0,0
 484.28 531.5 l 1,0,0
EndSplineSet
EndChar

StartChar: germandbls
Encoding: 223 223 160
Width: 1251
GlyphClass: 2
Flags: HW
LayerCount: 2
Fore
SplineSet
1171.43 369.79 m 0,0,0
 1171.43 197.43 1171.43 197.43 1059.255 91.73 c 0,0,0
 947.08 -13.97 947.08 -13.97 772.45 -13.97 c 0,0,0
 661.4 -13.97 661.4 -13.97 581.57 -0.475 c 0,0,0
 501.74 13.02 501.74 13.02 435.37 44.37 c 1,0,0
 511.41 259.18 l 1,0,0
 602.81 217.15 602.81 217.15 641.765 208.66 c 0,0,0
 680.72 200.17 680.72 200.17 720.67 200.17 c 0,0,0
 780.57 200.17 780.57 200.17 810.345 237.145 c 0,0,0
 840.12 274.12 840.12 274.12 840.12 333.39 c 0,0,0
 840.12 381.04 840.12 381.04 814.8 412.5 c 0,0,0
 789.48 443.96 789.48 443.96 728.84 482.24 c 0,0,0
 670.87 516.85 670.87 516.85 643.715 567.01 c 0,0,0
 616.56 617.17 616.56 617.17 616.56 692.54 c 0,0,0
 616.56 755.18 616.56 755.18 648.38 808.005 c 0,0,0
 680.2 860.83 680.2 860.83 759.54 927.54 c 0,0,0
 834.86 993.91 834.86 993.91 868.19 1045.925 c 0,0,0
 901.52 1097.94 901.52 1097.94 901.52 1155.94 c 0,0,0
 901.52 1198.22 901.52 1198.22 880.765 1218.84 c 0,0,0
 860.01 1239.46 860.01 1239.46 811.45 1239.46 c 0,0,0
 714.88 1239.46 714.88 1239.46 658.765 1185.845 c 0,0,0
 602.65 1132.23 602.65 1132.23 580.67 1021 c 2,0,0
 384.34 0 l 1,0,0
 35.67 0 l 1,0,0
 235.67 1027 l 2,0,0
 287.68 1264 287.68 1264 431.54 1374 c 0,0,0
 575.4 1484 575.4 1484 820.45 1484 c 0,0,0
 1004.13 1484 1004.13 1484 1107.29 1409.68 c 0,0,0
 1210.45 1335.36 1210.45 1335.36 1210.45 1196 c 0,0,0
 1210.45 1021.62 1210.45 1021.62 1075.49 913.28 c 0,0,0
 991.85 844.94 991.85 844.94 967.19 817.28 c 0,0,0
 938.86 784.61 938.86 784.61 938.86 746.94 c 0,0,0
 938.86 690.91 938.86 690.91 1001.59 639.89 c 0,0,0
 1014.25 632.92 1014.25 632.92 1027.89 626.965 c 0,0,0
 1041.53 621.01 1041.53 621.01 1054.81 615.74 c 0,0,0
 1171.43 546.53 1171.43 546.53 1171.43 369.79 c 0,0,0
EndSplineSet
EndChar

StartChar: ae
Encoding: 230 230 167
Width: 1821
GlyphClass: 2
Flags: HW
LayerCount: 2
Fore
SplineSet
1052.46 457.91 m 1,0,0
 1044.79 422.24 1044.79 422.24 1046.8 384.99 c 0,0,0
 1046.8 297.08 1046.8 297.08 1083.25 250.295 c 0,0,0
 1119.7 203.51 1119.7 203.51 1190.6 203.51 c 0,0,0
 1255.89 203.51 1255.89 203.51 1297.165 243.165 c 0,0,0
 1338.44 282.82 1338.44 282.82 1364.07 365.81 c 1,0,0
 1680.76 284.44 l 1,0,0
 1603.08 107.35 1603.08 107.35 1488.73 43.675 c 0,0,0
 1374.38 -20 1374.38 -20 1173.61 -20 c 0,0,0
 1027.62 -20 1027.62 -20 926.775 24.95 c 0,0,0
 825.93 69.9 825.93 69.9 767.55 166.17 c 1,0,0
 741.01 116.66 741.01 116.66 714.18 84.73 c 0,0,0
 651.18 29.36 651.18 29.36 574.665 4.68 c 0,0,0
 498.15 -20 498.15 -20 350.34 -20 c 0,0,0
 216.93 -20 216.93 -20 129.23 58.08 c 0,0,0
 90.63 99.42 90.63 99.42 69.665 154.56 c 0,0,0
 48.7 209.7 48.7 209.7 48.7 278 c 0,0,0
 48.7 473.02 48.7 473.02 183.365 569.19 c 0,0,0
 318.03 665.36 318.03 665.36 570.94 662.01 c 2,0,0
 730.45 660 l 1,0,0
 752.79 755 752.79 755 752.79 793.68 c 0,0,0
 752.79 888.18 752.79 888.18 680.06 888.18 c 0,0,0
 606.16 888.18 606.16 888.18 571.885 855.365 c 0,0,0
 537.61 822.55 537.61 822.55 528.65 766.28 c 1,0,0
 208.7 798.62 l 1,0,0
 233.99 940.61 233.99 940.61 356.17 1021.305 c 0,0,0
 478.35 1102 478.35 1102 678.36 1102 c 0,0,0
 875.98 1102 875.98 1102 961.61 1019.15 c 1,0,0
 1111.66 1102 1111.66 1102 1301.6 1102 c 0,0,0
 1519.98 1102 1519.98 1102 1637.165 992.155 c 0,0,0
 1754.35 882.31 1754.35 882.31 1754.35 679.61 c 0,0,0
 1754.35 629.94 1754.35 629.94 1749.355 580.965 c 0,0,0
 1744.36 531.99 1744.36 531.99 1729.68 457.91 c 1,0,0
 1052.46 457.91 l 1,0,0
1091.49 677.74 m 1,0,0
 1442.76 677.74 l 1,0,0
 1445.09 723.02 l 1,0,0
 1445.09 818.63 1445.09 818.63 1401.955 856.24 c 0,0,0
 1358.82 893.85 1358.82 893.85 1299.59 893.85 c 0,0,0
 1221.68 893.85 1221.68 893.85 1168.575 839.745 c 0,0,0
 1115.47 785.64 1115.47 785.64 1091.49 677.74 c 1,0,0
420.06 351.13 m 0,0,0
 420.06 282.48 420.06 282.48 446.52 249.005 c 0,0,0
 472.98 215.53 472.98 215.53 529.27 215.53 c 0,0,0
 576.16 215.53 576.16 215.53 621.08 263.87 c 0,0,0
 630.26 286.16 630.26 286.16 642.17 315.065 c 0,0,0
 654.08 343.97 654.08 343.97 670.08 388.22 c 2,0,0
 695.43 477.22 l 1,0,0
 564.58 479.9 l 2,0,0
 495.74 483.25 495.74 483.25 447.8 440.55 c 0,0,0
 420.06 400.91 420.06 400.91 420.06 351.13 c 0,0,0
EndSplineSet
EndChar

StartChar: eth
Encoding: 240 240 177
Width: 1326
GlyphClass: 2
Flags: HW
LayerCount: 2
Fore
SplineSet
685.12 1289.59 m 1,0,0
 545.7 1428.02 545.7 1428.02 445.03 1484 c 1,0,0
 816.42 1484 l 1,0,0
 851.08 1465 851.08 1465 884.235 1442.84 c 0,0,0
 917.39 1420.68 917.39 1420.68 947.37 1395.36 c 1,0,0
 1263.81 1509.05 l 1,0,0
 1223.1 1287.49 l 1,0,0
 1094.18 1242.2 l 1,0,0
 1174.44 1129.92 1174.44 1129.92 1212.75 1008.455 c 0,0,0
 1251.06 886.99 1251.06 886.99 1251.06 728 c 0,0,0
 1251.06 523.68 1251.06 523.68 1192.07 382.09 c 0,0,0
 1116.38 194.41 1116.38 194.41 947.45 85.53 c 0,0,0
 778.52 -23.35 778.52 -23.35 551.12 -23.35 c 0,0,0
 318.72 -23.35 318.72 -23.35 185.345 93.825 c 0,0,0
 51.97 211 51.97 211 51.97 414.69 c 0,0,0
 51.97 645.5 51.97 645.5 172.08 784.5 c 0,0,0
 252.11 873.07 252.11 873.07 384.64 926.035 c 0,0,0
 517.17 979 517.17 979 678.48 979 c 0,0,0
 727.42 979 727.42 979 790.735 967.87 c 0,0,0
 854.05 956.74 854.05 956.74 892.39 944.14 c 1,0,0
 878.4 985.33 878.4 985.33 856.445 1029.89 c 0,0,0
 834.49 1074.45 834.49 1074.45 794.86 1133.77 c 1,0,0
 515.18 1024.11 l 1,0,0
 556.22 1242.64 l 1,0,0
 685.12 1289.59 l 1,0,0
694.85 747.47 m 0,0,0
 617.6 747.47 617.6 747.47 547.28 696.48 c 0,0,0
 508.97 667.83 508.97 667.83 479.815 628.385 c 0,0,0
 450.66 588.94 450.66 588.94 435.165 533.82 c 0,0,0
 419.67 478.7 419.67 478.7 419.67 399.69 c 0,0,0
 419.67 316.45 419.67 316.45 469.31 262.315 c 0,0,0
 518.95 208.18 518.95 208.18 595.87 208.18 c 0,0,0
 620.56 208.18 620.56 208.18 682.84 211.91 c 0,0,0
 742.9 243.88 742.9 243.88 786.11 295.18 c 0,0,0
 829.32 346.48 829.32 346.48 851.675 419.485 c 0,0,0
 874.03 492.49 874.03 492.49 874.03 586.57 c 0,0,0
 874.03 653.93 874.03 653.93 847.04 692.24 c 0,0,0
 829.07 721.2 829.07 721.2 792.615 734.335 c 0,0,0
 756.16 747.47 756.16 747.47 694.85 747.47 c 0,0,0
EndSplineSet
EndChar

StartChar: divide
Encoding: 247 247 184
Width: 1124
GlyphClass: 2
Flags: HW
LayerCount: 2
Fore
SplineSet
724.79 1229.51 m 1,0,0
 724.79 963.01 l 1,0,0
 439.89 963.01 l 1,0,0
 439.89 1229.51 l 1,0,0
 724.79 1229.51 l 1,0,0
1108.73 819.13 m 1,0,0
 1108.73 542.87 l 1,0,0
 60.29 542.87 l 1,0,0
 60.29 819.13 l 1,0,0
 1108.73 819.13 l 1,0,0
724.79 400.99 m 1,0,0
 724.79 134.49 l 1,0,0
 439.89 134.49 l 1,0,0
 439.89 400.99 l 1,0,0
 724.79 400.99 l 1,0,0
EndSplineSet
EndChar

StartChar: oslash
Encoding: 248 248 185
Width: 1251
GlyphClass: 2
Flags: HW
LayerCount: 2
Fore
SplineSet
154.24 93.23 m 1,0,0
 21.46 212.25 21.46 212.25 21.46 419 c 0,0,0
 18.11 615.98 18.11 615.98 105.48 770.98 c 0,0,0
 192.18 923.97 192.18 923.97 353.755 1012.485 c 0,0,0
 515.33 1101 515.33 1101 706.68 1101 c 0,0,0
 863 1101 863 1101 983.7 1055.71 c 1,0,0
 1037 1116 l 1,0,0
 1240.74 1116 l 1,0,0
 1114.78 968.71 l 1,0,0
 1220.51 863.04 1220.51 863.04 1220.51 683 c 0,0,0
 1220.51 406.99 1220.51 406.99 1102.66 213.16 c 0,0,0
 1002.57 105.76 1002.57 105.76 846.035 41.205 c 0,0,0
 689.5 -23.35 689.5 -23.35 525.62 -23.35 c 0,0,0
 396.67 -23.35 396.67 -23.35 291 10.91 c 1,0,0
 247.74 -38 l 1,0,0
 40.66 -38 l 1,0,0
 154.24 93.23 l 1,0,0
390.16 441.05 m 0,0,0
 390.16 411.47 390.16 411.47 393.47 370.83 c 1,0,0
 791.52 830.83 l 1,0,0
 750.9 868.8 750.9 868.8 672.95 868.8 c 0,0,0
 574.69 868.8 574.69 868.8 515.4 814.83 c 0,0,0
 476.43 778.85 476.43 778.85 447.95 716.72 c 0,0,0
 419.47 654.59 419.47 654.59 404.815 581.8 c 0,0,0
 390.16 509.01 390.16 509.01 390.16 441.05 c 0,0,0
854.15 647.93 m 0,0,0
 854.15 663.5 854.15 663.5 856.85 669.74 c 1,0,0
 477.17 228.11 l 1,0,0
 517.46 208.18 517.46 208.18 570.02 208.18 c 0,0,0
 665.27 208.18 665.27 208.18 723.9 258.48 c 0,0,0
 780.86 307.78 780.86 307.78 813.67 409.045 c 0,0,0
 846.48 510.31 846.48 510.31 854.15 647.93 c 0,0,0
EndSplineSet
EndChar

StartChar: thorn
Encoding: 254 254 191
Width: 1326
GlyphClass: 2
Flags: HW
LayerCount: 2
Fore
SplineSet
734.36 -20 m 0,0,0
 608.02 -20 608.02 -20 529.685 32 c 0,0,0
 451.35 84 451.35 84 419.35 178 c 1,0,0
 419.36 178 l 1,0,0
 414.69 158.01 414.69 158.01 412.025 137.185 c 0,0,0
 409.36 116.36 409.36 116.36 405.36 95.37 c 0,0,0
 401.36 66.35 401.36 66.35 396.19 39.67 c 0,0,0
 391.02 12.99 391.02 12.99 385.35 -15.36 c 2,0,0
 305.02 -425 l 1,0,0
 -42.65 -425 l 1,0,0
 325.01 1484 l 1,0,0
 673.68 1484 l 1,0,0
 590.68 1054.32 l 2,0,0
 578.33 992.91 578.33 992.91 569.83 956.24 c 0,0,0
 561.33 919.57 561.33 919.57 556.68 907.64 c 1,0,0
 564.02 907.64 l 1,0,0
 635.35 1010.99 635.35 1010.99 718.855 1056.495 c 0,0,0
 802.36 1102 802.36 1102 919.69 1102 c 0,0,0
 1080.03 1102 1080.03 1102 1170.035 1007.5 c 0,0,0
 1260.04 913 1260.04 913 1260.04 748 c 0,0,0
 1260.04 549.01 1260.04 549.01 1197.37 355 c 0,0,0
 1134.7 161.66 1134.7 161.66 1021.865 70.83 c 0,0,0
 909.03 -20 909.03 -20 734.36 -20 c 0,0,0
754.13 869.48 m 0,0,0
 639.95 869.48 639.95 869.48 570.34 777.62 c 0,0,0
 542.34 736.63 542.34 736.63 520.505 681.31 c 0,0,0
 498.67 625.99 498.67 625.99 484.67 545.96 c 0,0,0
 470.35 451.97 470.35 451.97 470.35 417.08 c 0,0,0
 470.35 322.14 470.35 322.14 516.315 267.67 c 0,0,0
 562.28 213.2 562.28 213.2 645.22 213.2 c 0,0,0
 734.15 213.2 734.15 213.2 782.77 269.16 c 0,0,0
 808.75 297.14 808.75 297.14 828.9 345.945 c 0,0,0
 849.05 394.75 849.05 394.75 863.205 452.715 c 0,0,0
 877.36 510.68 877.36 510.68 884.52 570.315 c 0,0,0
 891.68 629.95 891.68 629.95 891.68 679.26 c 0,0,0
 891.68 773.87 891.68 773.87 858.875 821.675 c 0,0,0
 826.07 869.48 826.07 869.48 754.13 869.48 c 0,0,0
EndSplineSet
EndChar

StartChar: dcroat
Encoding: 273 273 210
Width: 1326
GlyphClass: 2
Flags: HW
LayerCount: 2
Fore
SplineSet
385.97 -21 m 0,0,0
 233.98 -21 233.98 -21 142.305 79.345 c 0,0,0
 50.63 179.69 50.63 179.69 50.63 344.69 c 0,0,0
 50.63 513.29 50.63 513.29 114.3 680.24 c 0,0,0
 177.97 846.19 177.97 846.19 294.815 940.195 c 0,0,0
 411.66 1034.2 411.66 1034.2 559.61 1034.2 c 0,0,0
 689.29 1034.2 689.29 1034.2 770.965 988.045 c 0,0,0
 852.64 941.89 852.64 941.89 879.63 849.56 c 1,0,0
 886.3 849.56 l 1,0,0
 884.28 858.83 884.28 858.83 889.775 906.675 c 0,0,0
 895.27 954.52 895.27 954.52 913.96 1042.28 c 2,0,0
 938.29 1154.23 l 1,0,0
 656.66 1154.23 l 1,0,0
 695.02 1350.36 l 1,0,0
 978.32 1350.36 l 1,0,0
 1005.65 1484 l 1,0,0
 1347.64 1484 l 1,0,0
 1321.98 1350.36 l 1,0,0
 1453.98 1350.36 l 1,0,0
 1415.62 1154.23 l 1,0,0
 1285.29 1154.23 l 1,0,0
 1115 236.36 l 2,0,0
 1107.68 189.74 1107.68 189.74 1102.355 130.4 c 0,0,0
 1097.03 71.06 1097.03 71.06 1092.03 0 c 1,0,0
 738 0 l 1,0,0
 738 71.04 738 71.04 748.98 160 c 1,0,0
 744.98 160 l 1,0,0
 675.32 68.34 675.32 68.34 591.815 23.67 c 0,0,0
 508.31 -21 508.31 -21 385.97 -21 c 0,0,0
556.54 208.18 m 0,0,0
 604.92 208.18 604.92 208.18 655.16 204.18 c 0,0,0
 709.87 238.14 709.87 238.14 748.4 307.63 c 0,0,0
 786.93 377.12 786.93 377.12 807.78 462.635 c 0,0,0
 828.63 548.15 828.63 548.15 828.63 623.84 c 0,0,0
 828.63 732.14 828.63 732.14 792.685 771.58 c 0,0,0
 756.74 811.02 756.74 811.02 675.47 811.02 c 0,0,0
 595.22 811.02 595.22 811.02 535.91 752.38 c 0,0,0
 497.26 712.73 497.26 712.73 471.78 652.295 c 0,0,0
 446.3 591.86 446.3 591.86 433.48 523.935 c 0,0,0
 420.66 456.01 420.66 456.01 420.66 393.39 c 0,0,0
 420.66 300.45 420.66 300.45 455.97 254.315 c 0,0,0
 491.28 208.18 491.28 208.18 556.54 208.18 c 0,0,0
EndSplineSet
EndChar

StartChar: Hbar
Encoding: 294 294 231
Width: 1479
GlyphClass: 2
Flags: HW
LayerCount: 2
Fore
SplineSet
494.23 571.17 m 1,0,0
 381.59 0 l 1,0,0
 18.58 0 l 1,0,0
 222.59 1058.4 l 1,0,0
 120.36 1058.4 l 1,0,0
 155.37 1239.12 l 1,0,0
 257.6 1239.12 l 1,0,0
 291.58 1409 l 1,0,0
 656.26 1409 l 1,0,0
 622.28 1239.12 l 1,0,0
 1153.81 1239.12 l 1,0,0
 1187.79 1409 l 1,0,0
 1537.45 1409 l 1,0,0
 1503.47 1239.12 l 1,0,0
 1606.37 1239.12 l 1,0,0
 1571.36 1058.4 l 1,0,0
 1468.46 1058.4 l 1,0,0
 1262.78 0 l 1,0,0
 913.12 0 l 1,0,0
 1025.76 571.17 l 1,0,0
 494.23 571.17 l 1,0,0
551.28 871.45 m 1,0,0
 1082.81 871.45 l 1,0,0
 1118.8 1058.4 l 1,0,0
 587.27 1058.4 l 1,0,0
 551.28 871.45 l 1,0,0
EndSplineSet
EndChar

StartChar: hbar
Encoding: 295 295 232
Width: 1326
GlyphClass: 2
Flags: HW
LayerCount: 2
Fore
SplineSet
547.01 857 m 1,0,0
 616.65 953.63 616.65 953.63 711.84 1007.315 c 0,0,0
 807.03 1061 807.03 1061 925.37 1061 c 0,0,0
 1080.05 1061 1080.05 1061 1158.725 988 c 0,0,0
 1237.4 915 1237.4 915 1237.4 777 c 0,0,0
 1237.4 756.69 1237.4 756.69 1229.06 693.145 c 0,0,0
 1220.72 629.6 1220.72 629.6 1216.4 613 c 2,0,0
 1097.4 0 l 1,0,0
 752.74 0 l 1,0,0
 857.38 521.5 l 2,0,0
 888.74 673.96 888.74 673.96 888.74 696.55 c 0,0,0
 888.74 800.09 888.74 800.09 754.83 800.09 c 0,0,0
 699.22 800.09 699.22 800.09 642.75 766.61 c 0,0,0
 586.28 733.13 586.28 733.13 546.635 679.515 c 0,0,0
 506.99 625.9 506.99 625.9 496.68 566 c 2,0,0
 386.68 0 l 1,0,0
 35.67 0 l 1,0,0
 256.31 1154.23 l 1,0,0
 115.29 1154.23 l 1,0,0
 153.65 1350.36 l 1,0,0
 294.67 1350.36 l 1,0,0
 320.33 1484 l 1,0,0
 667.33 1484 l 1,0,0
 641.67 1350.36 l 1,0,0
 962.71 1350.36 l 1,0,0
 924.35 1154.23 l 1,0,0
 601.64 1154.23 l 1,0,0
 592.01 1105.44 592.01 1105.44 578.86 1031.3 c 0,0,0
 565.71 957.16 565.71 957.16 544.01 857 c 1,0,0
 547.01 857 l 1,0,0
EndSplineSet
EndChar

StartChar: dotlessi
Encoding: 305 305 242
Width: 569
GlyphClass: 2
Flags: HW
LayerCount: 2
Fore
SplineSet
557.49 1082 m 1,0,0
 346.49 0 l 1,0,0
 -1.18 0 l 1,0,0
 208.82 1082 l 1,0,0
 557.49 1082 l 1,0,0
EndSplineSet
EndChar

StartChar: jcircumflex
Encoding: 309 309 246
Width: 645
GlyphClass: 2
Flags: HW
LayerCount: 2
Fore
SplineSet
460.15 1378.35 m 1,0,0
 223.54 1170.94 l 1,0,0
 19.03 1170.94 l 1,0,0
 24.7 1204.3 l 1,0,0
 367.48 1554.46 l 1,0,0
 613.23 1554.46 l 1,0,0
 812.62 1204.3 l 1,0,0
 806.95 1170.94 l 1,0,0
 618.09 1170.94 l 1,0,0
 465.49 1378.35 l 1,0,0
 460.15 1378.35 l 1,0,0
-23.18 -425 m 0,0,0
 -149.66 -425 -149.66 -425 -213.97 -402.65 c 1,0,0
 -169.26 -179.81 l 1,0,0
 -163.3 -178.8 -163.3 -178.8 -151.985 -179.13 c 0,0,0
 -140.67 -179.46 -140.67 -179.46 -128.01 -181.13 c 0,0,0
 -55.65 -181.13 -55.65 -181.13 -23.145 -151.655 c 0,0,0
 9.36 -122.18 9.36 -122.18 28.03 -28.51 c 2,0,0
 245.67 1082 l 1,0,0
 594.34 1082 l 1,0,0
 359.01 -123.98 l 2,0,0
 331.35 -258.6 331.35 -258.6 232.125 -341.8 c 0,0,0
 132.9 -425 132.9 -425 -23.18 -425 c 0,0,0
EndSplineSet
EndChar

StartChar: kgreenlandic
Encoding: 312 312 249
Width: 1216
GlyphClass: 2
Flags: HW
LayerCount: 2
Fore
SplineSet
477.05 451.48 m 1,0,0
 383.34 0 l 1,0,0
 35.67 0 l 1,0,0
 245.67 1082 l 1,0,0
 594.34 1082 l 1,0,0
 515.05 678.89 l 1,0,0
 640.56 805.43 l 1,0,0
 911.38 1082 l 1,0,0
 1300.38 1082 l 1,0,0
 865.57 688.81 l 1,0,0
 1099.7 0 l 1,0,0
 732.69 0 l 1,0,0
 598.29 493.65 l 1,0,0
 477.05 451.48 l 1,0,0
EndSplineSet
EndChar

StartChar: Lslash
Encoding: 321 321 258
Width: 1326
GlyphClass: 2
Flags: HW
LayerCount: 2
Fore
SplineSet
437.31 276.24 m 1,0,0
 1222.79 276.24 l 1,0,0
 1168.41 0 l 1,0,0
 19.92 0 l 1,0,0
 104.88 444.48 l 1,0,0
 -33.07 394.55 l 1,0,0
 20.98 664.44 l 1,0,0
 157.59 716.04 l 1,0,0
 292.25 1409 l 1,0,0
 656.93 1409 l 1,0,0
 553.29 876.14 l 1,0,0
 909.39 1025.81 l 1,0,0
 858.35 758.59 l 1,0,0
 502.25 609.59 l 1,0,0
 437.31 276.24 l 1,0,0
EndSplineSet
EndChar

StartChar: lslash
Encoding: 322 322 259
Width: 645
GlyphClass: 2
Flags: HW
LayerCount: 2
Fore
SplineSet
534.06 764.57 m 1,0,0
 384.68 0 l 1,0,0
 37.01 0 l 1,0,0
 147.02 573.73 l 1,0,0
 8.68 504.06 l 1,0,0
 56.38 757.25 l 1,0,0
 197.06 826.92 l 1,0,0
 325.01 1484 l 1,0,0
 673.68 1484 l 1,0,0
 581.76 1017.76 l 1,0,0
 729.78 1093.1 l 1,0,0
 680.41 843.92 l 1,0,0
 534.06 764.57 l 1,0,0
EndSplineSet
EndChar

StartChar: Eng
Encoding: 330 330 267
Width: 1481
GlyphClass: 2
Flags: HW
LayerCount: 2
Fore
SplineSet
854.92 -425 m 0,0,0
 728.44 -425 728.44 -425 664.13 -402.65 c 1,0,0
 708.84 -179.81 l 1,0,0
 721.48 -178.8 721.48 -178.8 738.64 -179.13 c 0,0,0
 755.8 -179.46 755.8 -179.46 775.14 -181.13 c 0,0,0
 815.77 -181.13 815.77 -181.13 841.93 -182.55 c 0,0,0
 868.09 -183.97 868.09 -183.97 886.76 -185.49 c 0,0,0
 896.77 -173.52 896.77 -173.52 909.785 -126.98 c 0,0,0
 922.8 -80.44 922.8 -80.44 936.15 0 c 1,0,0
 547.18 1076.73 l 1,0,0
 536.18 994.39 536.18 994.39 525.005 926.015 c 0,0,0
 513.83 857.64 513.83 857.64 502.48 805.57 c 2,0,0
 342.55 0 l 1,0,0
 18.91 0 l 1,0,0
 293.58 1409 l 1,0,0
 736.71 1409 l 1,0,0
 1040.57 520.21 l 1,0,0
 1063.27 626.34 l 0,0,0
 1073.95 675.05 1073.95 675.05 1080.95 715.05 c 2,0,0
 1215.48 1409 l 1,0,0
 1537.78 1409 l 1,0,0
 1237.11 -123.98 l 2,0,0
 1209.45 -258.6 1209.45 -258.6 1110.225 -341.8 c 0,0,0
 1011 -425 1011 -425 854.92 -425 c 0,0,0
EndSplineSet
EndChar

StartChar: eng
Encoding: 331 331 268
Width: 1326
GlyphClass: 2
Flags: HW
LayerCount: 2
Fore
SplineSet
692.55 -425 m 0,0,0
 566.07 -425 566.07 -425 501.76 -402.65 c 1,0,0
 546.47 -179.81 l 1,0,0
 552.43 -178.8 552.43 -178.8 563.745 -179.13 c 0,0,0
 575.06 -179.46 575.06 -179.46 587.72 -181.13 c 0,0,0
 660.08 -181.13 660.08 -181.13 692.585 -149.985 c 0,0,0
 725.09 -118.84 725.09 -118.84 743.76 -28.51 c 2,0,0
 864.71 561.5 l 2,0,0
 896.07 713.96 896.07 713.96 896.07 736.55 c 0,0,0
 896.07 840.09 896.07 840.09 762.16 840.09 c 0,0,0
 706.55 840.09 706.55 840.09 650.08 806.61 c 0,0,0
 593.61 773.13 593.61 773.13 553.965 719.515 c 0,0,0
 514.32 665.9 514.32 665.9 504.01 606 c 2,0,0
 386.01 0 l 1,0,0
 35.67 0 l 1,0,0
 201.67 851 l 2,0,0
 208.33 886.31 208.33 886.31 217.83 943.475 c 0,0,0
 227.33 1000.64 227.33 1000.64 239 1082 c 1,0,0
 572.66 1082 l 1,0,0
 572.66 1066.65 572.66 1066.65 568.495 1025.47 c 0,0,0
 564.33 984.29 564.33 984.29 559.5 945.46 c 0,0,0
 554.67 906.63 554.67 906.63 551.34 897 c 1,0,0
 554.34 897 l 1,0,0
 623.98 993.63 623.98 993.63 719.17 1047.315 c 0,0,0
 814.36 1101 814.36 1101 932.7 1101 c 0,0,0
 1087.38 1101 1087.38 1101 1166.055 1028 c 0,0,0
 1244.73 955 1244.73 955 1244.73 817 c 0,0,0
 1244.73 796.69 1244.73 796.69 1236.39 733.145 c 0,0,0
 1228.05 669.6 1228.05 669.6 1223.73 653 c 2,0,0
 1074.74 -123.98 l 2,0,0
 1053.76 -248.58 1053.76 -248.58 954.535 -336.79 c 0,0,0
 855.31 -425 855.31 -425 692.55 -425 c 0,0,0
EndSplineSet
EndChar

StartChar: OE
Encoding: 338 338 275
Width: 2048
GlyphClass: 2
Flags: HW
LayerCount: 2
Fore
SplineSet
933.08 0 m 1,0,0
 881.79 -10 881.79 -10 708.68 -10 c 0,0,0
 517.34 -10 517.34 -10 382.005 57.16 c 0,0,0
 246.67 124.32 246.67 124.32 175.505 254.485 c 0,0,0
 104.34 384.65 104.34 384.65 104.34 573 c 0,0,0
 104.34 774.49 104.34 774.49 183.945 964.315 c 0,0,0
 263.55 1154.14 263.55 1154.14 420.09 1286.21 c 0,0,0
 538.78 1354.96 538.78 1354.96 677.35 1387.48 c 0,0,0
 815.92 1420 815.92 1420 965.08 1420 c 0,0,0
 1002.4 1420 1002.4 1420 1028.19 1418.5 c 0,0,0
 1053.98 1417 1053.98 1417 1067.57 1415.67 c 2,0,0
 1120.52 1409 l 1,0,0
 2120.44 1409 l 1,0,0
 2067.06 1134.43 l 1,0,0
 1428.87 1134.43 l 1,0,0
 1372.6 844.42 l 1,0,0
 1949.12 844.42 l 1,0,0
 1897.41 578.53 l 1,0,0
 1320.89 578.53 l 1,0,0
 1262.63 281.25 l 1,0,0
 1941.82 281.25 l 1,0,0
 1886.77 0 l 1,0,0
 933.08 0 l 1,0,0
752.08 273.59 m 0,0,0
 793.7 273.59 793.7 273.59 831.17 279.93 c 0,0,0
 868.64 286.27 868.64 286.27 899.62 299.62 c 1,0,0
 1057.51 1111.38 l 1,0,0
 1033.88 1124.73 1033.88 1124.73 989.235 1130.235 c 0,0,0
 944.59 1135.74 944.59 1135.74 955.08 1135.74 c 0,0,0
 660.88 1135.74 660.88 1135.74 524.22 912.8 c 0,0,0
 509.71 857.47 509.71 857.47 498.65 797.71 c 0,0,0
 487.59 737.95 487.59 737.95 482.48 678.57 c 0,0,0
 477.37 619.19 477.37 619.19 477.37 563 c 0,0,0
 477.37 425.13 477.37 425.13 547.625 349.36 c 0,0,0
 617.88 273.59 617.88 273.59 752.08 273.59 c 0,0,0
EndSplineSet
EndChar

StartChar: oe
Encoding: 339 339 276
Width: 1933
GlyphClass: 2
Flags: HW
LayerCount: 2
Fore
SplineSet
1235.36 457.91 m 1,0,0
 1231.04 434.97 1231.04 434.97 1231.04 384.99 c 0,0,0
 1231.04 297.08 1231.04 297.08 1264.14 250.295 c 0,0,0
 1297.24 203.51 1297.24 203.51 1359.43 203.51 c 0,0,0
 1418.69 203.51 1418.69 203.51 1455.275 242.16 c 0,0,0
 1491.86 280.81 1491.86 280.81 1516.82 365.81 c 1,0,0
 1833.51 284.44 l 1,0,0
 1757.84 108.02 1757.84 108.02 1647.51 44.01 c 0,0,0
 1537.18 -20 1537.18 -20 1341.77 -20 c 0,0,0
 1108.84 -20 1108.84 -20 980.46 104.53 c 1,0,0
 915.81 42.26 915.81 42.26 804.3 9.455 c 0,0,0
 692.79 -23.35 692.79 -23.35 556.13 -23.35 c 0,0,0
 325.4 -23.35 325.4 -23.35 188.015 95.155 c 0,0,0
 50.63 213.66 50.63 213.66 50.63 419 c 1,0,0
 47.28 617.99 47.28 617.99 134.65 771.65 c 0,0,0
 222.02 924.64 222.02 924.64 383.595 1012.82 c 0,0,0
 545.17 1101 545.17 1101 737.19 1101 c 0,0,0
 852.14 1101 852.14 1101 933.11 1077.215 c 0,0,0
 1014.08 1053.43 1014.08 1053.43 1097.48 994.17 c 1,0,0
 1173.48 1050.43 1173.48 1050.43 1264.79 1076.215 c 0,0,0
 1356.1 1102 1356.1 1102 1467.08 1102 c 0,0,0
 1679.43 1102 1679.43 1102 1793.265 991.485 c 0,0,0
 1907.1 880.97 1907.1 880.97 1907.1 679.61 c 0,0,0
 1907.1 583.96 1907.1 583.96 1883.1 457.91 c 1,0,0
 1235.36 457.91 l 1,0,0
884.66 647.93 m 1,0,0
 884.66 868.8 884.66 868.8 703.46 868.8 c 0,0,0
 605.87 868.8 605.87 868.8 545.91 815.5 c 0,0,0
 506.94 780.19 506.94 780.19 478.125 718.395 c 0,0,0
 449.31 656.6 449.31 656.6 434.32 583.14 c 0,0,0
 419.33 509.68 419.33 509.68 419.33 441.05 c 0,0,0
 419.33 333.8 419.33 333.8 464.63 270.99 c 0,0,0
 509.93 208.18 509.93 208.18 602.2 208.18 c 0,0,0
 700.79 208.18 700.79 208.18 757.75 261.82 c 0,0,0
 814.71 316.13 814.71 316.13 846.685 419.9 c 0,0,0
 878.66 523.67 878.66 523.67 884.66 647.93 c 1,0,0
1275.73 677.74 m 1,0,0
 1595.51 677.74 l 1,0,0
 1597.84 723.02 l 1,0,0
 1597.84 818.63 1597.84 818.63 1557.05 856.24 c 0,0,0
 1516.26 893.85 1516.26 893.85 1464.4 893.85 c 0,0,0
 1393.86 893.85 1393.86 893.85 1345.78 840.08 c 0,0,0
 1297.7 786.31 1297.7 786.31 1275.73 677.74 c 1,0,0
EndSplineSet
EndChar

StartChar: Tbar
Encoding: 358 358 295
Width: 1251
GlyphClass: 2
Flags: HW
LayerCount: 2
Fore
SplineSet
818.49 611.93 m 1,0,0
 698.5 0 l 1,0,0
 333.15 0 l 1,0,0
 453.14 611.93 l 1,0,0
 260.98 611.93 l 1,0,0
 302.67 826.05 l 1,0,0
 494.83 826.05 l 1,0,0
 554.44 1132.76 l 1,0,0
 118.87 1132.76 l 1,0,0
 172.25 1409 l 1,0,0
 1410.41 1409 l 1,0,0
 1357.03 1132.76 l 1,0,0
 919.79 1132.76 l 1,0,0
 860.18 826.05 l 1,0,0
 1052.67 826.05 l 1,0,0
 1010.98 611.93 l 1,0,0
 818.49 611.93 l 1,0,0
EndSplineSet
EndChar

StartChar: tbar
Encoding: 359 359 296
Width: 757
GlyphClass: 2
Flags: HW
LayerCount: 2
Fore
SplineSet
477.4 306.19 m 0,0,0
 477.4 258.85 477.4 258.85 501.57 236.015 c 0,0,0
 525.74 213.18 525.74 213.18 562.39 213.18 c 0,0,0
 593.04 213.18 593.04 213.18 675.75 225.51 c 1,0,0
 635.04 10.68 l 1,0,0
 566.1 -13.32 566.1 -13.32 443.67 -13.32 c 0,0,0
 293.54 -13.32 293.54 -13.32 212.475 50.205 c 0,0,0
 131.41 113.73 131.41 113.73 131.41 237.81 c 0,0,0
 131.41 324.54 131.41 324.54 148.08 412.9 c 2,0,0
 153.34 444.19 l 1,0,0
 26.67 444.19 l 1,0,0
 70.04 673.72 l 1,0,0
 198.38 673.72 l 1,0,0
 234 852.47 l 1,0,0
 70.59 852.47 l 1,0,0
 114.96 1082 l 1,0,0
 300.41 1082 l 1,0,0
 458.85 1344.04 l 1,0,0
 672.37 1344.04 l 1,0,0
 623.7 1082 l 1,0,0
 827.04 1082 l 1,0,0
 786.01 852.47 l 1,0,0
 577.66 852.47 l 1,0,0
 542.04 673.72 l 1,0,0
 716.99 673.72 l 1,0,0
 671.95 444.19 l 1,0,0
 497.67 444.19 l 1,0,0
 487.73 391.17 l 2,0,0
 477.4 334.51 477.4 334.51 477.4 306.19 c 0,0,0
EndSplineSet
EndChar

StartChar: longs
Encoding: 383 383 320
Width: 645
GlyphClass: 2
Flags: HW
LayerCount: 2
Fore
SplineSet
36.34 0 m 1,0,0
 268.67 1188.97 l 2,0,0
 299.34 1343.3 299.34 1343.3 408.915 1413.65 c 0,0,0
 518.49 1484 518.49 1484 717.29 1484 c 0,0,0
 787.29 1484 787.29 1484 897.08 1463.65 c 1,0,0
 853.04 1253.17 l 1,0,0
 849.41 1253.83 849.41 1253.83 810.04 1259.17 c 0,0,0
 770.67 1264.51 770.67 1264.51 749 1264.51 c 0,0,0
 668.25 1264.51 668.25 1264.51 632.23 1222.12 c 0,0,0
 626.28 1206.79 626.28 1206.79 618.795 1189.66 c 0,0,0
 611.31 1172.53 611.31 1172.53 608.33 1158.96 c 2,0,0
 383.34 0 l 1,0,0
 36.34 0 l 1,0,0
EndSplineSet
EndChar

StartChar: uni0180
Encoding: 384 384 321
Width: 1326
GlyphClass: 2
Flags: HW
LayerCount: 2
Fore
SplineSet
156.98 1350.36 m 1,0,0
 309.03 1350.36 l 1,0,0
 334.69 1484 l 1,0,0
 683.36 1484 l 1,0,0
 657.7 1350.36 l 1,0,0
 859.16 1350.36 l 1,0,0
 829.15 1154.23 l 1,0,0
 620.01 1154.23 l 1,0,0
 587 992.53 l 2,0,0
 576.66 944.83 576.66 944.83 569.495 906.825 c 0,0,0
 562.33 868.82 562.33 868.82 556.34 840.84 c 1,0,0
 560.34 840.84 l 1,0,0
 616.64 934.17 616.64 934.17 716.01 984.685 c 0,0,0
 815.38 1035.2 815.38 1035.2 917.68 1035.2 c 0,0,0
 1078.02 1035.2 1078.02 1035.2 1168.025 940.7 c 0,0,0
 1258.03 846.2 1258.03 846.2 1258.03 681.2 c 0,0,0
 1258.03 450.48 1258.03 450.48 1193.69 293.21 c 0,0,0
 1127.68 138.28 1127.68 138.28 1011.505 59.14 c 0,0,0
 895.33 -20 895.33 -20 744.04 -20 c 0,0,0
 617.7 -20 617.7 -20 539.03 32 c 0,0,0
 460.36 84 460.36 84 428.36 178 c 1,0,0
 427.03 178 l 1,0,0
 411.67 109.89 411.67 109.89 393.99 53.7 c 0,0,0
 376.31 -2.49 376.31 -2.49 375.68 0 c 1,0,0
 39.02 0 l 1,0,0
 43.02 13 43.02 13 55.52 68.5 c 0,0,0
 68.02 124 68.02 124 88.02 223 c 2,0,0
 269 1154.23 l 1,0,0
 118.62 1154.23 l 1,0,0
 156.98 1350.36 l 1,0,0
752.12 802.68 m 0,0,0
 661.47 802.68 661.47 802.68 620.195 780.55 c 0,0,0
 578.92 758.42 578.92 758.42 548.29 707.48 c 0,0,0
 526.31 673.52 526.31 673.52 511.495 621.9 c 0,0,0
 496.68 570.28 496.68 570.28 488.355 515.325 c 0,0,0
 480.03 460.37 480.03 460.37 480.03 417.08 c 0,0,0
 480.03 322.14 480.03 322.14 525.995 267.67 c 0,0,0
 571.96 213.2 571.96 213.2 654.9 213.2 c 0,0,0
 754.52 213.2 754.52 213.2 826.19 311.25 c 0,0,0
 850.81 347.56 850.81 347.56 865.77 383.28 c 0,0,0
 880.73 419 880.73 419 887.705 471.895 c 0,0,0
 894.68 524.79 894.68 524.79 894.68 612.46 c 0,0,0
 894.68 715.42 894.68 715.42 857.7 759.05 c 0,0,0
 820.72 802.68 820.72 802.68 752.12 802.68 c 0,0,0
EndSplineSet
EndChar

StartChar: uni0181
Encoding: 385 385 322
Width: 1719
GlyphClass: 2
Flags: HW
LayerCount: 2
Fore
SplineSet
1707.66 425.64 m 0,0,0
 1707.66 215.98 1707.66 215.98 1550.825 107.99 c 0,0,0
 1393.99 0 1393.99 0 1055.2 0 c 2,0,0
 276.5 0 l 1,0,0
 499.79 1150.78 l 1,0,0
 477.11 1150.78 l 2,0,0
 419.85 1150.78 419.85 1150.78 387.545 1121.49 c 0,0,0
 355.24 1092.2 355.24 1092.2 355.24 1035.27 c 0,0,0
 354.57 1012.25 354.57 1012.25 358.91 980.21 c 0,0,0
 363.25 948.17 363.25 948.17 372.6 906.78 c 1,0,0
 96.01 889.78 l 1,0,0
 95.35 912.13 95.35 912.13 94.185 937.985 c 0,0,0
 93.02 963.84 93.02 963.84 93.02 996.21 c 0,0,0
 93.02 1214.64 93.02 1214.64 190.2 1311.82 c 0,0,0
 287.38 1409 287.38 1409 502.8 1409 c 2,0,0
 1184.75 1409 l 2,0,0
 1463.89 1409 1463.89 1409 1598.585 1329.18 c 0,0,0
 1733.28 1249.36 1733.28 1249.36 1733.28 1080.32 c 0,0,0
 1733.28 807.01 1733.28 807.01 1419.33 734.65 c 1,0,0
 1553.99 711.65 1553.99 711.65 1630.825 628.48 c 0,0,0
 1707.66 545.31 1707.66 545.31 1707.66 425.64 c 0,0,0
808.2 861.77 m 1,0,0
 1077.41 861.77 l 2,0,0
 1250.4 861.77 1250.4 861.77 1313.85 895.375 c 0,0,0
 1377.3 928.98 1377.3 928.98 1377.3 1017.9 c 0,0,0
 1377.3 1088.52 1377.3 1088.52 1327 1117.15 c 0,0,0
 1276.7 1145.78 1276.7 1145.78 1142.7 1145.78 c 2,0,0
 861.8 1145.78 l 1,0,0
 808.2 861.77 l 1,0,0
691.89 263.22 m 1,0,0
 993.09 263.22 l 2,0,0
 1201.42 263.22 1201.42 263.22 1271.365 298.31 c 0,0,0
 1341.31 333.4 1341.31 333.4 1341.31 433.65 c 0,0,0
 1341.31 512.26 1341.31 512.26 1281.015 554.9 c 0,0,0
 1220.72 597.54 1220.72 597.54 1063.37 597.54 c 2,0,0
 757.49 597.54 l 1,0,0
 691.89 263.22 l 1,0,0
EndSplineSet
EndChar

StartChar: uni0182
Encoding: 386 386 323
Width: 1528
GlyphClass: 2
Flags: HW
LayerCount: 2
Fore
SplineSet
290.91 1409 m 1,0,0
 1439.02 1409 l 1,0,0
 1385.64 1134.43 l 1,0,0
 602.21 1134.43 l 1,0,0
 550.61 871.45 l 1,0,0
 958.11 871.45 l 2,0,0
 1192.79 871.45 1192.79 871.45 1331.98 764.265 c 0,0,0
 1471.17 657.08 1471.17 657.08 1471.17 478.75 c 0,0,0
 1471.17 248.37 1471.17 248.37 1299.455 124.185 c 0,0,0
 1127.74 0 1127.74 0 816.97 0 c 2,0,0
 18.58 0 l 1,0,0
 290.91 1409 l 1,0,0
437.31 282.93 m 1,0,0
 839.7 282.93 l 2,0,0
 957.9 282.93 957.9 282.93 1025.685 328.55 c 0,0,0
 1093.47 374.17 1093.47 374.17 1093.47 450.38 c 0,0,0
 1093.47 523.3 1093.47 523.3 1040.515 558.75 c 0,0,0
 987.56 594.2 987.56 594.2 857.26 594.2 c 2,0,0
 497.23 594.2 l 1,0,0
 437.31 282.93 l 1,0,0
EndSplineSet
EndChar

StartChar: uni0183
Encoding: 387 387 324
Width: 1326
GlyphClass: 2
Flags: HW
LayerCount: 2
Fore
SplineSet
929.37 1102 m 0,0,0
 1089.71 1102 1089.71 1102 1179.715 1007.5 c 0,0,0
 1269.72 913 1269.72 913 1269.72 748 c 0,0,0
 1269.72 549.01 1269.72 549.01 1207.05 355 c 0,0,0
 1144.38 161.66 1144.38 161.66 1031.545 70.83 c 0,0,0
 918.71 -20 918.71 -20 744.04 -20 c 0,0,0
 617.7 -20 617.7 -20 539.865 32 c 0,0,0
 462.03 84 462.03 84 430.03 178 c 1,0,0
 427.03 178 l 1,0,0
 411.67 109.89 411.67 109.89 393.99 53.7 c 0,0,0
 376.31 -2.49 376.31 -2.49 375.68 0 c 1,0,0
 39.02 0 l 1,0,0
 41.35 4.65 41.35 4.65 42.995 12.555 c 0,0,0
 44.64 20.46 44.64 20.46 47.94 30.95 c 2,0,0
 334.69 1484 l 1,0,0
 1140.48 1484 l 1,0,0
 1101.13 1234.82 l 1,0,0
 633.99 1234.82 l 1,0,0
 629.68 1213.94 629.68 1213.94 624.695 1192.025 c 0,0,0
 619.71 1170.11 619.71 1170.11 614.05 1143.15 c 0,0,0
 594.03 1048.39 594.03 1048.39 582.525 989.345 c 0,0,0
 571.02 930.3 571.02 930.3 568.03 907.64 c 1,0,0
 572.03 907.64 l 1,0,0
 628.33 1000.97 628.33 1000.97 727.7 1051.485 c 0,0,0
 827.07 1102 827.07 1102 929.37 1102 c 0,0,0
763.81 869.48 m 0,0,0
 629.59 869.48 629.59 869.48 558.31 742.55 c 0,0,0
 534.66 698.57 534.66 698.57 517.34 639.435 c 0,0,0
 500.02 580.3 500.02 580.3 490.025 521.17 c 0,0,0
 480.03 462.04 480.03 462.04 480.03 417.08 c 0,0,0
 480.03 322.14 480.03 322.14 525.995 267.67 c 0,0,0
 571.96 213.2 571.96 213.2 654.9 213.2 c 0,0,0
 741.16 213.2 741.16 213.2 789.45 269.5 c 0,0,0
 813.76 297.15 813.76 297.15 834.745 349.63 c 0,0,0
 855.73 402.11 855.73 402.11 871.72 464.25 c 0,0,0
 887.71 526.39 887.71 526.39 897.04 584.185 c 0,0,0
 906.37 641.98 906.37 641.98 906.37 679.26 c 0,0,0
 906.37 772.2 906.37 772.2 878.575 820.84 c 0,0,0
 850.78 869.48 850.78 869.48 763.81 869.48 c 0,0,0
EndSplineSet
EndChar

StartChar: uni0184
Encoding: 388 388 325
Width: 1528
GlyphClass: 2
Flags: HW
LayerCount: 2
Fore
SplineSet
551.28 871.45 m 1,0,0
 966.15 871.45 l 2,0,0
 1200.83 871.45 1200.83 871.45 1340.02 764.265 c 0,0,0
 1479.21 657.08 1479.21 657.08 1479.21 478.75 c 0,0,0
 1479.21 248.37 1479.21 248.37 1307.495 124.185 c 0,0,0
 1135.78 0 1135.78 0 825.01 0 c 2,0,0
 19.25 0 l 1,0,0
 211.24 997.64 l 1,0,0
 98.6 1226.1 l 1,0,0
 104.6 1264.11 l 1,0,0
 568.53 1409 l 1,0,0
 656.26 1409 l 1,0,0
 551.28 871.45 l 1,0,0
437.98 282.93 m 1,0,0
 847.74 282.93 l 2,0,0
 965.94 282.93 965.94 282.93 1033.725 328.55 c 0,0,0
 1101.51 374.17 1101.51 374.17 1101.51 450.38 c 0,0,0
 1101.51 523.3 1101.51 523.3 1048.555 558.75 c 0,0,0
 995.6 594.2 995.6 594.2 865.3 594.2 c 2,0,0
 497.9 594.2 l 1,0,0
 437.98 282.93 l 1,0,0
EndSplineSet
EndChar

StartChar: uni0185
Encoding: 389 389 326
Width: 1326
GlyphClass: 2
Flags: HW
LayerCount: 2
Fore
SplineSet
929.37 1102 m 0,0,0
 1081.33 1102 1081.33 1102 1173.34 1016.72 c 0,0,0
 1269.72 919.04 1269.72 919.04 1269.72 748 c 0,0,0
 1269.72 688.66 1269.72 688.66 1264.385 628.985 c 0,0,0
 1259.05 569.31 1259.05 569.31 1247.38 508.63 c 0,0,0
 1218.04 372.66 1218.04 372.66 1184.76 288.58 c 0,0,0
 1151.48 204.5 1151.48 204.5 1108.91 139.5 c 0,0,0
 1039.21 56.41 1039.21 56.41 948.66 18.205 c 0,0,0
 858.11 -20 858.11 -20 744.04 -20 c 0,0,0
 617.7 -20 617.7 -20 539.03 32 c 0,0,0
 460.36 84 460.36 84 428.36 178 c 1,0,0
 427.03 178 l 1,0,0
 411.67 109.89 411.67 109.89 393.99 53.7 c 0,0,0
 376.31 -2.49 376.31 -2.49 375.68 0 c 1,0,0
 39.02 0 l 1,0,0
 45.36 17.35 45.36 17.35 54.7 61.55 c 0,0,0
 64.04 105.75 64.04 105.75 73.705 153.085 c 0,0,0
 83.37 200.42 83.37 200.42 88.02 223 c 2,0,0
 260.03 1104.37 l 1,0,0
 135.3 1306.08 l 1,0,0
 138.96 1342.42 l 1,0,0
 597.29 1484 l 1,0,0
 683.36 1484 l 1,0,0
 669.02 1414.31 669.02 1414.31 658.69 1360.82 c 0,0,0
 648.36 1307.33 648.36 1307.33 640.7 1268.37 c 0,0,0
 615 1142.88 615 1142.88 600.49 1069.495 c 0,0,0
 585.98 996.11 585.98 996.11 578.65 964.14 c 0,0,0
 576.66 956.52 576.66 956.52 569.495 921.855 c 0,0,0
 562.33 887.19 562.33 887.19 568.03 907.64 c 1,0,0
 572.03 907.64 l 1,0,0
 619.98 987.61 619.98 987.61 716.845 1044.805 c 0,0,0
 813.71 1102 813.71 1102 929.37 1102 c 0,0,0
763.81 869.48 m 0,0,0
 741.63 869.48 741.63 869.48 709.54 869.06 c 0,0,0
 677.45 868.64 677.45 868.64 643.48 856.11 c 0,0,0
 596.11 822.14 596.11 822.14 558.245 752.3 c 0,0,0
 520.38 682.46 520.38 682.46 496.36 556.01 c 0,0,0
 480.03 466.35 480.03 466.35 480.03 417.08 c 0,0,0
 480.03 320.47 480.03 320.47 526.83 266.835 c 0,0,0
 573.63 213.2 573.63 213.2 654.9 213.2 c 0,0,0
 699.2 213.2 699.2 213.2 734.34 227.025 c 0,0,0
 769.48 240.85 769.48 240.85 801.14 281.19 c 0,0,0
 825.1 314.5 825.1 314.5 844.905 368.27 c 0,0,0
 864.71 422.04 864.71 422.04 886.38 529.4 c 0,0,0
 906.37 616 906.37 616 906.37 679.26 c 0,0,0
 906.37 772.2 906.37 772.2 878.575 820.84 c 0,0,0
 850.78 869.48 850.78 869.48 763.81 869.48 c 0,0,0
EndSplineSet
EndChar

StartChar: uni0186
Encoding: 390 390 327
Width: 1479
GlyphClass: 2
Flags: HW
LayerCount: 2
Fore
SplineSet
84.82 996.18 m 1,0,0
 210.82 1222.59 210.82 1222.59 392.53 1326.295 c 0,0,0
 574.24 1430 574.24 1430 822.98 1430 c 0,0,0
 1021.68 1430 1021.68 1430 1164.7 1363.01 c 0,0,0
 1308.72 1295.02 1308.72 1295.02 1385.235 1172.71 c 0,0,0
 1461.75 1050.4 1461.75 1050.4 1461.75 891.1 c 0,0,0
 1461.75 621.05 1461.75 621.05 1360.09 416.04 c 0,0,0
 1258.43 207.02 1258.43 207.02 1065.25 93.51 c 0,0,0
 872.07 -20 872.07 -20 603.66 -20 c 0,0,0
 363.28 -20 363.28 -20 212.11 92.21 c 0,0,0
 60.94 204.42 60.94 204.42 32.98 403.49 c 1,0,0
 369.96 485.21 l 1,0,0
 377.57 384.9 377.57 384.9 459.36 323.91 c 0,0,0
 541.15 262.92 541.15 262.92 662.09 262.92 c 0,0,0
 794.32 262.92 794.32 262.92 887.56 340.23 c 0,0,0
 982.47 415.87 982.47 415.87 1031.585 554.995 c 0,0,0
 1080.7 694.12 1080.7 694.12 1080.7 870.72 c 0,0,0
 1080.7 1005.59 1080.7 1005.59 994.245 1076 c 0,0,0
 907.79 1146.41 907.79 1146.41 756.54 1146.41 c 0,0,0
 635.26 1146.41 635.26 1146.41 544.835 1083.765 c 0,0,0
 454.41 1021.12 454.41 1021.12 386.47 893.82 c 1,0,0
 84.82 996.18 l 1,0,0
EndSplineSet
EndChar

StartChar: uni0187
Encoding: 391 391 328
Width: 1479
GlyphClass: 2
Flags: HW
LayerCount: 2
Fore
SplineSet
1388.06 362.72 m 1,0,0
 1298.8 178.06 1298.8 178.06 1125.44 79.03 c 0,0,0
 952.08 -20 952.08 -20 718.37 -20 c 0,0,0
 519 -20 519 -20 377.65 51.33 c 0,0,0
 236.3 123.33 236.3 123.33 163.795 257.33 c 0,0,0
 91.29 391.33 91.29 391.33 91.29 569 c 0,0,0
 91.29 825.02 91.29 825.02 196.29 1024.02 c 0,0,0
 301.29 1221.35 301.29 1221.35 491.13 1325.675 c 0,0,0
 680.97 1430 680.97 1430 927.67 1430 c 0,0,0
 1112.14 1430 1112.14 1430 1249.1 1373.85 c 1,0,0
 1268.79 1481.32 l 2,0,0
 1294.78 1620.97 1294.78 1620.97 1402 1694.47 c 0,0,0
 1509.22 1767.97 1509.22 1767.97 1674.3 1767.97 c 0,0,0
 1753.33 1767.97 1753.33 1767.97 1843.4 1753.65 c 1,0,0
 1796.03 1514.14 l 1,0,0
 1734.33 1522.12 1734.33 1522.12 1711.7 1522.12 c 0,0,0
 1670.42 1522.12 1670.42 1522.12 1637.77 1500.83 c 0,0,0
 1605.12 1479.54 1605.12 1479.54 1589.79 1405.91 c 2,0,0
 1511.71 1006.51 l 1,0,0
 1174.73 924.79 l 1,0,0
 1151.09 1028.44 1151.09 1028.44 1082.325 1087.76 c 0,0,0
 1013.56 1147.08 1013.56 1147.08 919.34 1147.08 c 0,0,0
 791.12 1147.08 791.12 1147.08 697.21 1092.48 c 0,0,0
 588.94 1031.2 588.94 1031.2 528.135 900.26 c 0,0,0
 467.33 769.32 467.33 769.32 467.33 577.69 c 0,0,0
 467.33 422.78 467.33 422.78 537.085 342.35 c 0,0,0
 606.84 261.92 606.84 261.92 743.06 261.92 c 0,0,0
 866.01 261.92 866.01 261.92 954.765 320.39 c 0,0,0
 1043.52 378.86 1043.52 378.86 1104.78 497.81 c 1,0,0
 1388.06 362.72 l 1,0,0
EndSplineSet
EndChar

StartChar: uni0188
Encoding: 392 392 329
Width: 1216
GlyphClass: 2
Flags: HW
LayerCount: 2
Fore
SplineSet
580.89 207.17 m 0,0,0
 652.5 207.17 652.5 207.17 694.775 257.995 c 0,0,0
 737.05 308.82 737.05 308.82 759.67 400.43 c 1,0,0
 1107.72 349.76 l 1,0,0
 1014.11 -20 1014.11 -20 556.85 -20 c 0,0,0
 318.76 -20 318.76 -20 189.54 94.175 c 0,0,0
 60.32 208.35 60.32 208.35 60.32 411.7 c 0,0,0
 60.32 604.35 60.32 604.35 143.34 773.68 c 0,0,0
 227.03 944.01 227.03 944.01 366.57 1023.005 c 0,0,0
 506.11 1102 506.11 1102 716.85 1102 c 0,0,0
 832.42 1102 832.42 1102 939.44 1066.42 c 1,0,0
 962.75 1211.11 962.75 1211.11 1067.98 1282.62 c 0,0,0
 1173.21 1354.13 1173.21 1354.13 1333.64 1354.13 c 0,0,0
 1413 1354.13 1413 1354.13 1503.75 1339.81 c 1,0,0
 1458.05 1105.31 l 1,0,0
 1399.03 1111.95 1399.03 1111.95 1369.03 1111.95 c 0,0,0
 1324.4 1111.95 1324.4 1111.95 1288.735 1093.005 c 0,0,0
 1253.07 1074.06 1253.07 1074.06 1239.08 1003.78 c 2,0,0
 1181.36 712.19 l 1,0,0
 825.67 690.53 l 1,0,0
 821.34 784.19 821.34 784.19 787.38 829.175 c 0,0,0
 753.42 874.16 753.42 874.16 684.13 874.16 c 0,0,0
 617.25 874.16 617.25 874.16 576.99 833.88 c 0,0,0
 542.35 800.23 542.35 800.23 514.03 735.25 c 0,0,0
 485.71 670.27 485.71 670.27 450.68 549.54 c 1,0,0
 429.69 427.52 429.69 427.52 429.69 419.06 c 0,0,0
 429.69 207.17 429.69 207.17 580.89 207.17 c 0,0,0
EndSplineSet
EndChar

StartChar: uni018A
Encoding: 394 394 331
Width: 1634
GlyphClass: 2
Flags: HW
LayerCount: 2
Fore
SplineSet
929.45 1409 m 2,0,0
 1160.83 1409 1160.83 1409 1316.675 1342.85 c 0,0,0
 1472.52 1276.7 1472.52 1276.7 1550.515 1145.38 c 0,0,0
 1628.51 1014.06 1628.51 1014.06 1628.51 817.72 c 0,0,0
 1628.51 584.06 1628.51 584.06 1532.19 398.04 c 0,0,0
 1435.87 214.36 1435.87 214.36 1251.555 107.18 c 0,0,0
 1067.24 0 1067.24 0 842.28 0 c 2,0,0
 273.5 0 l 1,0,0
 497.46 1150.78 l 1,0,0
 479.12 1150.78 l 2,0,0
 421.86 1150.78 421.86 1150.78 389.555 1121.49 c 0,0,0
 357.25 1092.2 357.25 1092.2 357.25 1035.27 c 0,0,0
 356.58 1012.25 356.58 1012.25 360.92 980.21 c 0,0,0
 365.26 948.17 365.26 948.17 374.61 906.78 c 1,0,0
 98.02 889.78 l 1,0,0
 97.36 912.13 97.36 912.13 96.195 937.985 c 0,0,0
 95.03 963.84 95.03 963.84 95.03 996.21 c 0,0,0
 95.03 1214.64 95.03 1214.64 192.21 1311.82 c 0,0,0
 289.39 1409 289.39 1409 504.81 1409 c 2,0,0
 929.45 1409 l 2,0,0
692.23 278.25 m 1,0,0
 832.61 278.25 l 2,0,0
 967.82 278.25 967.82 278.25 1075.74 341.22 c 0,0,0
 1181.99 403.19 1181.99 403.19 1239.78 521.135 c 0,0,0
 1297.57 639.08 1297.57 639.08 1297.57 794.67 c 0,0,0
 1297.57 963.57 1297.57 963.57 1205.805 1047.16 c 0,0,0
 1114.04 1130.75 1114.04 1130.75 935.47 1130.75 c 2,0,0
 857.13 1130.75 l 1,0,0
 692.23 278.25 l 1,0,0
EndSplineSet
EndChar

StartChar: uni018B
Encoding: 395 395 332
Width: 1388
GlyphClass: 2
Flags: HW
LayerCount: 2
Fore
SplineSet
430.42 0 m 2,0,0
 311.52 0 311.52 0 223.91 39.97 c 0,0,0
 119.56 85.97 119.56 85.97 63.55 171.645 c 0,0,0
 7.54 257.32 7.54 257.32 7.54 365.98 c 0,0,0
 7.54 483.51 7.54 483.51 48.38 584.82 c 0,0,0
 121.05 717.95 121.05 717.95 264.45 788.855 c 0,0,0
 407.85 859.76 407.85 859.76 601.62 859.76 c 2,0,0
 1014.64 859.76 l 1,0,0
 1067.24 1134.43 l 1,0,0
 397.42 1134.43 l 1,0,0
 450.8 1409 l 1,0,0
 1485.3 1409 l 1,0,0
 1212.97 0 l 1,0,0
 430.42 0 l 2,0,0
964.6 596.87 m 1,0,0
 645.69 596.87 l 2,0,0
 516.8 596.87 516.8 596.87 449.35 543.735 c 0,0,0
 381.9 490.6 381.9 490.6 381.9 396.02 c 0,0,0
 381.9 328.11 381.9 328.11 429.01 296 c 0,0,0
 476.12 263.89 476.12 263.89 574.69 263.89 c 2,0,0
 893.64 263.89 l 1,0,0
 964.6 596.87 l 1,0,0
EndSplineSet
EndChar

StartChar: uni018C
Encoding: 396 396 333
Width: 1326
GlyphClass: 2
Flags: HW
LayerCount: 2
Fore
SplineSet
385.97 -21 m 0,0,0
 233.98 -21 233.98 -21 142.305 86.025 c 0,0,0
 50.63 193.05 50.63 193.05 50.63 368.07 c 0,0,0
 50.63 553.37 50.63 553.37 115.97 728.67 c 0,0,0
 181.31 906.31 181.31 906.31 299.825 1004.49 c 0,0,0
 418.34 1102.67 418.34 1102.67 574.64 1102.67 c 0,0,0
 699.31 1102.67 699.31 1102.67 781.82 1053.175 c 0,0,0
 864.33 1003.68 864.33 1003.68 891.32 904.67 c 1,0,0
 896.32 904.67 l 1,0,0
 894.97 903.92 894.97 903.92 895.29 911.855 c 0,0,0
 895.61 919.79 895.61 919.79 897.6 934.74 c 0,0,0
 896.24 932.94 896.24 932.94 910.91 1007.96 c 0,0,0
 955.28 1234.82 l 1,0,0
 488.14 1234.82 l 1,0,0
 544.19 1484 l 1,0,0
 1348.31 1484 l 1,0,0
 1115 236.36 l 2,0,0
 1105 179.69 1105 179.69 1099.34 120.35 c 0,0,0
 1093.68 61.01 1093.68 61.01 1092.03 0 c 1,0,0
 738 0 l 1,0,0
 738 34.35 738 34.35 741.83 90.55 c 0,0,0
 745.66 146.75 745.66 146.75 748.98 160 c 1,0,0
 745.65 160 l 1,0,0
 675.99 68.34 675.99 68.34 592.485 23.67 c 0,0,0
 508.98 -21 508.98 -21 385.97 -21 c 0,0,0
556.54 208.18 m 0,0,0
 688.42 208.18 688.42 208.18 758.7 334.44 c 0,0,0
 783.35 378.42 783.35 378.42 801.005 437.89 c 0,0,0
 818.66 497.36 818.66 497.36 828.655 557.825 c 0,0,0
 838.65 618.29 838.65 618.29 838.65 665.59 c 0,0,0
 838.65 782.24 838.65 782.24 802.705 826.69 c 0,0,0
 766.76 871.14 766.76 871.14 685.49 871.14 c 0,0,0
 599.9 871.14 599.9 871.14 539.59 806.16 c 0,0,0
 499.94 762.84 499.94 762.84 473.79 698.065 c 0,0,0
 447.64 633.29 447.64 633.29 434.15 558.515 c 0,0,0
 420.66 483.74 420.66 483.74 420.66 411.76 c 0,0,0
 420.66 310.47 420.66 310.47 455.97 259.325 c 0,0,0
 491.28 208.18 491.28 208.18 556.54 208.18 c 0,0,0
EndSplineSet
EndChar

StartChar: uni018D
Encoding: 397 397 334
Width: 1325
GlyphClass: 2
Flags: HW
LayerCount: 2
Fore
SplineSet
1289.43 674.65 m 0,0,0
 1289.43 504.66 1289.43 504.66 1226.1 390.44 c 0,0,0
 1163.44 273.88 1163.44 273.88 1039.27 178.87 c 0,0,0
 915.1 83.86 915.1 83.86 746.12 27.76 c 1,0,0
 1049.48 -211.17 l 1,0,0
 1007.78 -423.33 l 1,0,0
 -38.5 -423.33 l 1,0,0
 9.54 -181.47 l 1,0,0
 440.67 -181.47 l 1,0,0
 559.27 -176.11 l 1,0,0
 307.17 31.62 l 2,0,0
 225.5 103.95 225.5 103.95 195.51 135.85 c 0,0,0
 151.13 194.54 151.13 194.54 122.425 273.26 c 0,0,0
 93.72 351.98 93.72 351.98 93.72 460.75 c 0,0,0
 93.72 650.76 93.72 650.76 186.77 794.05 c 0,0,0
 279.82 934.67 279.82 934.67 446.4 1018.67 c 0,0,0
 612.98 1102.67 612.98 1102.67 814.01 1102.67 c 0,0,0
 1039.04 1102.67 1039.04 1102.67 1164.235 988.995 c 0,0,0
 1289.43 875.32 1289.43 875.32 1289.43 674.65 c 0,0,0
926.41 693.02 m 0,0,0
 926.41 772.56 926.41 772.56 874.43 820.68 c 0,0,0
 822.45 868.8 822.45 868.8 736.86 868.8 c 0,0,0
 655.3 868.8 655.3 868.8 591 811.49 c 0,0,0
 547.02 772.17 547.02 772.17 518.54 719.225 c 0,0,0
 490.06 666.28 490.06 666.28 475.405 595.16 c 0,0,0
 460.75 524.04 460.75 524.04 460.75 426.02 c 0,0,0
 460.75 331.46 460.75 331.46 503.875 288.195 c 0,0,0
 547 244.93 547 244.93 610.55 244.93 c 0,0,0
 626.04 244.93 626.04 244.93 657.81 245.86 c 0,0,0
 689.58 246.79 689.58 246.79 720.88 244.63 c 0,0,0
 784.61 276.59 784.61 276.59 830.32 338.065 c 0,0,0
 876.03 399.54 876.03 399.54 901.22 488.895 c 0,0,0
 926.41 578.25 926.41 578.25 926.41 693.02 c 0,0,0
EndSplineSet
EndChar

StartChar: uni018E
Encoding: 398 398 335
Width: 1366
GlyphClass: 2
Flags: HW
LayerCount: 2
Fore
SplineSet
53.5 0 m 1,0,0
 104.87 276.24 l 1,0,0
 846.85 276.24 l 1,0,0
 892.4 538.45 l 1,0,0
 184.62 538.45 l 1,0,0
 235.99 816.03 l 1,0,0
 943.77 816.03 l 1,0,0
 999.69 1132.76 l 1,0,0
 161.77 1132.76 l 1,0,0
 214.81 1409 l 1,0,0
 1415.74 1409 l 1,0,0
 1160.16 0 l 1,0,0
 53.5 0 l 1,0,0
EndSplineSet
EndChar

StartChar: uni018F
Encoding: 399 399 336
Width: 1489
GlyphClass: 2
Flags: HW
LayerCount: 2
Fore
SplineSet
1057.15 873.46 m 1,0,0
 1058.15 880.43 1058.15 880.43 1058.65 894.095 c 0,0,0
 1059.15 907.76 1059.15 907.76 1059.15 926.45 c 0,0,0
 1059.15 1014.58 1059.15 1014.58 989.885 1082.5 c 0,0,0
 920.62 1150.42 920.62 1150.42 830.14 1150.42 c 0,0,0
 747.14 1150.42 747.14 1150.42 698.19 1132.42 c 0,0,0
 666.32 1116.77 666.32 1116.77 644.935 1091.335 c 0,0,0
 623.55 1065.9 623.55 1065.9 574.25 980.92 c 1,0,0
 254.28 1062.63 l 1,0,0
 319.84 1256.66 319.84 1256.66 455.62 1343.33 c 0,0,0
 591.4 1430 591.4 1430 830.12 1430 c 0,0,0
 1012.13 1430 1012.13 1430 1150.655 1355.655 c 0,0,0
 1289.18 1281.31 1289.18 1281.31 1366.7 1144.625 c 0,0,0
 1444.22 1007.94 1444.22 1007.94 1444.22 821.59 c 0,0,0
 1444.22 584.29 1444.22 584.29 1331.19 390.64 c 0,0,0
 1216.49 196.99 1216.49 196.99 1025.14 88.495 c 0,0,0
 833.79 -20 833.79 -20 608.16 -20 c 0,0,0
 457.55 -20 457.55 -20 340.57 58.36 c 0,0,0
 225.6 135.05 225.6 135.05 161.275 268.565 c 0,0,0
 96.95 402.08 96.95 402.08 96.95 548.35 c 0,0,0
 96.95 720.45 96.95 720.45 152.32 873.46 c 1,0,0
 1057.15 873.46 l 1,0,0
697.99 259.6 m 0,0,0
 800.41 259.6 800.41 259.6 882.105 346.835 c 0,0,0
 963.8 434.07 963.8 434.07 1003.09 586.87 c 1,0,0
 476 586.87 l 1,0,0
 470.34 556.59 470.34 556.59 470.34 506.6 c 0,0,0
 470.34 399.12 470.34 399.12 531.42 329.36 c 0,0,0
 592.5 259.6 592.5 259.6 697.99 259.6 c 0,0,0
EndSplineSet
EndChar

StartChar: uni0190
Encoding: 400 400 337
Width: 1355
GlyphClass: 2
Flags: HW
LayerCount: 2
Fore
SplineSet
575.06 -20 m 0,0,0
 443.79 -20 443.79 -20 328.12 20.3 c 0,0,0
 198.04 67.97 198.04 67.97 127.33 153.15 c 0,0,0
 56.62 238.33 56.62 238.33 56.62 341.66 c 0,0,0
 56.62 493.97 56.62 493.97 152.935 590.62 c 0,0,0
 249.25 687.27 249.25 687.27 441.27 713.94 c 1,0,0
 338.28 746.95 338.28 746.95 277.275 817.79 c 0,0,0
 216.27 888.63 216.27 888.63 216.27 985.62 c 0,0,0
 216.27 1109.61 216.27 1109.61 287.94 1212.62 c 0,0,0
 362.96 1316.31 362.96 1316.31 495.82 1372.655 c 0,0,0
 628.68 1429 628.68 1429 785.01 1429 c 0,0,0
 1015.07 1429 1015.07 1429 1159.13 1317.945 c 0,0,0
 1303.19 1206.89 1303.19 1206.89 1345.87 1001.16 c 1,0,0
 1008.88 935.13 l 1,0,0
 988.58 1059.45 988.58 1059.45 927.1 1114.955 c 0,0,0
 865.62 1170.46 865.62 1170.46 765.33 1170.46 c 0,0,0
 669.77 1170.46 669.77 1170.46 615.34 1130.53 c 0,0,0
 560.91 1090.6 560.91 1090.6 560.91 1003.68 c 0,0,0
 560.91 941.42 560.91 941.42 616.53 894.255 c 0,0,0
 672.15 847.09 672.15 847.09 783.38 847.09 c 2,0,0
 841.04 847.09 l 1,0,0
 786.99 567.16 l 1,0,0
 736.03 567.16 l 2,0,0
 553.11 567.16 553.11 567.16 485.365 532.74 c 0,0,0
 417.62 498.32 417.62 498.32 417.62 407.77 c 0,0,0
 417.62 338.84 417.62 338.84 479.59 298.545 c 0,0,0
 541.56 258.25 541.56 258.25 647.17 258.25 c 0,0,0
 870.77 258.25 870.77 258.25 971.63 498.52 c 1,0,0
 1286.97 336.37 l 1,0,0
 1239.38 226.08 1239.38 226.08 1150.7 146.39 c 0,0,0
 1051 55.68 1051 55.68 911.43 17.84 c 0,0,0
 771.86 -20 771.86 -20 575.06 -20 c 0,0,0
EndSplineSet
EndChar

StartChar: uni0191
Encoding: 401 401 338
Width: 1251
GlyphClass: 2
Flags: HW
LayerCount: 2
Fore
SplineSet
369.28 -57.19 m 2,0,0
 327.92 -261.64 327.92 -261.64 227.385 -343.655 c 0,0,0
 126.85 -425.67 126.85 -425.67 -81.6 -425.67 c 0,0,0
 -158.29 -425.67 -158.29 -425.67 -267.73 -406.34 c 1,0,0
 -217.69 -142.79 l 1,0,0
 -144.3 -152.44 -144.3 -152.44 -120 -152.44 c 0,0,0
 -58.01 -152.44 -58.01 -152.44 -27.53 -116.955 c 0,0,0
 2.95 -81.47 2.95 -81.47 15.94 -11.18 c 2,0,0
 290.91 1409 l 1,0,0
 1260.16 1409 l 1,0,0
 1206.78 1132.76 l 1,0,0
 602.21 1132.76 l 1,0,0
 528.6 755.72 l 1,0,0
 1110.84 755.72 l 1,0,0
 1058.13 480.82 l 1,0,0
 475.89 480.82 l 1,0,0
 369.28 -57.19 l 2,0,0
EndSplineSet
EndChar

StartChar: florin
Encoding: 402 402 339
Width: 1139
GlyphClass: 2
Flags: HW
LayerCount: 2
Fore
SplineSet
1056.39 1268.58 m 1,0,0
 1054.77 1266.56 1054.77 1266.56 1020.09 1270.895 c 0,0,0
 985.41 1275.23 985.41 1275.23 969.77 1275.23 c 0,0,0
 898.08 1275.23 898.08 1275.23 869.42 1246.58 c 0,0,0
 840.76 1217.93 840.76 1217.93 831.78 1172.36 c 2,0,0
 822.48 1122.2 l 1,0,0
 1036.82 1122.2 l 1,0,0
 991.78 892.67 l 1,0,0
 778.78 892.67 l 1,0,0
 520.78 -404.23 l 1,0,0
 173.78 -404.23 l 1,0,0
 431.78 892.67 l 1,0,0
 269.76 892.67 l 1,0,0
 313.46 1122.2 l 1,0,0
 476.15 1122.2 l 1,0,0
 493.46 1209.07 l 2,0,0
 522.79 1365.41 522.79 1365.41 630.69 1434.755 c 0,0,0
 738.59 1504.1 738.59 1504.1 936.72 1504.1 c 0,0,0
 1002.03 1504.1 1002.03 1504.1 1095.74 1489.11 c 1,0,0
 1056.39 1268.58 l 1,0,0
EndSplineSet
EndChar

StartChar: uni0193
Encoding: 403 403 340
Width: 1593
GlyphClass: 2
Flags: HW
LayerCount: 2
Fore
SplineSet
738.66 -18.33 m 0,0,0
 442.01 -18.33 442.01 -18.33 270.67 141.845 c 0,0,0
 99.33 302.02 99.33 302.02 99.33 589.7 c 0,0,0
 99.33 836.36 99.33 836.36 202.66 1029.02 c 0,0,0
 305.99 1219.34 305.99 1219.34 497.655 1324.67 c 0,0,0
 689.32 1430 689.32 1430 940.66 1430 c 0,0,0
 1129.8 1430 1129.8 1430 1280.8 1352.12 c 1,0,0
 1305.17 1481.32 l 2,0,0
 1333.17 1624.32 1333.17 1624.32 1439.72 1696.145 c 0,0,0
 1546.27 1767.97 1546.27 1767.97 1710.68 1767.97 c 0,0,0
 1789.71 1767.97 1789.71 1767.97 1879.78 1753.65 c 1,0,0
 1832.41 1514.14 l 1,0,0
 1770.71 1522.12 1770.71 1522.12 1748.08 1522.12 c 0,0,0
 1706.8 1522.12 1706.8 1522.12 1673.815 1500.83 c 0,0,0
 1640.83 1479.54 1640.83 1479.54 1626.17 1405.91 c 2,0,0
 1546.75 999.47 l 1,0,0
 1205.12 905.39 l 1,0,0
 1181.48 1017.05 1181.48 1017.05 1107.86 1082.065 c 0,0,0
 1034.24 1147.08 1034.24 1147.08 921.98 1147.08 c 0,0,0
 782.75 1147.08 782.75 1147.08 679.5 1079.45 c 0,0,0
 576.25 1010.15 576.25 1010.15 521.795 886.72 c 0,0,0
 467.34 763.29 467.34 763.29 467.34 602.05 c 0,0,0
 467.34 447.83 467.34 447.83 546.93 354.875 c 0,0,0
 626.52 261.92 626.52 261.92 774.72 261.92 c 0,0,0
 860.61 261.92 860.61 261.92 944.855 277.87 c 0,0,0
 1029.1 293.82 1029.1 293.82 1092.39 317.72 c 1,0,0
 1135.04 528.3 l 1,0,0
 845.97 528.3 l 1,0,0
 889.66 768.46 l 1,0,0
 1515.05 768.46 l 1,0,0
 1406.7 151.55 l 1,0,0
 1255.01 59.94 1255.01 59.94 1099.015 20.805 c 0,0,0
 943.02 -18.33 943.02 -18.33 738.66 -18.33 c 0,0,0
EndSplineSet
EndChar

StartChar: uni0194
Encoding: 404 404 341
Width: 1441
GlyphClass: 2
Flags: HW
LayerCount: 2
Fore
SplineSet
555.09 -425 m 0,0,0
 418.02 -425 418.02 -425 333.305 -350.635 c 0,0,0
 248.59 -276.27 248.59 -276.27 248.59 -161.58 c 0,0,0
 248.59 -93.88 248.59 -93.88 276.1 -26.035 c 0,0,0
 303.61 41.81 303.61 41.81 386.03 148.22 c 0,0,0
 416.05 185.56 416.05 185.56 448.04 218.35 c 0,0,0
 480.03 251.14 480.03 251.14 511.65 278.71 c 1,0,0
 266.1 1409 l 1,0,0
 647.8 1409 l 1,0,0
 766.57 630.77 l 1,0,0
 1186.17 1409 l 1,0,0
 1557.5 1409 l 1,0,0
 878.32 285.41 l 1,0,0
 948.36 95.01 948.36 95.01 965.7 33.37 c 0,0,0
 983.71 -33.96 983.71 -33.96 983.71 -85.28 c 0,0,0
 983.71 -203.01 983.71 -203.01 928.67 -275.67 c 0,0,0
 880.98 -343.32 880.98 -343.32 785.585 -384.16 c 0,0,0
 690.19 -425 690.19 -425 555.09 -425 c 0,0,0
603.49 -179.81 m 0,0,0
 656.83 -179.81 656.83 -179.81 677.815 -151.18 c 0,0,0
 698.8 -122.55 698.8 -122.55 698.8 -94.33 c 0,0,0
 698.8 -26.64 698.8 -26.64 680.78 12.325 c 0,0,0
 662.76 51.29 662.76 51.29 654.11 71.55 c 1,0,0
 611.43 23.23 l 2,0,0
 574.46 -12.01 574.46 -12.01 558.32 -40.59 c 0,0,0
 542.18 -69.17 542.18 -69.17 542.18 -104.49 c 0,0,0
 542.18 -131.8 542.18 -131.8 557.505 -155.805 c 0,0,0
 572.83 -179.81 572.83 -179.81 603.49 -179.81 c 0,0,0
EndSplineSet
EndChar

StartChar: uni0195
Encoding: 405 405 342
Width: 1986
GlyphClass: 2
Flags: HW
LayerCount: 2
Fore
SplineSet
1282.61 -20 m 0,0,0
 1073.89 -20 1073.89 -20 955.005 65.015 c 0,0,0
 836.12 150.03 836.12 150.03 836.12 312.75 c 0,0,0
 836.12 382.18 836.12 382.18 846.97 457.285 c 0,0,0
 857.82 532.39 857.82 532.39 871.17 604.82 c 2,0,0
 863.37 561.47 l 2,0,0
 874.71 609.82 874.71 609.82 885.725 661.69 c 0,0,0
 896.74 713.56 896.74 713.56 896.74 737.22 c 0,0,0
 896.74 840.09 896.74 840.09 762.16 840.09 c 0,0,0
 706.55 840.09 706.55 840.09 651.25 807.78 c 0,0,0
 595.95 775.47 595.95 775.47 556.305 721.185 c 0,0,0
 516.66 666.9 516.66 666.9 504.01 602.65 c 2,0,0
 386.68 0 l 1,0,0
 35.67 0 l 1,0,0
 320.33 1484 l 1,0,0
 667.33 1484 l 1,0,0
 585.65 1066.27 l 2,0,0
 575.65 1026.3 575.65 1026.3 567.49 984.65 c 0,0,0
 559.33 943 559.33 943 551.34 897 c 1,0,0
 554.34 897 l 1,0,0
 632.35 1004 632.35 1004 726.2 1052.5 c 0,0,0
 820.05 1101 820.05 1101 932.7 1101 c 0,0,0
 1088.72 1101 1088.72 1101 1167.06 1028 c 0,0,0
 1245.4 955 1245.4 955 1245.4 814.99 c 0,0,0
 1245.4 778.98 1245.4 778.98 1237.725 717.925 c 0,0,0
 1230.05 656.87 1230.05 656.87 1212.03 568.77 c 2,0,0
 1215.15 589.73 l 2,0,0
 1182.11 426.86 1182.11 426.86 1182.11 404.57 c 0,0,0
 1182.11 314.22 1182.11 314.22 1215.255 277.4 c 0,0,0
 1248.4 240.58 1248.4 240.58 1303.97 240.58 c 0,0,0
 1380.88 240.58 1380.88 240.58 1435.525 307.76 c 0,0,0
 1490.17 374.94 1490.17 374.94 1511.15 484.18 c 2,0,0
 1628.45 1082 l 1,0,0
 1974.78 1082 l 1,0,0
 1864.84 516.97 l 2,0,0
 1811.48 243.5 1811.48 243.5 1670.26 111.75 c 0,0,0
 1529.04 -20 1529.04 -20 1282.61 -20 c 0,0,0
EndSplineSet
EndChar

StartChar: uni0196
Encoding: 406 406 343
Width: 645
GlyphClass: 2
Flags: HW
LayerCount: 2
Fore
SplineSet
417.68 159.04 m 0,0,0
 417.68 109.35 417.68 109.35 426.005 69.175 c 0,0,0
 434.33 29 434.33 29 457.67 0 c 1,0,0
 89.33 0 l 1,0,0
 63 55.03 63 55.03 63 133.35 c 0,0,0
 63 172.32 63 172.32 74 236 c 2,0,0
 317 1484 l 1,0,0
 667.34 1484 l 1,0,0
 426.68 250.38 l 2,0,0
 421.01 222.03 421.01 222.03 419.345 202.875 c 0,0,0
 417.68 183.72 417.68 183.72 417.68 159.04 c 0,0,0
EndSplineSet
EndChar

StartChar: uni0197
Encoding: 407 407 344
Width: 569
GlyphClass: 2
Flags: HW
LayerCount: 2
Fore
SplineSet
467.15 595.18 m 1,0,0
 351.18 0 l 1,0,0
 1.84 0 l 1,0,0
 118.48 595.18 l 1,0,0
 -10.45 595.18 l 1,0,0
 43.27 869.78 l 1,0,0
 171.53 869.78 l 1,0,0
 291.51 1484 l 1,0,0
 640.18 1484 l 1,0,0
 520.87 869.78 l 1,0,0
 667.49 869.78 l 1,0,0
 613.77 595.18 l 1,0,0
 467.15 595.18 l 1,0,0
EndSplineSet
EndChar

StartChar: uni0198
Encoding: 408 408 345
Width: 1554
GlyphClass: 2
Flags: HW
LayerCount: 2
Fore
SplineSet
966.55 802.38 m 1,0,0
 1369.91 0 l 1,0,0
 976.91 0 l 1,0,0
 700.3 617.22 l 1,0,0
 475.23 498.24 l 1,0,0
 380.92 0 l 1,0,0
 17.91 0 l 1,0,0
 290.91 1409 l 1,0,0
 653.92 1409 l 1,0,0
 529.61 804.84 l 1,0,0
 750.77 983.94 l 1,0,0
 1039.04 1227.6 l 2,0,0
 1114.47 1290.68 1114.47 1290.68 1175.705 1334.225 c 0,0,0
 1236.94 1377.77 1236.94 1377.77 1293 1401.11 c 0,0,0
 1383.64 1433.35 1383.64 1433.35 1488.27 1433.35 c 0,0,0
 1536.63 1433.35 1536.63 1433.35 1572.47 1427.35 c 0,0,0
 1608.31 1421.35 1608.31 1421.35 1639.32 1414.02 c 1,0,0
 1587.28 1153.15 l 1,0,0
 1558.93 1156.14 1558.93 1156.14 1532.085 1159.47 c 0,0,0
 1505.24 1162.8 1505.24 1162.8 1483.91 1162.8 c 0,0,0
 1434.23 1162.8 1434.23 1162.8 1381.56 1132.78 c 0,0,0
 1330.56 1103.43 1330.56 1103.43 1283.65 1062.17 c 2,0,0
 966.55 802.38 l 1,0,0
EndSplineSet
EndChar

StartChar: uni0199
Encoding: 409 409 346
Width: 1216
GlyphClass: 2
Flags: HW
LayerCount: 2
Fore
SplineSet
477.05 451.48 m 1,0,0
 383.34 0 l 1,0,0
 35.67 0 l 1,0,0
 259.31 1154.2 l 2,0,0
 290.99 1322.94 290.99 1322.94 389.195 1398.78 c 0,0,0
 487.4 1474.62 487.4 1474.62 680.21 1474.62 c 0,0,0
 773.59 1474.62 773.59 1474.62 863.66 1460.3 c 1,0,0
 816.29 1220.79 l 1,0,0
 756.6 1227.43 756.6 1227.43 727.27 1227.43 c 0,0,0
 682.64 1227.43 682.64 1227.43 648.98 1209.49 c 0,0,0
 615.32 1191.55 615.32 1191.55 598.99 1121.27 c 2,0,0
 513.38 678.89 l 1,0,0
 690.66 853.86 l 1,0,0
 911.38 1082 l 1,0,0
 1300.38 1082 l 1,0,0
 865.57 688.81 l 1,0,0
 1099.7 0 l 1,0,0
 732.69 0 l 1,0,0
 598.29 493.65 l 1,0,0
 477.05 451.48 l 1,0,0
EndSplineSet
EndChar

StartChar: uni019A
Encoding: 410 410 347
Width: 645
GlyphClass: 2
Flags: HW
LayerCount: 2
Fore
SplineSet
503.67 594.19 m 1,0,0
 388.03 0 l 1,0,0
 40.36 0 l 1,0,0
 156 594.19 l 1,0,0
 -10.4 594.19 l 1,0,0
 38.64 845.09 l 1,0,0
 203.71 845.09 l 1,0,0
 328.36 1484 l 1,0,0
 677.03 1484 l 1,0,0
 553.05 845.09 l 1,0,0
 746.16 845.09 l 1,0,0
 697.12 594.19 l 1,0,0
 503.67 594.19 l 1,0,0
EndSplineSet
EndChar

StartChar: uni019B
Encoding: 411 411 348
Width: 1226
GlyphClass: 2
Flags: HW
LayerCount: 2
Fore
SplineSet
1094.49 1307.74 m 1,0,0
 869.38 1213 l 1,0,0
 1111.09 0 l 1,0,0
 740.71 0 l 1,0,0
 669.42 466.78 l 2,0,0
 662.76 518.44 662.76 518.44 652.085 571.94 c 0,0,0
 641.41 625.44 641.41 625.44 629.39 679.11 c 1,0,0
 607.02 640.38 607.02 640.38 582.47 596.46 c 0,0,0
 557.92 552.54 557.92 552.54 537.56 517.83 c 0,0,0
 517.2 483.12 517.2 483.12 510.74 468.01 c 0,0,0
 504.28 452.9 504.28 452.9 518.09 473.13 c 2,0,0
 283.36 0 l 1,0,0
 -80.31 0 l 1,0,0
 514.25 1070.18 l 1,0,0
 520.66 1070.49 l 1,0,0
 151.67 914.98 l 1,0,0
 100.28 1124.83 l 1,0,0
 476.96 1280.67 l 1,0,0
 430.27 1484 l 1,0,0
 815.37 1484 l 1,0,0
 828.01 1422.84 l 1,0,0
 1041.43 1514.24 l 1,0,0
 1094.49 1307.74 l 1,0,0
EndSplineSet
EndChar

StartChar: uni019C
Encoding: 412 412 349
Width: 1953
GlyphClass: 2
Flags: HW
LayerCount: 2
Fore
SplineSet
1005.93 -20 m 0,0,0
 938.3 -20 938.3 -20 903.35 -2.02 c 0,0,0
 852.67 21.32 852.67 21.32 823.01 64.335 c 0,0,0
 793.35 107.35 793.35 107.35 769.68 209.79 c 1,0,0
 757.99 209.79 l 1,0,0
 717.63 158.41 717.63 158.41 682.945 122.215 c 0,0,0
 648.26 86.02 648.26 86.02 621.59 64.68 c 0,0,0
 571.61 26.69 571.61 26.69 503.09 3.345 c 0,0,0
 434.57 -20 434.57 -20 346.86 -20 c 0,0,0
 207.58 -20 207.58 -20 137.28 48.135 c 0,0,0
 66.98 116.27 66.98 116.27 66.98 253.89 c 0,0,0
 66.98 300.84 66.98 300.84 72.95 333.02 c 2,0,0
 282.01 1409 l 1,0,0
 648.7 1409 l 1,0,0
 466.36 467.96 l 2,0,0
 440.01 329.87 440.01 329.87 440.01 300.94 c 0,0,0
 440.01 264.74 440.01 264.74 459.295 246.63 c 0,0,0
 478.58 228.52 478.58 228.52 513.79 228.52 c 0,0,0
 606.4 228.52 606.4 228.52 683.415 313.87 c 0,0,0
 760.43 399.22 760.43 399.22 783.75 523.5 c 2,0,0
 955.05 1409 l 1,0,0
 1321.07 1409 l 1,0,0
 1142.75 489.4 l 2,0,0
 1110.05 313.2 1110.05 313.2 1110.05 290.27 c 0,0,0
 1110.05 265.41 1110.05 265.41 1134.85 246.965 c 0,0,0
 1159.65 228.52 1159.65 228.52 1193.54 228.52 c 0,0,0
 1274.12 228.52 1274.12 228.52 1354.96 330.395 c 0,0,0
 1435.8 432.27 1435.8 432.27 1466.8 584.92 c 2,0,0
 1626.75 1409 l 1,0,0
 1992.77 1409 l 1,0,0
 1780.47 312.83 l 2,0,0
 1765.46 228.76 1765.46 228.76 1748.61 151.22 c 0,0,0
 1731.76 73.68 1731.76 73.68 1713.74 1.67 c 1,0,0
 1321.96 1.67 l 1,0,0
 1342.63 184.41 l 1,0,0
 1337.96 187.09 l 1,0,0
 1276.62 74.35 1276.62 74.35 1203.805 27.175 c 0,0,0
 1130.99 -20 1130.99 -20 1005.93 -20 c 0,0,0
EndSplineSet
EndChar

StartChar: uni019D
Encoding: 413 413 350
Width: 1479
GlyphClass: 2
Flags: HW
LayerCount: 2
Fore
SplineSet
814.99 0 m 1,0,0
 546.18 1078.07 l 1,0,0
 539.2 1018.51 539.2 1018.51 530.37 963.2 c 0,0,0
 521.54 907.89 521.54 907.89 510.86 857.83 c 2,0,0
 330.91 -42.16 l 2,0,0
 300.89 -192.59 300.89 -192.59 252.04 -276.46 c 0,0,0
 203.19 -360.33 203.19 -360.33 122.825 -393 c 0,0,0
 42.46 -425.67 42.46 -425.67 -83.27 -425.67 c 0,0,0
 -159.96 -425.67 -159.96 -425.67 -269.4 -406.34 c 1,0,0
 -214.35 -126.09 l 1,0,0
 -145.97 -135.74 -145.97 -135.74 -120 -135.74 c 0,0,0
 -58.01 -135.74 -58.01 -135.74 -26.695 -100.255 c 0,0,0
 4.62 -64.77 4.62 -64.77 17.61 5.52 c 2,0,0
 292.58 1409 l 1,0,0
 735.04 1409 l 1,0,0
 1006.85 317.58 l 1,0,0
 1011.5 367.49 1011.5 367.49 1021.665 425.965 c 0,0,0
 1031.83 484.44 1031.83 484.44 1045.17 554.82 c 2,0,0
 1214.48 1409 l 1,0,0
 1536.78 1409 l 1,0,0
 1262.11 0 l 1,0,0
 814.99 0 l 1,0,0
EndSplineSet
EndChar

StartChar: uni019E
Encoding: 414 414 351
Width: 1326
GlyphClass: 2
Flags: HW
LayerCount: 2
Fore
SplineSet
1238.76 734.83 m 2,0,0
 1010.39 -425 l 1,0,0
 665.73 -425 l 1,0,0
 864.71 561.5 l 2,0,0
 896.07 713.96 896.07 713.96 896.07 736.55 c 0,0,0
 896.07 840.09 896.07 840.09 762.16 840.09 c 0,0,0
 706.55 840.09 706.55 840.09 650.915 807.445 c 0,0,0
 595.28 774.8 595.28 774.8 555.635 721.185 c 0,0,0
 515.99 667.57 515.99 667.57 504.01 606 c 2,0,0
 386.01 0 l 1,0,0
 35.67 0 l 1,0,0
 209.04 892.54 l 2,0,0
 210.36 897.81 210.36 897.81 213.02 901.55 c 0,0,0
 215.68 905.29 215.68 905.29 222.36 937.32 c 0,0,0
 229.04 965.36 229.04 965.36 235.89 982.165 c 0,0,0
 242.74 998.97 242.74 998.97 249.925 1019.95 c 0,0,0
 257.11 1040.93 257.11 1040.93 265.13 1082 c 1,0,0
 601.47 1082 l 1,0,0
 598.12 1085.38 598.12 1085.38 588.26 1039.51 c 0,0,0
 578.4 993.64 578.4 993.64 568.21 946.28 c 0,0,0
 558.02 898.92 558.02 898.92 551.34 897 c 1,0,0
 554.34 897 l 1,0,0
 625.65 998.64 625.65 998.64 720.84 1049.82 c 0,0,0
 816.03 1101 816.03 1101 932.7 1101 c 0,0,0
 1087.38 1101 1087.38 1101 1166.055 1028 c 0,0,0
 1244.73 955 1244.73 955 1244.73 817 c 0,0,0
 1244.73 805.04 1244.73 805.04 1242.235 777.4 c 0,0,0
 1239.74 749.76 1239.74 749.76 1238.76 734.83 c 2,0,0
EndSplineSet
EndChar

StartChar: Ohorn
Encoding: 416 416 353
Width: 1750
GlyphClass: 2
Flags: HW
LayerCount: 2
Fore
SplineSet
921.3 1430 m 0,0,0
 1193.72 1430 1193.72 1430 1366.595 1301.795 c 0,0,0
 1539.47 1173.59 1539.47 1173.59 1570.44 938.18 c 1,0,0
 1637.7 953.45 1637.7 953.45 1667.33 992.42 c 0,0,0
 1696.96 1031.39 1696.96 1031.39 1707.95 1086.69 c 1,0,0
 1554.82 1086.69 l 1,0,0
 1616.54 1409 l 1,0,0
 1965.18 1409 l 1,0,0
 1909.78 1125.98 l 2,0,0
 1882.45 980.63 1882.45 980.63 1800.43 887.28 c 0,0,0
 1718.41 793.93 1718.41 793.93 1577.76 764.33 c 1,0,0
 1576.42 759.37 1576.42 759.37 1574.58 749.725 c 0,0,0
 1572.74 740.08 1572.74 740.08 1571.07 727.42 c 0,0,0
 1559.38 669.66 1559.38 669.66 1551.98 616.21 c 0,0,0
 1544.58 562.76 1544.58 562.76 1540.46 497.87 c 0,0,0
 1437.81 248.28 1437.81 248.28 1228.2 114.14 c 0,0,0
 1018.59 -20 1018.59 -20 739.06 -20 c 0,0,0
 573.19 -20 573.19 -20 434.88 28.55 c 0,0,0
 268.09 98.54 268.09 98.54 180.36 240.41 c 0,0,0
 92.63 382.28 92.63 382.28 92.63 573 c 0,0,0
 92.63 806.32 92.63 806.32 198.63 1011.33 c 0,0,0
 303.63 1216.34 303.63 1216.34 489.29 1323.17 c 0,0,0
 674.95 1430 674.95 1430 921.3 1430 c 0,0,0
903.95 1144.07 m 0,0,0
 831.73 1144.07 831.73 1144.07 749.89 1148.8 c 0,0,0
 658.48 1108.18 658.48 1108.18 595.43 1023.685 c 0,0,0
 532.38 939.19 532.38 939.19 499.02 827.825 c 0,0,0
 465.66 716.46 465.66 716.46 465.66 593.06 c 0,0,0
 465.66 424.14 465.66 424.14 544.605 343.865 c 0,0,0
 623.55 263.59 623.55 263.59 756.41 263.59 c 0,0,0
 893.29 263.59 893.29 263.59 990.54 330.55 c 0,0,0
 1055.82 375.19 1055.82 375.19 1101.615 450.145 c 0,0,0
 1147.41 525.1 1147.41 525.1 1171.055 618.71 c 0,0,0
 1194.7 712.32 1194.7 712.32 1194.7 813.6 c 0,0,0
 1194.7 968.83 1194.7 968.83 1121.27 1056.45 c 0,0,0
 1047.84 1144.07 1047.84 1144.07 903.95 1144.07 c 0,0,0
EndSplineSet
EndChar

StartChar: ohorn
Encoding: 417 417 354
Width: 1466
GlyphClass: 2
Flags: HW
LayerCount: 2
Fore
SplineSet
564.48 -20 m 0,0,0
 331.74 -20 331.74 -20 196.03 97 c 0,0,0
 60.32 214 60.32 214 60.32 419 c 0,0,0
 60.32 630.72 60.32 630.72 148.36 779.02 c 0,0,0
 236.4 927.99 236.4 927.99 397.135 1014.495 c 0,0,0
 557.87 1101 557.87 1101 745.54 1101 c 0,0,0
 1008.69 1101 1008.69 1101 1142.07 978.1 c 0,0,0
 1275.45 855.2 1275.45 855.2 1262.05 633.42 c 0,0,0
 1261.38 622.75 1261.38 622.75 1260.21 610.41 c 0,0,0
 1259.04 598.07 1259.04 598.07 1258.37 586.4 c 1,0,0
 1331.38 591.67 1331.38 591.67 1366.035 629.145 c 0,0,0
 1400.69 666.62 1400.69 666.62 1415.36 755.67 c 1,0,0
 1295.63 755.67 l 1,0,0
 1357.35 1077.98 l 1,0,0
 1672.59 1077.98 l 1,0,0
 1617.19 794.96 l 2,0,0
 1581.17 610.51 1581.17 610.51 1483.605 512.315 c 0,0,0
 1386.04 414.12 1386.04 414.12 1228.98 407.89 c 1,0,0
 1186.24 254.16 1186.24 254.16 1090.8 159.395 c 0,0,0
 995.36 64.63 995.36 64.63 862.91 14.71 c 0,0,0
 708.23 -20 708.23 -20 564.48 -20 c 0,0,0
893.01 647.93 m 0,0,0
 893.01 868.8 893.01 868.8 711.81 868.8 c 0,0,0
 608.54 868.8 608.54 868.8 549.25 811.49 c 0,0,0
 510.28 772.17 510.28 772.17 483.47 710.04 c 0,0,0
 456.66 647.91 456.66 647.91 442.84 577.625 c 0,0,0
 429.02 507.34 429.02 507.34 429.02 441.05 c 0,0,0
 429.02 323.11 429.02 323.11 472.98 267.32 c 0,0,0
 516.94 211.53 516.94 211.53 608.88 211.53 c 0,0,0
 633.39 211.53 633.39 211.53 665.83 212.295 c 0,0,0
 698.27 213.06 698.27 213.06 721.89 210.91 c 0,0,0
 773.93 241.54 773.93 241.54 812.29 299.845 c 0,0,0
 850.65 358.15 850.65 358.15 871.83 445.33 c 0,0,0
 893.01 532.51 893.01 532.51 893.01 647.93 c 0,0,0
EndSplineSet
EndChar

StartChar: uni01A2
Encoding: 418 418 355
Width: 1899
GlyphClass: 2
Flags: HW
LayerCount: 2
Fore
SplineSet
670.59 -20 m 0,0,0
 396.61 -20 396.61 -20 247.125 128.315 c 0,0,0
 97.64 276.63 97.64 276.63 97.64 547.95 c 0,0,0
 97.64 819.68 97.64 819.68 195.29 1019.68 c 0,0,0
 293.61 1216.34 293.61 1216.34 481.775 1323.17 c 0,0,0
 669.94 1430 669.94 1430 936.33 1430 c 0,0,0
 1047.38 1430 1047.38 1430 1161.94 1404.655 c 0,0,0
 1276.5 1379.31 1276.5 1379.31 1335.12 1342.98 c 1,0,0
 1898.65 1426.34 l 1,0,0
 1991.75 1426.34 l 1,0,0
 1631.08 -425.67 l 1,0,0
 1280.74 -425.67 l 1,0,0
 1587.38 1154.2 l 1,0,0
 1312.95 1152.86 l 1,0,0
 1102.31 55.3 l 1,0,0
 1073.4 39.67 1073.4 39.67 998.215 21.675 c 0,0,0
 923.03 3.68 923.03 3.68 834.315 -8.16 c 0,0,0
 745.6 -20 745.6 -20 670.59 -20 c 0,0,0
965.28 1161.2 m 1,0,0
 931.4 1154.09 931.4 1154.09 920.65 1154.09 c 0,0,0
 858.45 1154.09 858.45 1154.09 769.93 1147.13 c 0,0,0
 673.51 1098.16 673.51 1098.16 607.12 1014.5 c 0,0,0
 540.73 930.84 540.73 930.84 506.535 816.97 c 0,0,0
 472.34 703.1 472.34 703.1 472.34 561.33 c 0,0,0
 472.34 403.43 472.34 403.43 541.1 329.335 c 0,0,0
 609.86 255.24 609.86 255.24 751.07 255.24 c 0,0,0
 758.81 255.24 758.81 255.24 787.33 247.8 c 1,0,0
 965.28 1161.2 l 1,0,0
EndSplineSet
EndChar

StartChar: uni01A3
Encoding: 419 419 356
Width: 1592
GlyphClass: 2
Flags: HW
LayerCount: 2
Fore
SplineSet
531.08 -20 m 0,0,0
 318.38 -20 318.38 -20 201.04 99.505 c 0,0,0
 83.7 219.01 83.7 219.01 83.7 420.67 c 0,0,0
 83.7 627.38 83.7 627.38 168.4 779.02 c 0,0,0
 251.43 929.66 251.43 929.66 403.815 1016.165 c 0,0,0
 556.2 1102.67 556.2 1102.67 748.88 1102.67 c 0,0,0
 866.95 1102.67 866.95 1102.67 974.515 1072.815 c 0,0,0
 1082.08 1042.96 1082.08 1042.96 1122.36 1006.63 c 1,0,0
 1555.86 1108.03 l 1,0,0
 1655.64 1108.03 l 1,0,0
 1357.3 -425 l 1,0,0
 1052.04 -425 l 1,0,0
 1299.68 849.53 l 1,0,0
 1102.33 849.53 l 1,0,0
 962.73 59.71 l 1,0,0
 769.24 -20 769.24 -20 531.08 -20 c 0,0,0
797.39 864.83 m 1,0,0
 794.17 868.8 794.17 868.8 725.17 868.8 c 0,0,0
 656.97 868.8 656.97 868.8 589.33 808.15 c 0,0,0
 543.68 767.16 543.68 767.16 510.19 710.04 c 0,0,0
 476.7 652.92 476.7 652.92 459.54 578.46 c 0,0,0
 442.38 504 442.38 504 442.38 409.32 c 0,0,0
 442.38 308.08 442.38 308.08 477.155 259.805 c 0,0,0
 511.93 211.53 511.93 211.53 585.5 211.53 c 0,0,0
 646.17 211.53 646.17 211.53 671.79 215.85 c 1,0,0
 797.39 864.83 l 1,0,0
EndSplineSet
EndChar

StartChar: uni01A4
Encoding: 420 420 357
Width: 1529
GlyphClass: 2
Flags: HW
LayerCount: 2
Fore
SplineSet
1050.47 1409 m 2,0,0
 1306.52 1409 1306.52 1409 1444.025 1291.64 c 0,0,0
 1581.53 1174.28 1581.53 1174.28 1581.53 964.89 c 0,0,0
 1581.53 812.21 1581.53 812.21 1511.695 698.695 c 0,0,0
 1441.86 585.18 1441.86 585.18 1316.03 522.835 c 0,0,0
 1190.2 460.49 1190.2 460.49 1020.88 460.49 c 2,0,0
 740.5 460.49 l 1,0,0
 647.86 0 l 1,0,0
 284.85 0 l 1,0,0
 507.14 1150.78 l 1,0,0
 477.11 1150.78 l 2,0,0
 419.85 1150.78 419.85 1150.78 387.545 1121.49 c 0,0,0
 355.24 1092.2 355.24 1092.2 355.24 1035.27 c 0,0,0
 354.57 1012.25 354.57 1012.25 358.91 980.21 c 0,0,0
 363.25 948.17 363.25 948.17 372.6 906.78 c 1,0,0
 96.01 889.78 l 1,0,0
 95.35 912.13 95.35 912.13 94.185 937.985 c 0,0,0
 93.02 963.84 93.02 963.84 93.02 996.21 c 0,0,0
 93.02 1214.64 93.02 1214.64 190.2 1311.82 c 0,0,0
 287.38 1409 287.38 1409 502.8 1409 c 2,0,0
 1050.47 1409 l 2,0,0
792.21 738.41 m 1,0,0
 950.42 738.41 l 2,0,0
 1079.63 738.41 1079.63 738.41 1145.905 783.01 c 0,0,0
 1212.18 827.61 1212.18 827.61 1212.18 944.2 c 0,0,0
 1212.18 1034.81 1212.18 1034.81 1158.23 1081.945 c 0,0,0
 1104.28 1129.08 1104.28 1129.08 1007.06 1129.08 c 2,0,0
 868.48 1129.08 l 1,0,0
 792.21 738.41 l 1,0,0
EndSplineSet
EndChar

StartChar: uni01A5
Encoding: 421 421 358
Width: 1326
GlyphClass: 2
Flags: HW
LayerCount: 2
Fore
SplineSet
734.36 -20 m 0,0,0
 608.02 -20 608.02 -20 529.685 32 c 0,0,0
 451.35 84 451.35 84 419.35 178 c 1,0,0
 419.36 178 l 1,0,0
 420.37 174.72 420.37 174.72 419.21 168.935 c 0,0,0
 418.05 163.15 418.05 163.15 418.06 156.53 c 0,0,0
 427.79 210.88 427.79 210.88 400.45 64.495 c 0,0,0
 373.11 -81.89 373.11 -81.89 306.69 -425 c 1,0,0
 -40.98 -425 l 1,0,0
 257.98 1154.2 l 2,0,0
 289.66 1324.61 289.66 1324.61 389.535 1399.615 c 0,0,0
 489.41 1474.62 489.41 1474.62 685.56 1474.62 c 0,0,0
 765.58 1474.62 765.58 1474.62 900.74 1455.29 c 1,0,0
 853.37 1215.78 l 1,0,0
 770.3 1227.43 770.3 1227.43 737.63 1227.43 c 0,0,0
 681.31 1227.43 681.31 1227.43 644.81 1201.14 c 0,0,0
 608.31 1174.85 608.31 1174.85 597.66 1121.27 c 2,0,0
 556 904.96 l 1,0,0
 561.34 904.96 l 1,0,0
 633 1013.32 633 1013.32 719.345 1057.66 c 0,0,0
 805.69 1102 805.69 1102 919.69 1102 c 0,0,0
 1080.03 1102 1080.03 1102 1170.035 1007.5 c 0,0,0
 1260.04 913 1260.04 913 1260.04 748 c 0,0,0
 1260.04 549.01 1260.04 549.01 1197.37 355 c 0,0,0
 1134.7 161.66 1134.7 161.66 1021.865 70.83 c 0,0,0
 909.03 -20 909.03 -20 734.36 -20 c 0,0,0
754.13 869.48 m 0,0,0
 619.91 869.48 619.91 869.48 548.63 742.55 c 0,0,0
 524.98 698.57 524.98 698.57 507.66 639.435 c 0,0,0
 490.34 580.3 490.34 580.3 480.345 521.17 c 0,0,0
 470.35 462.04 470.35 462.04 470.35 417.08 c 0,0,0
 470.35 322.14 470.35 322.14 516.315 267.67 c 0,0,0
 562.28 213.2 562.28 213.2 645.22 213.2 c 0,0,0
 734.82 213.2 734.82 213.2 786.45 272.84 c 0,0,0
 821.09 314.16 821.09 314.16 844.4 385.785 c 0,0,0
 867.71 457.41 867.71 457.41 879.695 537.025 c 0,0,0
 891.68 616.64 891.68 616.64 891.68 679.26 c 0,0,0
 891.68 773.87 891.68 773.87 858.875 821.675 c 0,0,0
 826.07 869.48 826.07 869.48 754.13 869.48 c 0,0,0
EndSplineSet
EndChar

StartChar: uni01A6
Encoding: 422 422 359
Width: 1366
GlyphClass: 2
Flags: HW
LayerCount: 2
Fore
SplineSet
958.97 -335.7 m 1,0,0
 604.42 310.76 l 1,0,0
 445.55 310.76 l 1,0,0
 382.59 0 l 1,0,0
 17.91 0 l 1,0,0
 287.57 1410.67 l 1,0,0
 638.23 1410.67 l 1,0,0
 603.22 1219.93 l 1,0,0
 817.9 1219.93 l 2,0,0
 970.53 1219.93 970.53 1219.93 1079.51 1183.66 c 0,0,0
 1211.94 1133.99 1211.94 1133.99 1278.98 1033.945 c 0,0,0
 1346.02 933.9 1346.02 933.9 1346.02 794.82 c 0,0,0
 1346.02 645.23 1346.02 645.23 1237.185 526.88 c 0,0,0
 1128.35 408.53 1128.35 408.53 959.1 381.2 c 1,0,0
 1365.37 -335.7 l 1,0,0
 958.97 -335.7 l 1,0,0
730.24 593.69 m 2,0,0
 851.12 593.69 851.12 593.69 913.895 640.8 c 0,0,0
 976.67 687.91 976.67 687.91 976.67 776.48 c 0,0,0
 976.67 855.08 976.67 855.08 920.54 897.545 c 0,0,0
 864.41 940.01 864.41 940.01 771.52 940.01 c 2,0,0
 568.2 940.01 l 1,0,0
 500.6 593.69 l 1,0,0
 730.24 593.69 l 2,0,0
EndSplineSet
EndChar

StartChar: uni01A7
Encoding: 423 423 360
Width: 1366
GlyphClass: 2
Flags: HW
LayerCount: 2
Fore
SplineSet
1018.41 1064.94 m 0,0,0
 1018.41 1122.87 1018.41 1122.87 971.305 1150.16 c 0,0,0
 924.2 1177.45 924.2 1177.45 821.95 1177.45 c 0,0,0
 715.38 1177.45 715.38 1177.45 655.295 1140.495 c 0,0,0
 595.21 1103.54 595.21 1103.54 565.93 1038 c 1,0,0
 222.27 1081.02 l 1,0,0
 270.58 1211.02 270.58 1211.02 351.08 1286.68 c 0,0,0
 431.58 1362.34 431.58 1362.34 556.1 1396.17 c 0,0,0
 680.62 1430 680.62 1430 859.66 1430 c 0,0,0
 1093.02 1430 1093.02 1430 1235.055 1335.985 c 0,0,0
 1377.09 1241.97 1377.09 1241.97 1377.09 1081.63 c 0,0,0
 1377.09 990.95 1377.09 990.95 1354.76 925.275 c 0,0,0
 1332.43 859.6 1332.43 859.6 1293.77 810.59 c 0,0,0
 1253.78 761.25 1253.78 761.25 1208.16 732.6 c 0,0,0
 1175.52 711.94 1175.52 711.94 1138.725 693.44 c 0,0,0
 1101.93 674.94 1101.93 674.94 1049 655.605 c 0,0,0
 996.07 636.27 996.07 636.27 910.85 614.95 c 0,0,0
 822.52 591.27 822.52 591.27 730.47 574.45 c 0,0,0
 638.42 557.63 638.42 557.63 564.03 533.31 c 0,0,0
 497.01 513.68 497.01 513.68 450.97 480.38 c 0,0,0
 404.93 447.08 404.93 447.08 404.93 387.42 c 0,0,0
 404.93 303.46 404.93 303.46 460.53 276.35 c 0,0,0
 516.13 249.24 516.13 249.24 637.4 249.24 c 0,0,0
 789.78 249.24 789.78 249.24 879.11 302.28 c 0,0,0
 902.64 323.59 902.64 323.59 923.22 349.01 c 0,0,0
 943.8 374.43 943.8 374.43 953.38 389.21 c 1,0,0
 1318.09 337.2 l 1,0,0
 1248.14 169.99 1248.14 169.99 1061.93 74.995 c 0,0,0
 875.72 -20 875.72 -20 589.66 -20 c 0,0,0
 328.29 -20 328.29 -20 184.77 78.675 c 0,0,0
 41.25 177.35 41.25 177.35 41.25 345.67 c 0,0,0
 41.25 486.11 41.25 486.11 94.97 588.85 c 0,0,0
 148.69 691.59 148.69 691.59 278.19 761.3 c 0,0,0
 316.84 774.23 316.84 774.23 364.14 787.855 c 0,0,0
 411.44 801.48 411.44 801.48 467.73 814.79 c 0,0,0
 481.7 816.44 481.7 816.44 484.615 818.255 c 0,0,0
 487.53 820.07 487.53 820.07 483.4 818.04 c 2,0,0
 674.61 859.42 l 2,0,0
 764.25 879.42 764.25 879.42 823.225 895.08 c 0,0,0
 882.2 910.74 882.2 910.74 908.84 922.73 c 0,0,0
 960.45 945.71 960.45 945.71 989.43 978.845 c 0,0,0
 1018.41 1011.98 1018.41 1011.98 1018.41 1064.94 c 0,0,0
EndSplineSet
EndChar

StartChar: uni01A8
Encoding: 424 424 361
Width: 1216
GlyphClass: 2
Flags: HW
LayerCount: 2
Fore
SplineSet
680.87 885.18 m 0,0,0
 586.57 885.18 586.57 885.18 538.095 854.855 c 0,0,0
 489.62 824.53 489.62 824.53 468.64 766.91 c 1,0,0
 161.66 778.17 l 1,0,0
 224.04 940.25 224.04 940.25 360.265 1021.625 c 0,0,0
 496.49 1103 496.49 1103 721.59 1103 c 0,0,0
 929.65 1103 929.65 1103 1042.015 1027.825 c 0,0,0
 1154.38 952.65 1154.38 952.65 1154.38 793.59 c 0,0,0
 1154.38 682.53 1154.38 682.53 1095.835 605.99 c 0,0,0
 1037.29 529.45 1037.29 529.45 932.57 483.78 c 0,0,0
 831.53 440.45 831.53 440.45 492.52 374.75 c 0,0,0
 409.7 364.83 409.7 364.83 361.05 328.48 c 0,0,0
 352.81 318.85 352.81 318.85 348.355 305.225 c 0,0,0
 343.9 291.6 343.9 291.6 343.9 282.35 c 0,0,0
 343.9 196.15 343.9 196.15 525.81 196.15 c 0,0,0
 624.43 196.15 624.43 196.15 687.42 224.8 c 0,0,0
 750.41 253.45 750.41 253.45 798.11 325.76 c 1,0,0
 1100.42 301.49 l 1,0,0
 1021.34 120.37 1021.34 120.37 888.795 50.185 c 0,0,0
 756.25 -20 756.25 -20 500.77 -20 c 0,0,0
 282.39 -20 282.39 -20 155.68 60.18 c 0,0,0
 28.97 140.36 28.97 140.36 28.97 270.67 c 0,0,0
 28.97 394.74 28.97 394.74 77.65 473.77 c 0,0,0
 110.66 525.12 110.66 525.12 159 562.46 c 0,0,0
 207.34 599.8 207.34 599.8 295.195 627.625 c 0,0,0
 383.05 655.45 383.05 655.45 530.1 677.76 c 2,0,0
 675.2 699.75 l 1,0,0
 755.45 704.01 755.45 704.01 799.615 728.49 c 0,0,0
 843.78 752.97 843.78 752.97 843.78 791.25 c 0,0,0
 843.78 852.58 843.78 852.58 803.975 868.88 c 0,0,0
 764.17 885.18 764.17 885.18 680.87 885.18 c 0,0,0
EndSplineSet
EndChar

StartChar: uni01AA
Encoding: 426 426 363
Width: 773
GlyphClass: 2
Flags: HW
LayerCount: 2
Fore
SplineSet
135.92 1245.6 m 0,0,0
 135.92 1365.98 135.92 1365.98 210.935 1421.975 c 0,0,0
 285.95 1477.97 285.95 1477.97 434.7 1477.97 c 0,0,0
 594.47 1477.97 594.47 1477.97 679.36 1395.245 c 0,0,0
 764.25 1312.52 764.25 1312.52 764.25 1172.11 c 0,0,0
 764.25 1090.36 764.25 1090.36 750.58 1029.03 c 2,0,0
 542.34 -30.48 l 2,0,0
 537.34 -50.79 537.34 -50.79 537.34 -80.48 c 0,0,0
 537.34 -170.14 537.34 -170.14 634.01 -170.14 c 0,0,0
 645.31 -170.14 645.31 -170.14 694.855 -165.47 c 0,0,0
 744.4 -160.8 744.4 -160.8 757.04 -158.81 c 1,0,0
 708.67 -405.32 l 1,0,0
 630.98 -425 630.98 -425 487.83 -425 c 0,0,0
 326.38 -425 326.38 -425 250.345 -368.505 c 0,0,0
 174.31 -312.01 174.31 -312.01 174.31 -190.31 c 0,0,0
 174.31 -153.65 174.31 -153.65 186.65 -83.94 c 2,0,0
 408.6 1054.48 l 1,0,0
 370.95 1055.54 370.95 1055.54 324.98 1055.54 c 0,0,0
 247.64 1055.54 247.64 1055.54 191.78 1107.055 c 0,0,0
 135.92 1158.57 135.92 1158.57 135.92 1245.6 c 0,0,0
370.64 1338.18 m 0,0,0
 336.68 1338.18 336.68 1338.18 319.385 1321.89 c 0,0,0
 302.09 1305.6 302.09 1305.6 302.09 1272.31 c 0,0,0
 302.09 1230.31 302.09 1230.31 328.43 1203.3 c 0,0,0
 354.77 1176.29 354.77 1176.29 396.77 1176.29 c 0,0,0
 429.39 1176.29 429.39 1176.29 446.015 1193.25 c 0,0,0
 462.64 1210.21 462.64 1210.21 462.64 1244.17 c 0,0,0
 462.64 1286.17 462.64 1286.17 436.97 1312.175 c 0,0,0
 411.3 1338.18 411.3 1338.18 370.64 1338.18 c 0,0,0
EndSplineSet
EndChar

StartChar: uni01AB
Encoding: 427 427 364
Width: 757
GlyphClass: 2
Flags: HW
LayerCount: 2
Fore
SplineSet
191.79 -428.34 m 0,0,0
 106.75 -428.34 106.75 -428.34 -3.37 -409.01 c 1,0,0
 42.33 -175.85 l 1,0,0
 125.4 -187.5 125.4 -187.5 168.09 -187.5 c 0,0,0
 212.72 -187.5 212.72 -187.5 255.91 -168.22 c 0,0,0
 299.1 -148.94 299.1 -148.94 314.43 -79.33 c 2,0,0
 329.44 -4.97 l 1,0,0
 236.09 18.41 236.09 18.41 183.75 75.255 c 0,0,0
 131.41 132.1 131.41 132.1 131.41 237.81 c 0,0,0
 131.41 324.54 131.41 324.54 148.08 412.9 c 2,0,0
 234 852.47 l 1,0,0
 70.59 852.47 l 1,0,0
 114.96 1082 l 1,0,0
 300.41 1082 l 1,0,0
 458.85 1344.04 l 1,0,0
 672.37 1344.04 l 1,0,0
 623.7 1082 l 1,0,0
 827.04 1082 l 1,0,0
 786.01 852.47 l 1,0,0
 577.66 852.47 l 1,0,0
 487.73 391.17 l 2,0,0
 477.4 334.51 477.4 334.51 477.4 306.19 c 0,0,0
 477.4 258.85 477.4 258.85 501.57 236.015 c 0,0,0
 525.74 213.18 525.74 213.18 562.39 213.18 c 0,0,0
 593.04 213.18 593.04 213.18 675.75 225.51 c 1,0,0
 608.37 -101.89 l 2,0,0
 575.01 -250.92 575.01 -250.92 471.45 -339.63 c 0,0,0
 367.89 -428.34 367.89 -428.34 191.79 -428.34 c 0,0,0
EndSplineSet
EndChar

StartChar: uni01AC
Encoding: 428 428 365
Width: 1251
GlyphClass: 2
Flags: HW
LayerCount: 2
Fore
SplineSet
949.85 1132.76 m 1,0,0
 729.23 0 l 1,0,0
 363.88 0 l 1,0,0
 584.5 1132.76 l 1,0,0
 414.23 1132.76 l 2,0,0
 290.35 1132.76 290.35 1132.76 290.35 1035.27 c 0,0,0
 289.68 1002.23 289.68 1002.23 294.02 964.345 c 0,0,0
 298.36 926.46 298.36 926.46 307.71 885.07 c 1,0,0
 31.12 868.07 l 1,0,0
 28.13 911.43 28.13 911.43 28.13 996.21 c 0,0,0
 28.13 1214.64 28.13 1214.64 125.31 1311.82 c 0,0,0
 222.49 1409 222.49 1409 437.91 1409 c 2,0,0
 1410.41 1409 l 1,0,0
 1357.03 1132.76 l 1,0,0
 949.85 1132.76 l 1,0,0
EndSplineSet
EndChar

StartChar: uni01AD
Encoding: 429 429 366
Width: 757
GlyphClass: 2
Flags: HW
LayerCount: 2
Fore
SplineSet
443.67 -13.32 m 0,0,0
 293.54 -13.32 293.54 -13.32 212.475 50.205 c 0,0,0
 131.41 113.73 131.41 113.73 131.41 237.81 c 0,0,0
 131.41 324.54 131.41 324.54 148.08 412.9 c 2,0,0
 234 852.47 l 1,0,0
 70.59 852.47 l 1,0,0
 114.96 1082 l 1,0,0
 277.7 1082 l 1,0,0
 290.67 1155.54 l 2,0,0
 321.68 1327.96 321.68 1327.96 423.9 1401.29 c 0,0,0
 526.12 1474.62 526.12 1474.62 719.59 1474.62 c 0,0,0
 799.61 1474.62 799.61 1474.62 934.77 1455.29 c 1,0,0
 887.4 1232.48 l 1,0,0
 804.33 1244.13 804.33 1244.13 771.66 1244.13 c 0,0,0
 715.34 1244.13 715.34 1244.13 678.505 1218.175 c 0,0,0
 641.67 1192.22 641.67 1192.22 631.69 1140.65 c 2,0,0
 623.7 1082 l 1,0,0
 827.04 1082 l 1,0,0
 786.01 852.47 l 1,0,0
 577.66 852.47 l 1,0,0
 487.73 391.17 l 2,0,0
 477.4 334.51 477.4 334.51 477.4 306.19 c 0,0,0
 477.4 258.85 477.4 258.85 501.57 236.015 c 0,0,0
 525.74 213.18 525.74 213.18 562.39 213.18 c 0,0,0
 593.04 213.18 593.04 213.18 675.75 225.51 c 1,0,0
 635.04 10.68 l 1,0,0
 566.1 -13.32 566.1 -13.32 443.67 -13.32 c 0,0,0
EndSplineSet
EndChar

StartChar: uni01AE
Encoding: 430 430 367
Width: 1251
GlyphClass: 2
Flags: HW
LayerCount: 2
Fore
SplineSet
118.87 1132.76 m 1,0,0
 172.25 1409 l 1,0,0
 1410.41 1409 l 1,0,0
 1357.03 1132.76 l 1,0,0
 919.79 1132.76 l 1,0,0
 698.21 2.89 l 2,0,0
 691.88 -21.74 691.88 -21.74 691.88 -55.42 c 0,0,0
 691.88 -152.44 691.88 -152.44 796.26 -152.44 c 0,0,0
 806.83 -152.44 806.83 -152.44 886.22 -141.45 c 1,0,0
 835.18 -402.99 l 1,0,0
 722.1 -425 722.1 -425 643.4 -425 c 0,0,0
 478.62 -425 478.62 -425 399.575 -357.81 c 0,0,0
 320.53 -290.62 320.53 -290.62 320.53 -134.84 c 0,0,0
 320.53 -50.08 320.53 -50.08 335.87 18.27 c 2,0,0
 554.44 1132.76 l 1,0,0
 118.87 1132.76 l 1,0,0
EndSplineSet
EndChar

StartChar: Uhorn
Encoding: 431 431 368
Width: 1676
GlyphClass: 2
Flags: HW
LayerCount: 2
Fore
SplineSet
684.06 -20 m 0,0,0
 398.62 -20 398.62 -20 247.42 95.825 c 0,0,0
 96.22 211.65 96.22 211.65 96.22 431 c 0,0,0
 96.22 517 96.22 517 119.22 635 c 2,0,0
 265.88 1409 l 1,0,0
 630.56 1409 l 1,0,0
 483.59 621.11 l 2,0,0
 464.92 536.12 464.92 536.12 464.92 429.68 c 0,0,0
 464.92 348.79 464.92 348.79 528.205 305.355 c 0,0,0
 591.49 261.92 591.49 261.92 700.06 261.92 c 0,0,0
 846.97 261.92 846.97 261.92 912.37 320.835 c 0,0,0
 977.77 379.75 977.77 379.75 1009.09 541 c 2,0,0
 1177.09 1409 l 1,0,0
 1542.44 1409 l 1,0,0
 1441.06 890.77 l 1,0,0
 1694.41 913.39 1694.41 913.39 1715.37 1086.69 c 1,0,0
 1562.24 1086.69 l 1,0,0
 1623.96 1409 l 1,0,0
 1972.6 1409 l 1,0,0
 1916.53 1122.63 l 2,0,0
 1882.2 947.3 1882.2 947.3 1756.82 840.105 c 0,0,0
 1631.44 732.91 1631.44 732.91 1408.03 717.94 c 1,0,0
 1370.77 530 l 2,0,0
 1313.09 240.96 1313.09 240.96 1150.1 110.48 c 0,0,0
 987.11 -20 987.11 -20 684.06 -20 c 0,0,0
EndSplineSet
EndChar

